999
dxfrw 0.5.11
0
SECTION
2
HEADER
9
$ACADVER
1
AC1021
9
$HANDSEED
5
20000
9
$DWGCODEPAGE
3
ANSI_1252
9
$INSBASE
10
0
20
0
30
0
9
$EXTMIN
10
-53
20
-2121.25
30
0
9
$EXTMAX
10
1705
20
833
30
0
9
$LIMMIN
10
0
20
0
9
$LIMMAX
10
420
20
297
9
$ORTHOMODE
70
0
9
$LTSCALE
40
1
9
$TEXTSTYLE
7
STANDARD
9
$CLAYER
8
0.18
9
$DIMASZ
40
5
9
$DIMLFAC
40
1
9
$DIMSCALE
40
1
9
$DIMEXO
40
2
9
$DIMEXE
40
1.25
9
$DIMTXT
40
10
9
$DIMTSZ
40
0
9
$DIMAUNIT
70
0
9
$DIMADEC
70
2
9
$DIMLUNIT
70
2
9
$DIMSTYLE
2
Standard
9
$DIMGAP
40
3
9
$DIMTIH
70
0
9
$LUNITS
70
2
9
$LUPREC
70
4
9
$AUNITS
70
0
9
$AUPREC
70
2
9
$SPLINESEGS
70
8
9
$GRIDMODE
70
1
9
$SNAPSTYLE
70
0
9
$GRIDUNIT
10
0
20
0
9
$PINSBASE
10
11.0077196338
20
65.5881609509
30
0
9
$PLIMMIN
10
0
20
0
9
$PLIMMAX
10
297
20
210
9
$INSUNITS
70
4
9
$PSVPSCALE
40
0.153846153846
0
ENDSEC
0
SECTION
2
CLASSES
0
ENDSEC
0
SECTION
2
TABLES
0
TABLE
2
VPORT
5
8
330
0
100
AcDbSymbolTable
70
1
0
VPORT
5
31
330
2
100
AcDbSymbolTableRecord
100
AcDbViewportTableRecord
2
*ACTIVE
70
0
10
0
20
0
11
1
21
1
12
1082.1968317
22
644.475221634
13
0
23
0
14
10
24
10
15
10
25
10
16
0
26
0
36
1
17
0
27
0
37
0
40
2212.82243729
41
1.99494949495
42
50
43
0
44
0
50
0
51
0
71
0
72
100
73
1
74
3
75
0
76
1
77
0
78
0
281
0
65
1
110
0
120
0
130
0
111
1
121
0
131
0
112
0
122
1
132
0
79
0
146
0
348
10020
60
7
61
5
292
1
282
1
141
0
142
0
63
250
421
3358443
0
ENDTAB
0
TABLE
2
LTYPE
5
5
330
0
100
AcDbSymbolTable
70
4
0
LTYPE
5
14
330
5
100
AcDbSymbolTableRecord
100
AcDbLinetypeTableRecord
2
ByBlock
70
0
3

72
65
73
0
40
0
0
LTYPE
5
15
330
5
100
AcDbSymbolTableRecord
100
AcDbLinetypeTableRecord
2
ByLayer
70
0
3

72
65
73
0
40
0
0
LTYPE
5
16
330
5
100
AcDbSymbolTableRecord
100
AcDbLinetypeTableRecord
2
Continuous
70
0
3
Solid line
72
65
73
0
40
0
0
LTYPE
5
32
330
5
100
AcDbSymbolTableRecord
100
AcDbLinetypeTableRecord
2
DOT
70
0
3
Dot . . . . . . . . . . . . . . . . . . . . . .
72
65
73
2
40
6.35
49
0
74
0
49
-6.35
74
0
0
LTYPE
5
33
330
5
100
AcDbSymbolTableRecord
100
AcDbLinetypeTableRecord
2
DOT2
70
0
3
Dot (.5x) .....................................
72
65
73
2
40
3.175
49
0
74
0
49
-3.175
74
0
0
LTYPE
5
34
330
5
100
AcDbSymbolTableRecord
100
AcDbLinetypeTableRecord
2
DOTX2
70
0
3
Dot (2x) .  .  .  .  .  .  .  .  .  .  .  .  .
72
65
73
2
40
12.7
49
0
74
0
49
-12.7
74
0
0
LTYPE
5
35
330
5
100
AcDbSymbolTableRecord
100
AcDbLinetypeTableRecord
2
DASHED
70
0
3
Dot . . . . . . . . . . . . . . . . . . . . . .
72
65
73
2
40
19.05
49
12.7
74
0
49
-6.35
74
0
0
LTYPE
5
36
330
5
100
AcDbSymbolTableRecord
100
AcDbLinetypeTableRecord
2
DASHED2
70
0
3
Dashed (.5x) _ _ _ _ _ _ _ _ _ _ _ _ _ _ _ _ _
72
65
73
2
40
9.525
49
6.35
74
0
49
-3.175
74
0
0
LTYPE
5
37
330
5
100
AcDbSymbolTableRecord
100
AcDbLinetypeTableRecord
2
DASHEDX2
70
0
3
Dashed (2x) ____  ____  ____  ____  ____  ___
72
65
73
2
40
38.1
49
25.4
74
0
49
-12.7
74
0
0
LTYPE
5
38
330
5
100
AcDbSymbolTableRecord
100
AcDbLinetypeTableRecord
2
DASHDOT
70
0
3
Dash dot __ . __ . __ . __ . __ . __ . __ . __
72
65
73
4
40
25.4
49
12.7
74
0
49
-6.35
74
0
49
0
74
0
49
-6.35
74
0
0
LTYPE
5
39
330
5
100
AcDbSymbolTableRecord
100
AcDbLinetypeTableRecord
2
DASHDOT2
70
0
3
Dash dot (.5x) _._._._._._._._._._._._._._._.
72
65
73
4
40
12.7
49
6.35
74
0
49
-3.175
74
0
49
0
74
0
49
-3.175
74
0
0
LTYPE
5
3A
330
5
100
AcDbSymbolTableRecord
100
AcDbLinetypeTableRecord
2
DASHDOTX2
70
0
3
Dash dot (2x) ____  .  ____  .  ____  .  ___
72
65
73
4
40
50.8
49
25.4
74
0
49
-12.7
74
0
49
0
74
0
49
-12.7
74
0
0
LTYPE
5
3B
330
5
100
AcDbSymbolTableRecord
100
AcDbLinetypeTableRecord
2
DIVIDE
70
0
3
Divide ____ . . ____ . . ____ . . ____ . . ____
72
65
73
6
40
31.75
49
12.7
74
0
49
-6.35
74
0
49
0
74
0
49
-6.35
74
0
49
0
74
0
49
-6.35
74
0
0
LTYPE
5
3C
330
5
100
AcDbSymbolTableRecord
100
AcDbLinetypeTableRecord
2
DIVIDE2
70
0
3
Divide (.5x) __..__..__..__..__..__..__..__.._
72
65
73
6
40
15.875
49
6.35
74
0
49
-3.175
74
0
49
0
74
0
49
-3.175
74
0
49
0
74
0
49
-3.175
74
0
0
LTYPE
5
3D
330
5
100
AcDbSymbolTableRecord
100
AcDbLinetypeTableRecord
2
DIVIDEX2
70
0
3
Divide (2x) ________  .  .  ________  .  .  _
72
65
73
6
40
63.5
49
25.4
74
0
49
-12.7
74
0
49
0
74
0
49
-12.7
74
0
49
0
74
0
49
-12.7
74
0
0
LTYPE
5
3E
330
5
100
AcDbSymbolTableRecord
100
AcDbLinetypeTableRecord
2
BORDER
70
0
3
Border __ __ . __ __ . __ __ . __ __ . __ __ .
72
65
73
6
40
44.45
49
12.7
74
0
49
-6.35
74
0
49
12.7
74
0
49
-6.35
74
0
49
0
74
0
49
-6.35
74
0
0
LTYPE
5
3F
330
5
100
AcDbSymbolTableRecord
100
AcDbLinetypeTableRecord
2
BORDER2
70
0
3
Border (.5x) __.__.__.__.__.__.__.__.__.__.__.
72
65
73
6
40
22.225
49
6.35
74
0
49
-3.175
74
0
49
6.35
74
0
49
-3.175
74
0
49
0
74
0
49
-3.175
74
0
0
LTYPE
5
40
330
5
100
AcDbSymbolTableRecord
100
AcDbLinetypeTableRecord
2
BORDERX2
70
0
3
Border (2x) ____  ____  .  ____  ____  .  ___
72
65
73
6
40
88.9
49
25.4
74
0
49
-12.7
74
0
49
25.4
74
0
49
-12.7
74
0
49
0
74
0
49
-12.7
74
0
0
LTYPE
5
41
330
5
100
AcDbSymbolTableRecord
100
AcDbLinetypeTableRecord
2
CENTER
70
0
3
Center ____ _ ____ _ ____ _ ____ _ ____ _ ____
72
65
73
4
40
50.8
49
31.75
74
0
49
-6.35
74
0
49
6.35
74
0
49
-6.35
74
0
0
LTYPE
5
42
330
5
100
AcDbSymbolTableRecord
100
AcDbLinetypeTableRecord
2
CENTER2
70
0
3
Center (.5x) ___ _ ___ _ ___ _ ___ _ ___ _ ___
72
65
73
4
40
28.575
49
19.05
74
0
49
-3.175
74
0
49
3.175
74
0
49
-3.175
74
0
0
LTYPE
5
43
330
5
100
AcDbSymbolTableRecord
100
AcDbLinetypeTableRecord
2
CENTERX2
70
0
3
Center (2x) ________  __  ________  __  _____
72
65
73
4
40
101.6
49
63.5
74
0
49
-12.7
74
0
49
12.7
74
0
49
-12.7
74
0
0
ENDTAB
0
TABLE
2
LAYER
5
2
330
0
100
AcDbSymbolTable
70
1
0
LAYER
5
10
330
2
100
AcDbSymbolTableRecord
100
AcDbLayerTableRecord
2
0
70
0
62
7
6
CONTINUOUS
370
0
390
F
0
LAYER
5
44
330
2
100
AcDbSymbolTableRecord
100
AcDbLayerTableRecord
2
0.13
70
0
62
7
6
CONTINUOUS
370
13
390
F
0
LAYER
5
45
330
2
100
AcDbSymbolTableRecord
100
AcDbLayerTableRecord
2
0.18
70
0
62
7
6
CONTINUOUS
370
18
390
F
0
LAYER
5
46
330
2
100
AcDbSymbolTableRecord
100
AcDbLayerTableRecord
2
Bemassung
70
0
62
7
6
CONTINUOUS
370
5
390
F
0
LAYER
5
47
330
2
100
AcDbSymbolTableRecord
100
AcDbLayerTableRecord
2
HilfBL
70
1
62
5
6
CONTINUOUS
370
0
390
F
0
LAYER
5
48
330
2
100
AcDbSymbolTableRecord
100
AcDbLayerTableRecord
2
HilfRT
70
1
62
1
6
CONTINUOUS
370
0
390
F
0
LAYER
5
49
330
2
100
AcDbSymbolTableRecord
100
AcDbLayerTableRecord
2
Lamellos
70
0
62
7
6
CONTINUOUS
370
0
390
F
0
ENDTAB
0
TABLE
2
STYLE
5
3
330
0
100
AcDbSymbolTable
70
3
0
STYLE
5
4A
330
2
100
AcDbSymbolTableRecord
100
AcDbTextStyleTableRecord
2
Standard
70
0
40
0
41
1
50
0
71
0
42
1
3
txt
4

0
ENDTAB
0
TABLE
2
VIEW
5
6
330
0
100
AcDbSymbolTable
70
0
0
ENDTAB
0
TABLE
2
UCS
5
7
330
0
100
AcDbSymbolTable
70
0
0
ENDTAB
0
TABLE
2
APPID
5
9
330
0
100
AcDbSymbolTable
70
1
0
APPID
5
12
330
9
100
AcDbSymbolTableRecord
100
AcDbRegAppTableRecord
2
ACAD
70
0
0
ENDTAB
0
TABLE
2
DIMSTYLE
5
A
330
0
100
AcDbSymbolTable
70
1
100
AcDbDimStyleTable
71
1
0
DIMSTYLE
105
4B
330
A
100
AcDbSymbolTableRecord
100
AcDbDimStyleTableRecord
2
Standard
70
0
40
1
41
5
42
2
43
0.38
44
1.25
45
0
46
0
47
0
48
0
140
10
141
0.09
142
0
143
25.4
144
1
145
0
146
1
147
3
148
0
71
0
72
0
73
0
74
1
75
0
76
0
77
0
78
0
79
0
170
0
171
2
172
0
173
0
174
0
175
0
176
0
177
0
178
0
179
0
271
4
272
4
273
2
274
2
275
0
276
0
277
2
278
46
279
0
280
0
281
0
282
0
283
1
284
0
285
0
286
0
288
0
289
3
340
Standard
341

371
-2
372
-2
0
ENDTAB
0
TABLE
2
BLOCK_RECORD
5
1
330
0
100
AcDbSymbolTable
70
2
0
BLOCK_RECORD
5
1F
330
1
100
AcDbSymbolTableRecord
100
AcDbBlockTableRecord
2
*Model_Space
70
0
280
1
281
0
0
BLOCK_RECORD
5
1E
330
1
100
AcDbSymbolTableRecord
100
AcDbBlockTableRecord
2
*Paper_Space
70
0
280
1
281
0
0
BLOCK_RECORD
5
4C
330
1
100
AcDbSymbolTableRecord
100
AcDbBlockTableRecord
2
*D16
70
0
280
1
281
0
0
BLOCK_RECORD
5
4F
330
1
100
AcDbSymbolTableRecord
100
AcDbBlockTableRecord
2
*D1
70
0
280
1
281
0
0
BLOCK_RECORD
5
52
330
1
100
AcDbSymbolTableRecord
100
AcDbBlockTableRecord
2
*D14
70
0
280
1
281
0
0
BLOCK_RECORD
5
55
330
1
100
AcDbSymbolTableRecord
100
AcDbBlockTableRecord
2
*D13
70
0
280
1
281
0
0
BLOCK_RECORD
5
58
330
1
100
AcDbSymbolTableRecord
100
AcDbBlockTableRecord
2
*D8
70
0
280
1
281
0
0
BLOCK_RECORD
5
5B
330
1
100
AcDbSymbolTableRecord
100
AcDbBlockTableRecord
2
*D2
70
0
280
1
281
0
0
BLOCK_RECORD
5
5E
330
1
100
AcDbSymbolTableRecord
100
AcDbBlockTableRecord
2
*D33
70
0
280
1
281
0
0
BLOCK_RECORD
5
61
330
1
100
AcDbSymbolTableRecord
100
AcDbBlockTableRecord
2
*D23
70
0
280
1
281
0
0
BLOCK_RECORD
5
64
330
1
100
AcDbSymbolTableRecord
100
AcDbBlockTableRecord
2
*D11
70
0
280
1
281
0
0
BLOCK_RECORD
5
67
330
1
100
AcDbSymbolTableRecord
100
AcDbBlockTableRecord
2
*D19
70
0
280
1
281
0
0
BLOCK_RECORD
5
6A
330
1
100
AcDbSymbolTableRecord
100
AcDbBlockTableRecord
2
*D32
70
0
280
1
281
0
0
BLOCK_RECORD
5
6D
330
1
100
AcDbSymbolTableRecord
100
AcDbBlockTableRecord
2
*D4
70
0
280
1
281
0
0
BLOCK_RECORD
5
70
330
1
100
AcDbSymbolTableRecord
100
AcDbBlockTableRecord
2
*D28
70
0
280
1
281
0
0
BLOCK_RECORD
5
73
330
1
100
AcDbSymbolTableRecord
100
AcDbBlockTableRecord
2
*D9
70
0
280
1
281
0
0
BLOCK_RECORD
5
76
330
1
100
AcDbSymbolTableRecord
100
AcDbBlockTableRecord
2
*D21
70
0
280
1
281
0
0
BLOCK_RECORD
5
79
330
1
100
AcDbSymbolTableRecord
100
AcDbBlockTableRecord
2
*D6
70
0
280
1
281
0
0
BLOCK_RECORD
5
7C
330
1
100
AcDbSymbolTableRecord
100
AcDbBlockTableRecord
2
*D7
70
0
280
1
281
0
0
BLOCK_RECORD
5
7F
330
1
100
AcDbSymbolTableRecord
100
AcDbBlockTableRecord
2
*D18
70
0
280
1
281
0
0
BLOCK_RECORD
5
82
330
1
100
AcDbSymbolTableRecord
100
AcDbBlockTableRecord
2
*D5
70
0
280
1
281
0
0
BLOCK_RECORD
5
85
330
1
100
AcDbSymbolTableRecord
100
AcDbBlockTableRecord
2
*D29
70
0
280
1
281
0
0
BLOCK_RECORD
5
88
330
1
100
AcDbSymbolTableRecord
100
AcDbBlockTableRecord
2
*D22
70
0
280
1
281
0
0
BLOCK_RECORD
5
8B
330
1
100
AcDbSymbolTableRecord
100
AcDbBlockTableRecord
2
*D31
70
0
280
1
281
0
0
BLOCK_RECORD
5
8E
330
1
100
AcDbSymbolTableRecord
100
AcDbBlockTableRecord
2
*D17
70
0
280
1
281
0
0
BLOCK_RECORD
5
91
330
1
100
AcDbSymbolTableRecord
100
AcDbBlockTableRecord
2
*D20
70
0
280
1
281
0
0
BLOCK_RECORD
5
94
330
1
100
AcDbSymbolTableRecord
100
AcDbBlockTableRecord
2
*D24
70
0
280
1
281
0
0
BLOCK_RECORD
5
97
330
1
100
AcDbSymbolTableRecord
100
AcDbBlockTableRecord
2
*D15
70
0
280
1
281
0
0
BLOCK_RECORD
5
9A
330
1
100
AcDbSymbolTableRecord
100
AcDbBlockTableRecord
2
*D12
70
0
280
1
281
0
0
BLOCK_RECORD
5
9D
330
1
100
AcDbSymbolTableRecord
100
AcDbBlockTableRecord
2
*D3
70
0
280
1
281
0
0
BLOCK_RECORD
5
A0
330
1
100
AcDbSymbolTableRecord
100
AcDbBlockTableRecord
2
*D27
70
0
280
1
281
0
0
BLOCK_RECORD
5
A3
330
1
100
AcDbSymbolTableRecord
100
AcDbBlockTableRecord
2
*D26
70
0
280
1
281
0
0
BLOCK_RECORD
5
A6
330
1
100
AcDbSymbolTableRecord
100
AcDbBlockTableRecord
2
*D34
70
0
280
1
281
0
0
BLOCK_RECORD
5
A9
330
1
100
AcDbSymbolTableRecord
100
AcDbBlockTableRecord
2
*D10
70
0
280
1
281
0
0
BLOCK_RECORD
5
AC
330
1
100
AcDbSymbolTableRecord
100
AcDbBlockTableRecord
2
*D30
70
0
280
1
281
0
0
BLOCK_RECORD
5
AF
330
1
100
AcDbSymbolTableRecord
100
AcDbBlockTableRecord
2
*D25
70
0
280
1
281
0
0
BLOCK_RECORD
5
B2
330
1
100
AcDbSymbolTableRecord
100
AcDbBlockTableRecord
2
Lamello10
70
0
280
1
281
0
0
BLOCK_RECORD
5
B5
330
1
100
AcDbSymbolTableRecord
100
AcDbBlockTableRecord
2
Lamello10-b
70
0
280
1
281
0
0
BLOCK_RECORD
5
B8
330
1
100
AcDbSymbolTableRecord
100
AcDbBlockTableRecord
2
Lamello10-c
70
0
280
1
281
0
0
ENDTAB
0
ENDSEC
0
SECTION
2
BLOCKS
0
BLOCK
5
20
330
1F
100
AcDbEntity
8
0
100
AcDbBlockBegin
2
*Model_Space
70
0
10
0
20
0
30
0
3
*Model_Space
1

0
ENDBLK
5
21
330
1F
100
AcDbEntity
8
0
100
AcDbBlockEnd
0
BLOCK
5
1C
330
1B
100
AcDbEntity
8
0
100
AcDbBlockBegin
2
*Paper_Space
70
0
10
0
20
0
30
0
3
*Paper_Space
1

0
ENDBLK
5
1D
330
1F
100
AcDbEntity
8
0
100
AcDbBlockEnd
0
BLOCK
5
4D
330
4C
100
AcDbEntity
8
0
100
AcDbBlockBegin
2
*D16
70
1
10
0
20
0
3
*D16
1

0
LINE
5
BB
100
AcDbEntity
8
Bemassung
6
CONTINUOUS
62
7
370
0
100
AcDbLine
10
288
20
50
11
320
21
50
0
SOLID
5
BC
100
AcDbEntity
8
Bemassung
6
CONTINUOUS
62
7
370
0
100
AcDbTrace
10
298
20
50
30
0
11
293
21
49.1674306845
31
0
12
293
22
50.8325693155
32
0
13
293
23
50.8325693155
33
0
0
SOLID
5
BD
100
AcDbEntity
8
Bemassung
6
CONTINUOUS
62
7
370
0
100
AcDbTrace
10
310
20
50
30
0
11
315
21
50.8325693155
31
0
12
315
22
49.1674306845
32
0
13
315
23
49.1674306845
33
0
0
MTEXT
5
BE
100
AcDbEntity
8
Bemassung
6
CONTINUOUS
62
7
370
0
100
AcDbMText
10
304
20
58
30
0
40
10
41
10
71
5
72
1
1
12
7
standard
210
0
220
0
230
1
50
0
73
2
44
1
0
LINE
5
BF
100
AcDbEntity
8
Bemassung
6
CONTINUOUS
62
7
370
0
100
AcDbLine
10
298
20
20
11
298
21
51.25
0
LINE
5
C0
100
AcDbEntity
8
Bemassung
6
CONTINUOUS
62
7
370
0
100
AcDbLine
10
310
20
20
11
310
21
51.25
0
ENDBLK
5
4E
330
4C
100
AcDbEntity
8
0
100
AcDbBlockEnd
0
BLOCK
5
50
330
4F
100
AcDbEntity
8
0
100
AcDbBlockBegin
2
*D1
70
1
10
0
20
0
3
*D1
1

0
LINE
5
C1
100
AcDbEntity
8
Bemassung
6
CONTINUOUS
62
7
370
0
100
AcDbLine
10
0
20
-22
11
158
21
-22
0
SOLID
5
C2
100
AcDbEntity
8
Bemassung
6
CONTINUOUS
62
7
370
0
100
AcDbTrace
10
0
20
-22
30
0
11
5
21
-21.1674306845
31
0
12
5
22
-22.8325693155
32
0
13
5
23
-22.8325693155
33
0
0
SOLID
5
C3
100
AcDbEntity
8
Bemassung
6
CONTINUOUS
62
7
370
0
100
AcDbTrace
10
158
20
-22
30
0
11
153
21
-22.8325693155
31
0
12
153
22
-21.1674306845
32
0
13
153
23
-21.1674306845
33
0
0
MTEXT
5
C4
100
AcDbEntity
8
Bemassung
6
CONTINUOUS
62
7
370
0
100
AcDbMText
10
79
20
-14
30
0
40
10
41
17.7777777778
71
5
72
1
1
158
7
standard
210
0
220
0
230
1
50
0
73
2
44
1
0
LINE
5
C5
100
AcDbEntity
8
Bemassung
6
CONTINUOUS
62
7
370
0
100
AcDbLine
10
-3.67381906147e-16
20
-2
11
-2.29613691342e-16
21
-23.25
0
LINE
5
C6
100
AcDbEntity
8
Bemassung
6
CONTINUOUS
62
7
370
0
100
AcDbLine
10
158
20
6
11
158
21
-23.25
0
ENDBLK
5
51
330
4F
100
AcDbEntity
8
0
100
AcDbBlockEnd
0
BLOCK
5
53
330
52
100
AcDbEntity
8
0
100
AcDbBlockBegin
2
*D14
70
1
10
0
20
0
3
*D14
1

0
LINE
5
C7
100
AcDbEntity
8
Bemassung
6
CONTINUOUS
62
7
370
0
100
AcDbLine
10
-10
20
0
11
-10
21
18
0
SOLID
5
C8
100
AcDbEntity
8
Bemassung
6
CONTINUOUS
62
7
370
0
100
AcDbTrace
10
-10
20
0
30
0
11
-10.8325693155
21
5
31
0
12
-9.16743068445
22
5
32
0
13
-9.16743068445
23
5
33
0
0
SOLID
5
C9
100
AcDbEntity
8
Bemassung
6
CONTINUOUS
62
7
370
0
100
AcDbTrace
10
-10
20
18
30
0
11
-9.16743068445
21
13
31
0
12
-10.8325693155
22
13
32
0
13
-10.8325693155
23
13
33
0
0
MTEXT
5
CA
100
AcDbEntity
8
Bemassung
6
CONTINUOUS
62
7
370
0
100
AcDbMText
10
-18
20
9
30
0
40
10
41
10
71
5
72
1
1
18
7
standard
210
0
220
0
230
1
50
90
73
2
44
1
0
LINE
5
CB
100
AcDbEntity
8
Bemassung
6
CONTINUOUS
62
7
370
0
100
AcDbLine
10
-2
20
2.44921270764e-16
11
-11.25
21
1.53075794228e-16
0
LINE
5
CC
100
AcDbEntity
8
Bemassung
6
CONTINUOUS
62
7
370
0
100
AcDbLine
10
-2
20
18
11
-11.25
21
18
0
ENDBLK
5
54
330
52
100
AcDbEntity
8
0
100
AcDbBlockEnd
0
BLOCK
5
56
330
55
100
AcDbEntity
8
0
100
AcDbBlockBegin
2
*D13
70
1
10
0
20
0
3
*D13
1

0
LINE
5
CD
100
AcDbEntity
8
Bemassung
6
CONTINUOUS
62
7
370
0
100
AcDbLine
10
-10
20
820
11
880
21
820
0
SOLID
5
CE
100
AcDbEntity
8
Bemassung
6
CONTINUOUS
62
7
370
0
100
AcDbTrace
10
-10
20
820
30
0
11
-5
21
820.832569316
31
0
12
-5
22
819.167430684
32
0
13
-5
23
819.167430684
33
0
0
SOLID
5
CF
100
AcDbEntity
8
Bemassung
6
CONTINUOUS
62
7
370
0
100
AcDbTrace
10
880
20
820
30
0
11
875
21
819.167430684
31
0
12
875
22
820.832569316
32
0
13
875
23
820.832569316
33
0
0
MTEXT
5
D0
100
AcDbEntity
8
Bemassung
6
CONTINUOUS
62
7
370
0
100
AcDbMText
10
435
20
828
30
0
40
10
41
20
71
5
72
1
1
890
7
standard
210
0
220
0
230
1
50
0
73
2
44
1
0
LINE
5
D1
100
AcDbEntity
8
Bemassung
6
CONTINUOUS
62
7
370
0
100
AcDbLine
10
-10
20
704
11
-10
21
821.25
0
LINE
5
D2
100
AcDbEntity
8
Bemassung
6
CONTINUOUS
62
7
370
0
100
AcDbLine
10
880
20
704
11
880
21
821.25
0
ENDBLK
5
57
330
55
100
AcDbEntity
8
0
100
AcDbBlockEnd
0
BLOCK
5
59
330
58
100
AcDbEntity
8
0
100
AcDbBlockBegin
2
*D8
70
1
10
0
20
0
3
*D8
1

0
LINE
5
D3
100
AcDbEntity
8
Bemassung
6
CONTINUOUS
62
7
370
0
100
AcDbLine
10
-10
20
720
11
158
21
720
0
SOLID
5
D4
100
AcDbEntity
8
Bemassung
6
CONTINUOUS
62
7
370
0
100
AcDbTrace
10
-10
20
720
30
0
11
-5
21
720.832569316
31
0
12
-5
22
719.167430684
32
0
13
-5
23
719.167430684
33
0
0
SOLID
5
D5
100
AcDbEntity
8
Bemassung
6
CONTINUOUS
62
7
370
0
100
AcDbTrace
10
158
20
720
30
0
11
153
21
719.167430684
31
0
12
153
22
720.832569316
32
0
13
153
23
720.832569316
33
0
0
MTEXT
5
D6
100
AcDbEntity
8
Bemassung
6
CONTINUOUS
62
7
370
0
100
AcDbMText
10
74
20
728
30
0
40
10
41
17.7777777778
71
5
72
1
1
168
7
standard
210
0
220
0
230
1
50
0
73
2
44
1
0
LINE
5
D7
100
AcDbEntity
8
Bemassung
6
CONTINUOUS
62
7
370
0
100
AcDbLine
10
-10
20
704
11
-10
21
721.25
0
LINE
5
D8
100
AcDbEntity
8
Bemassung
6
CONTINUOUS
62
7
370
0
100
AcDbLine
10
158
20
690
11
158
21
721.25
0
ENDBLK
5
5A
330
58
100
AcDbEntity
8
0
100
AcDbBlockEnd
0
BLOCK
5
5C
330
5B
100
AcDbEntity
8
0
100
AcDbBlockBegin
2
*D2
70
1
10
0
20
0
3
*D2
1

0
LINE
5
D9
100
AcDbEntity
8
Bemassung
6
CONTINUOUS
62
7
370
0
100
AcDbLine
10
0
20
-40
11
298
21
-40
0
SOLID
5
DA
100
AcDbEntity
8
Bemassung
6
CONTINUOUS
62
7
370
0
100
AcDbTrace
10
0
20
-40
30
0
11
5
21
-39.1674306845
31
0
12
5
22
-40.8325693155
32
0
13
5
23
-40.8325693155
33
0
0
SOLID
5
DB
100
AcDbEntity
8
Bemassung
6
CONTINUOUS
62
7
370
0
100
AcDbTrace
10
298
20
-40
30
0
11
293
21
-40.8325693155
31
0
12
293
22
-39.1674306845
32
0
13
293
23
-39.1674306845
33
0
0
MTEXT
5
DC
100
AcDbEntity
8
Bemassung
6
CONTINUOUS
62
7
370
0
100
AcDbMText
10
149
20
-32
30
0
40
10
41
20
71
5
72
1
1
298
7
standard
210
0
220
0
230
1
50
0
73
2
44
1
0
LINE
5
DD
100
AcDbEntity
8
Bemassung
6
CONTINUOUS
62
7
370
0
100
AcDbLine
10
-3.67381906147e-16
20
-2
11
-2.29613691342e-16
21
-41.25
0
LINE
5
DE
100
AcDbEntity
8
Bemassung
6
CONTINUOUS
62
7
370
0
100
AcDbLine
10
298
20
16
11
298
21
-41.25
0
ENDBLK
5
5D
330
5B
100
AcDbEntity
8
0
100
AcDbBlockEnd
0
BLOCK
5
5F
330
5E
100
AcDbEntity
8
0
100
AcDbBlockBegin
2
*D33
70
1
10
0
20
0
3
*D33
1

0
LINE
5
DF
100
AcDbEntity
8
Bemassung
6
CONTINUOUS
62
7
370
0
100
AcDbLine
10
-40
20
700
11
-40
21
668
0
SOLID
5
E0
100
AcDbEntity
8
Bemassung
6
CONTINUOUS
62
7
370
0
100
AcDbTrace
10
-40
20
690
30
0
11
-40.8325693155
21
695
31
0
12
-39.1674306845
22
695
32
0
13
-39.1674306845
23
695
33
0
0
SOLID
5
E1
100
AcDbEntity
8
Bemassung
6
CONTINUOUS
62
7
370
0
100
AcDbTrace
10
-40
20
678
30
0
11
-39.1674306845
21
673
31
0
12
-40.8325693155
22
673
32
0
13
-40.8325693155
23
673
33
0
0
MTEXT
5
E2
100
AcDbEntity
8
Bemassung
6
CONTINUOUS
62
7
370
0
100
AcDbMText
10
-48
20
684
30
0
40
10
41
10
71
5
72
1
1
12
7
standard
210
0
220
0
230
1
50
90
73
2
44
1
0
LINE
5
E3
100
AcDbEntity
8
Bemassung
6
CONTINUOUS
62
7
370
0
100
AcDbLine
10
-12
20
690
11
-41.25
21
690
0
LINE
5
E4
100
AcDbEntity
8
Bemassung
6
CONTINUOUS
62
7
370
0
100
AcDbLine
10
-12
20
678
11
-41.25
21
678
0
ENDBLK
5
60
330
5E
100
AcDbEntity
8
0
100
AcDbBlockEnd
0
BLOCK
5
62
330
61
100
AcDbEntity
8
0
100
AcDbBlockBegin
2
*D23
70
1
10
0
20
0
3
*D23
1

0
LINE
5
E5
100
AcDbEntity
8
Bemassung
6
CONTINUOUS
62
7
370
0
100
AcDbLine
10
1000
20
-60
11
1371.25
21
-60
0
SOLID
5
E6
100
AcDbEntity
8
Bemassung
6
CONTINUOUS
62
7
370
0
100
AcDbTrace
10
1000
20
-60
30
0
11
1005
21
-59.1674306845
31
0
12
1005
22
-60.8325693155
32
0
13
1005
23
-60.8325693155
33
0
0
SOLID
5
E7
100
AcDbEntity
8
Bemassung
6
CONTINUOUS
62
7
370
0
100
AcDbTrace
10
1371.25
20
-60
30
0
11
1366.25
21
-60.8325693155
31
0
12
1366.25
22
-59.1674306845
32
0
13
1366.25
23
-59.1674306845
33
0
0
MTEXT
5
E8
100
AcDbEntity
8
Bemassung
6
CONTINUOUS
62
7
370
0
100
AcDbMText
10
1185.625
20
-52
30
0
40
10
41
36.6666666667
71
5
72
1
1
371.25
7
standard
210
0
220
0
230
1
50
0
73
2
44
1
0
LINE
5
E9
100
AcDbEntity
8
Bemassung
6
CONTINUOUS
62
7
370
0
100
AcDbLine
10
1000
20
-2
11
1000
21
-61.25
0
LINE
5
EA
100
AcDbEntity
8
Bemassung
6
CONTINUOUS
62
7
370
0
100
AcDbLine
10
1371.25
20
6
11
1371.25
21
-61.25
0
ENDBLK
5
63
330
61
100
AcDbEntity
8
0
100
AcDbBlockEnd
0
BLOCK
5
65
330
64
100
AcDbEntity
8
0
100
AcDbBlockBegin
2
*D11
70
1
10
0
20
0
3
*D11
1

0
LINE
5
EB
100
AcDbEntity
8
Bemassung
6
CONTINUOUS
62
7
370
0
100
AcDbLine
10
-10
20
780
11
560
21
780
0
SOLID
5
EC
100
AcDbEntity
8
Bemassung
6
CONTINUOUS
62
7
370
0
100
AcDbTrace
10
-10
20
780
30
0
11
-5
21
780.832569316
31
0
12
-5
22
779.167430684
32
0
13
-5
23
779.167430684
33
0
0
SOLID
5
ED
100
AcDbEntity
8
Bemassung
6
CONTINUOUS
62
7
370
0
100
AcDbTrace
10
560
20
780
30
0
11
555
21
779.167430684
31
0
12
555
22
780.832569316
32
0
13
555
23
780.832569316
33
0
0
MTEXT
5
EE
100
AcDbEntity
8
Bemassung
6
CONTINUOUS
62
7
370
0
100
AcDbMText
10
275
20
788
30
0
40
10
41
20
71
5
72
1
1
570
7
standard
210
0
220
0
230
1
50
0
73
2
44
1
0
LINE
5
EF
100
AcDbEntity
8
Bemassung
6
CONTINUOUS
62
7
370
0
100
AcDbLine
10
-10
20
704
11
-10
21
781.25
0
LINE
5
F0
100
AcDbEntity
8
Bemassung
6
CONTINUOUS
62
7
370
0
100
AcDbLine
10
560
20
680
11
560
21
781.25
0
ENDBLK
5
66
330
64
100
AcDbEntity
8
0
100
AcDbBlockEnd
0
BLOCK
5
68
330
67
100
AcDbEntity
8
0
100
AcDbBlockBegin
2
*D19
70
1
10
0
20
0
3
*D19
1

0
LINE
5
F1
100
AcDbEntity
8
Bemassung
6
CONTINUOUS
62
7
370
0
100
AcDbLine
10
600
20
18
11
600
21
253
0
SOLID
5
F2
100
AcDbEntity
8
Bemassung
6
CONTINUOUS
62
7
370
0
100
AcDbTrace
10
600
20
18
30
0
11
599.167430684
21
23
31
0
12
600.832569316
22
23
32
0
13
600.832569316
23
23
33
0
0
SOLID
5
F3
100
AcDbEntity
8
Bemassung
6
CONTINUOUS
62
7
370
0
100
AcDbTrace
10
600
20
253
30
0
11
600.832569316
21
248
31
0
12
599.167430684
22
248
32
0
13
599.167430684
23
248
33
0
0
MTEXT
5
F4
100
AcDbEntity
8
Bemassung
6
CONTINUOUS
62
7
370
0
100
AcDbMText
10
592
20
135.5
30
0
40
10
41
20
71
5
72
1
1
235
7
standard
210
0
220
0
230
1
50
90
73
2
44
1
0
LINE
5
F5
100
AcDbEntity
8
Bemassung
6
CONTINUOUS
62
7
370
0
100
AcDbLine
10
562
20
18
11
601.25
21
18
0
LINE
5
F6
100
AcDbEntity
8
Bemassung
6
CONTINUOUS
62
7
370
0
100
AcDbLine
10
562
20
253
11
601.25
21
253
0
ENDBLK
5
69
330
67
100
AcDbEntity
8
0
100
AcDbBlockEnd
0
BLOCK
5
6B
330
6A
100
AcDbEntity
8
0
100
AcDbBlockBegin
2
*D32
70
1
10
0
20
0
3
*D32
1

0
LINE
5
F7
100
AcDbEntity
8
Bemassung
6
CONTINUOUS
62
7
370
0
100
AcDbLine
10
-20
20
712
11
-20
21
680
0
SOLID
5
F8
100
AcDbEntity
8
Bemassung
6
CONTINUOUS
62
7
370
0
100
AcDbTrace
10
-20
20
702
30
0
11
-20.8325693155
21
707
31
0
12
-19.1674306845
22
707
32
0
13
-19.1674306845
23
707
33
0
0
SOLID
5
F9
100
AcDbEntity
8
Bemassung
6
CONTINUOUS
62
7
370
0
100
AcDbTrace
10
-20
20
690
30
0
11
-19.1674306845
21
685
31
0
12
-20.8325693155
22
685
32
0
13
-20.8325693155
23
685
33
0
0
MTEXT
5
FA
100
AcDbEntity
8
Bemassung
6
CONTINUOUS
62
7
370
0
100
AcDbMText
10
-28
20
696
30
0
40
10
41
10
71
5
72
1
1
12
7
standard
210
0
220
0
230
1
50
90
73
2
44
1
0
LINE
5
FB
100
AcDbEntity
8
Bemassung
6
CONTINUOUS
62
7
370
0
100
AcDbLine
10
-12
20
702
11
-21.25
21
702
0
LINE
5
FC
100
AcDbEntity
8
Bemassung
6
CONTINUOUS
62
7
370
0
100
AcDbLine
10
-12
20
690
11
-21.25
21
690
0
ENDBLK
5
6C
330
6A
100
AcDbEntity
8
0
100
AcDbBlockEnd
0
BLOCK
5
6E
330
6D
100
AcDbEntity
8
0
100
AcDbBlockBegin
2
*D4
70
1
10
0
20
0
3
*D4
1

0
LINE
5
FD
100
AcDbEntity
8
Bemassung
6
CONTINUOUS
62
7
370
0
100
AcDbLine
10
0
20
-80
11
560
21
-80
0
SOLID
5
FE
100
AcDbEntity
8
Bemassung
6
CONTINUOUS
62
7
370
0
100
AcDbTrace
10
0
20
-80
30
0
11
5
21
-79.1674306845
31
0
12
5
22
-80.8325693155
32
0
13
5
23
-80.8325693155
33
0
0
SOLID
5
FF
100
AcDbEntity
8
Bemassung
6
CONTINUOUS
62
7
370
0
100
AcDbTrace
10
560
20
-80
30
0
11
555
21
-80.8325693155
31
0
12
555
22
-79.1674306845
32
0
13
555
23
-79.1674306845
33
0
0
MTEXT
5
100
100
AcDbEntity
8
Bemassung
6
CONTINUOUS
62
7
370
0
100
AcDbMText
10
280
20
-72
30
0
40
10
41
20
71
5
72
1
1
560
7
standard
210
0
220
0
230
1
50
0
73
2
44
1
0
LINE
5
101
100
AcDbEntity
8
Bemassung
6
CONTINUOUS
62
7
370
0
100
AcDbLine
10
-3.67381906147e-16
20
-2
11
-2.29613691342e-16
21
-81.25
0
LINE
5
102
100
AcDbEntity
8
Bemassung
6
CONTINUOUS
62
7
370
0
100
AcDbLine
10
560
20
16
11
560
21
-81.25
0
ENDBLK
5
6F
330
6D
100
AcDbEntity
8
0
100
AcDbBlockEnd
0
BLOCK
5
71
330
70
100
AcDbEntity
8
0
100
AcDbBlockBegin
2
*D28
70
1
10
0
20
0
3
*D28
1

0
LINE
5
103
100
AcDbEntity
8
Bemassung
6
CONTINUOUS
62
7
370
0
100
AcDbLine
10
990
20
720
11
1070
21
720
0
SOLID
5
104
100
AcDbEntity
8
Bemassung
6
CONTINUOUS
62
7
370
0
100
AcDbTrace
10
990
20
720
30
0
11
995
21
720.832569316
31
0
12
995
22
719.167430684
32
0
13
995
23
719.167430684
33
0
0
SOLID
5
105
100
AcDbEntity
8
Bemassung
6
CONTINUOUS
62
7
370
0
100
AcDbTrace
10
1070
20
720
30
0
11
1065
21
719.167430684
31
0
12
1065
22
720.832569316
32
0
13
1065
23
720.832569316
33
0
0
MTEXT
5
106
100
AcDbEntity
8
Bemassung
6
CONTINUOUS
62
7
370
0
100
AcDbMText
10
1030
20
728
30
0
40
10
41
12.2222222222
71
5
72
1
1
80
7
standard
210
0
220
0
230
1
50
0
73
2
44
1
0
LINE
5
107
100
AcDbEntity
8
Bemassung
6
CONTINUOUS
62
7
370
0
100
AcDbLine
10
990
20
704
11
990
21
721.25
0
LINE
5
108
100
AcDbEntity
8
Bemassung
6
CONTINUOUS
62
7
370
0
100
AcDbLine
10
1070
20
690
11
1070
21
721.25
0
ENDBLK
5
72
330
70
100
AcDbEntity
8
0
100
AcDbBlockEnd
0
BLOCK
5
74
330
73
100
AcDbEntity
8
0
100
AcDbBlockBegin
2
*D9
70
1
10
0
20
0
3
*D9
1

0
LINE
5
109
100
AcDbEntity
8
Bemassung
6
CONTINUOUS
62
7
370
0
100
AcDbLine
10
-10
20
740
11
298
21
740
0
SOLID
5
10A
100
AcDbEntity
8
Bemassung
6
CONTINUOUS
62
7
370
0
100
AcDbTrace
10
-10
20
740
30
0
11
-5
21
740.832569316
31
0
12
-5
22
739.167430684
32
0
13
-5
23
739.167430684
33
0
0
SOLID
5
10B
100
AcDbEntity
8
Bemassung
6
CONTINUOUS
62
7
370
0
100
AcDbTrace
10
298
20
740
30
0
11
293
21
739.167430684
31
0
12
293
22
740.832569316
32
0
13
293
23
740.832569316
33
0
0
MTEXT
5
10C
100
AcDbEntity
8
Bemassung
6
CONTINUOUS
62
7
370
0
100
AcDbMText
10
144
20
748
30
0
40
10
41
20
71
5
72
1
1
308
7
standard
210
0
220
0
230
1
50
0
73
2
44
1
0
LINE
5
10D
100
AcDbEntity
8
Bemassung
6
CONTINUOUS
62
7
370
0
100
AcDbLine
10
-10
20
704
11
-10
21
741.25
0
LINE
5
10E
100
AcDbEntity
8
Bemassung
6
CONTINUOUS
62
7
370
0
100
AcDbLine
10
298
20
680
11
298
21
741.25
0
ENDBLK
5
75
330
73
100
AcDbEntity
8
0
100
AcDbBlockEnd
0
BLOCK
5
77
330
76
100
AcDbEntity
8
0
100
AcDbBlockBegin
2
*D21
70
1
10
0
20
0
3
*D21
1

0
LINE
5
10F
100
AcDbEntity
8
Bemassung
6
CONTINUOUS
62
7
370
0
100
AcDbLine
10
1000
20
-22
11
1070
21
-22
0
SOLID
5
110
100
AcDbEntity
8
Bemassung
6
CONTINUOUS
62
7
370
0
100
AcDbTrace
10
1000
20
-22
30
0
11
1005
21
-21.1674306845
31
0
12
1005
22
-22.8325693155
32
0
13
1005
23
-22.8325693155
33
0
0
SOLID
5
111
100
AcDbEntity
8
Bemassung
6
CONTINUOUS
62
7
370
0
100
AcDbTrace
10
1070
20
-22
30
0
11
1065
21
-22.8325693155
31
0
12
1065
22
-21.1674306845
32
0
13
1065
23
-21.1674306845
33
0
0
MTEXT
5
112
100
AcDbEntity
8
Bemassung
6
CONTINUOUS
62
7
370
0
100
AcDbMText
10
1035
20
-14
30
0
40
10
41
12.2222222222
71
5
72
1
1
70
7
standard
210
0
220
0
230
1
50
0
73
2
44
1
0
LINE
5
113
100
AcDbEntity
8
Bemassung
6
CONTINUOUS
62
7
370
0
100
AcDbLine
10
1000
20
-2
11
1000
21
-23.25
0
LINE
5
114
100
AcDbEntity
8
Bemassung
6
CONTINUOUS
62
7
370
0
100
AcDbLine
10
1070
20
6
11
1070
21
-23.25
0
ENDBLK
5
78
330
76
100
AcDbEntity
8
0
100
AcDbBlockEnd
0
BLOCK
5
7A
330
79
100
AcDbEntity
8
0
100
AcDbBlockBegin
2
*D6
70
1
10
0
20
0
3
*D6
1

0
LINE
5
115
100
AcDbEntity
8
Bemassung
6
CONTINUOUS
62
7
370
0
100
AcDbLine
10
0
20
-120
11
870
21
-120
0
SOLID
5
116
100
AcDbEntity
8
Bemassung
6
CONTINUOUS
62
7
370
0
100
AcDbTrace
10
0
20
-120
30
0
11
5
21
-119.167430684
31
0
12
5
22
-120.832569316
32
0
13
5
23
-120.832569316
33
0
0
SOLID
5
117
100
AcDbEntity
8
Bemassung
6
CONTINUOUS
62
7
370
0
100
AcDbTrace
10
870
20
-120
30
0
11
865
21
-120.832569316
31
0
12
865
22
-119.167430684
32
0
13
865
23
-119.167430684
33
0
0
MTEXT
5
118
100
AcDbEntity
8
Bemassung
6
CONTINUOUS
62
7
370
0
100
AcDbMText
10
435
20
-112
30
0
40
10
41
20
71
5
72
1
1
870
7
standard
210
0
220
0
230
1
50
0
73
2
44
1
0
LINE
5
119
100
AcDbEntity
8
Bemassung
6
CONTINUOUS
62
7
370
0
100
AcDbLine
10
-3.67381906147e-16
20
-2
11
-2.29613691342e-16
21
-121.25
0
LINE
5
11A
100
AcDbEntity
8
Bemassung
6
CONTINUOUS
62
7
370
0
100
AcDbLine
10
870
20
-2
11
870
21
-121.25
0
ENDBLK
5
7B
330
79
100
AcDbEntity
8
0
100
AcDbBlockEnd
0
BLOCK
5
7D
330
7C
100
AcDbEntity
8
0
100
AcDbBlockBegin
2
*D7
70
1
10
0
20
0
3
*D7
1

0
LINE
5
11B
100
AcDbEntity
8
Bemassung
6
CONTINUOUS
62
7
370
0
100
AcDbLine
10
-20
20
640
11
10
21
640
0
SOLID
5
11C
100
AcDbEntity
8
Bemassung
6
CONTINUOUS
62
7
370
0
100
AcDbTrace
10
-10
20
640
30
0
11
-15
21
639.167430684
31
0
12
-15
22
640.832569316
32
0
13
-15
23
640.832569316
33
0
0
SOLID
5
11D
100
AcDbEntity
8
Bemassung
6
CONTINUOUS
62
7
370
0
100
AcDbTrace
10
4.15141553946e-14
20
640
30
0
11
5
21
640.832569316
31
0
12
5
22
639.167430684
32
0
13
5
23
639.167430684
33
0
0
MTEXT
5
11E
100
AcDbEntity
8
Bemassung
6
CONTINUOUS
62
7
370
0
100
AcDbMText
10
8
20
648
30
0
40
10
41
10
71
5
72
1
1
10
7
standard
210
0
220
0
230
1
50
0
73
2
44
1
0
LINE
5
11F
100
AcDbEntity
8
Bemassung
6
CONTINUOUS
62
7
370
0
100
AcDbLine
10
-10
20
676
11
-10
21
638.75
0
LINE
5
120
100
AcDbEntity
8
Bemassung
6
CONTINUOUS
62
7
370
0
100
AcDbLine
10
4.11467734884e-14
20
676
11
4.12845417032e-14
21
638.75
0
ENDBLK
5
7E
330
7C
100
AcDbEntity
8
0
100
AcDbBlockEnd
0
BLOCK
5
80
330
7F
100
AcDbEntity
8
0
100
AcDbBlockBegin
2
*D18
70
1
10
0
20
0
3
*D18
1

0
LINE
5
121
100
AcDbEntity
8
Bemassung
6
CONTINUOUS
62
7
370
0
100
AcDbLine
10
310
20
200
11
560
21
200
0
SOLID
5
122
100
AcDbEntity
8
Bemassung
6
CONTINUOUS
62
7
370
0
100
AcDbTrace
10
310
20
200
30
0
11
315
21
200.832569316
31
0
12
315
22
199.167430684
32
0
13
315
23
199.167430684
33
0
0
SOLID
5
123
100
AcDbEntity
8
Bemassung
6
CONTINUOUS
62
7
370
0
100
AcDbTrace
10
560
20
200
30
0
11
555
21
199.167430684
31
0
12
555
22
200.832569316
32
0
13
555
23
200.832569316
33
0
0
MTEXT
5
124
100
AcDbEntity
8
Bemassung
6
CONTINUOUS
62
7
370
0
100
AcDbMText
10
435
20
208
30
0
40
10
41
20
71
5
72
1
1
250
7
standard
210
0
220
0
230
1
50
0
73
2
44
1
0
LINE
5
125
100
AcDbEntity
8
Bemassung
6
CONTINUOUS
62
7
370
0
100
AcDbLine
10
310
20
202
11
310
21
201.25
0
LINE
5
126
100
AcDbEntity
8
Bemassung
6
CONTINUOUS
62
7
370
0
100
AcDbLine
10
560
20
202
11
560
21
201.25
0
ENDBLK
5
81
330
7F
100
AcDbEntity
8
0
100
AcDbBlockEnd
0
BLOCK
5
83
330
82
100
AcDbEntity
8
0
100
AcDbBlockBegin
2
*D5
70
1
10
0
20
0
3
*D5
1

0
LINE
5
127
100
AcDbEntity
8
Bemassung
6
CONTINUOUS
62
7
370
0
100
AcDbLine
10
0
20
-100
11
712
21
-100
0
SOLID
5
128
100
AcDbEntity
8
Bemassung
6
CONTINUOUS
62
7
370
0
100
AcDbTrace
10
0
20
-100
30
0
11
5
21
-99.1674306845
31
0
12
5
22
-100.832569316
32
0
13
5
23
-100.832569316
33
0
0
SOLID
5
129
100
AcDbEntity
8
Bemassung
6
CONTINUOUS
62
7
370
0
100
AcDbTrace
10
712
20
-100
30
0
11
707
21
-100.832569316
31
0
12
707
22
-99.1674306845
32
0
13
707
23
-99.1674306845
33
0
0
MTEXT
5
12A
100
AcDbEntity
8
Bemassung
6
CONTINUOUS
62
7
370
0
100
AcDbMText
10
356
20
-92
30
0
40
10
41
17.7777777778
71
5
72
1
1
712
7
standard
210
0
220
0
230
1
50
0
73
2
44
1
0
LINE
5
12B
100
AcDbEntity
8
Bemassung
6
CONTINUOUS
62
7
370
0
100
AcDbLine
10
-3.67381906147e-16
20
-2
11
-2.29613691342e-16
21
-101.25
0
LINE
5
12C
100
AcDbEntity
8
Bemassung
6
CONTINUOUS
62
7
370
0
100
AcDbLine
10
712
20
6
11
712
21
-101.25
0
ENDBLK
5
84
330
82
100
AcDbEntity
8
0
100
AcDbBlockEnd
0
BLOCK
5
86
330
85
100
AcDbEntity
8
0
100
AcDbBlockBegin
2
*D29
70
1
10
0
20
0
3
*D29
1

0
LINE
5
12D
100
AcDbEntity
8
Bemassung
6
CONTINUOUS
62
7
370
0
100
AcDbLine
10
990
20
740
11
1220.625
21
740
0
SOLID
5
12E
100
AcDbEntity
8
Bemassung
6
CONTINUOUS
62
7
370
0
100
AcDbTrace
10
990
20
740
30
0
11
995
21
740.832569316
31
0
12
995
22
739.167430684
32
0
13
995
23
739.167430684
33
0
0
SOLID
5
12F
100
AcDbEntity
8
Bemassung
6
CONTINUOUS
62
7
370
0
100
AcDbTrace
10
1220.625
20
740
30
0
11
1215.625
21
739.167430684
31
0
12
1215.625
22
740.832569316
32
0
13
1215.625
23
740.832569316
33
0
0
MTEXT
5
130
100
AcDbEntity
8
Bemassung
6
CONTINUOUS
62
7
370
0
100
AcDbMText
10
1105.3125
20
748
30
0
40
10
41
46.6666666667
71
5
72
1
1
230.625
7
standard
210
0
220
0
230
1
50
0
73
2
44
1
0
LINE
5
131
100
AcDbEntity
8
Bemassung
6
CONTINUOUS
62
7
370
0
100
AcDbLine
10
990
20
704
11
990
21
741.25
0
LINE
5
132
100
AcDbEntity
8
Bemassung
6
CONTINUOUS
62
7
370
0
100
AcDbLine
10
1220.625
20
690
11
1220.625
21
741.25
0
ENDBLK
5
87
330
85
100
AcDbEntity
8
0
100
AcDbBlockEnd
0
BLOCK
5
89
330
88
100
AcDbEntity
8
0
100
AcDbBlockBegin
2
*D22
70
1
10
0
20
0
3
*D22
1

0
LINE
5
133
100
AcDbEntity
8
Bemassung
6
CONTINUOUS
62
7
370
0
100
AcDbLine
10
1000
20
-40
11
1220.625
21
-40
0
SOLID
5
134
100
AcDbEntity
8
Bemassung
6
CONTINUOUS
62
7
370
0
100
AcDbTrace
10
1000
20
-40
30
0
11
1005
21
-39.1674306845
31
0
12
1005
22
-40.8325693155
32
0
13
1005
23
-40.8325693155
33
0
0
SOLID
5
135
100
AcDbEntity
8
Bemassung
6
CONTINUOUS
62
7
370
0
100
AcDbTrace
10
1220.625
20
-40
30
0
11
1215.625
21
-40.8325693155
31
0
12
1215.625
22
-39.1674306845
32
0
13
1215.625
23
-39.1674306845
33
0
0
MTEXT
5
136
100
AcDbEntity
8
Bemassung
6
CONTINUOUS
62
7
370
0
100
AcDbMText
10
1110.3125
20
-32
30
0
40
10
41
46.6666666667
71
5
72
1
1
220.625
7
standard
210
0
220
0
230
1
50
0
73
2
44
1
0
LINE
5
137
100
AcDbEntity
8
Bemassung
6
CONTINUOUS
62
7
370
0
100
AcDbLine
10
1000
20
-2
11
1000
21
-41.25
0
LINE
5
138
100
AcDbEntity
8
Bemassung
6
CONTINUOUS
62
7
370
0
100
AcDbLine
10
1220.625
20
6
11
1220.625
21
-41.25
0
ENDBLK
5
8A
330
88
100
AcDbEntity
8
0
100
AcDbBlockEnd
0
BLOCK
5
8C
330
8B
100
AcDbEntity
8
0
100
AcDbBlockBegin
2
*D31
70
1
10
0
20
0
3
*D31
1

0
LINE
5
139
100
AcDbEntity
8
Bemassung
6
CONTINUOUS
62
7
370
0
100
AcDbLine
10
990
20
820
11
1505
21
820
0
SOLID
5
13A
100
AcDbEntity
8
Bemassung
6
CONTINUOUS
62
7
370
0
100
AcDbTrace
10
990
20
820
30
0
11
995
21
820.832569316
31
0
12
995
22
819.167430684
32
0
13
995
23
819.167430684
33
0
0
SOLID
5
13B
100
AcDbEntity
8
Bemassung
6
CONTINUOUS
62
7
370
0
100
AcDbTrace
10
1505
20
820
30
0
11
1500
21
819.167430684
31
0
12
1500
22
820.832569316
32
0
13
1500
23
820.832569316
33
0
0
MTEXT
5
13C
100
AcDbEntity
8
Bemassung
6
CONTINUOUS
62
7
370
0
100
AcDbMText
10
1247.5
20
828
30
0
40
10
41
17.7777777778
71
5
72
1
1
515
7
standard
210
0
220
0
230
1
50
0
73
2
44
1
0
LINE
5
13D
100
AcDbEntity
8
Bemassung
6
CONTINUOUS
62
7
370
0
100
AcDbLine
10
990
20
704
11
990
21
821.25
0
LINE
5
13E
100
AcDbEntity
8
Bemassung
6
CONTINUOUS
62
7
370
0
100
AcDbLine
10
1505
20
704
11
1505
21
821.25
0
ENDBLK
5
8D
330
8B
100
AcDbEntity
8
0
100
AcDbBlockEnd
0
BLOCK
5
8F
330
8E
100
AcDbEntity
8
0
100
AcDbBlockBegin
2
*D17
70
1
10
0
20
0
3
*D17
1

0
LINE
5
13F
100
AcDbEntity
8
Bemassung
6
CONTINUOUS
62
7
370
0
100
AcDbLine
10
18
20
200
11
298
21
200
0
SOLID
5
140
100
AcDbEntity
8
Bemassung
6
CONTINUOUS
62
7
370
0
100
AcDbTrace
10
18
20
200
30
0
11
23
21
200.832569316
31
0
12
23
22
199.167430684
32
0
13
23
23
199.167430684
33
0
0
SOLID
5
141
100
AcDbEntity
8
Bemassung
6
CONTINUOUS
62
7
370
0
100
AcDbTrace
10
298
20
200
30
0
11
293
21
199.167430684
31
0
12
293
22
200.832569316
32
0
13
293
23
200.832569316
33
0
0
MTEXT
5
142
100
AcDbEntity
8
Bemassung
6
CONTINUOUS
62
7
370
0
100
AcDbMText
10
158
20
208
30
0
40
10
41
20
71
5
72
1
1
280
7
standard
210
0
220
0
230
1
50
0
73
2
44
1
0
LINE
5
143
100
AcDbEntity
8
Bemassung
6
CONTINUOUS
62
7
370
0
100
AcDbLine
10
18
20
202
11
18
21
201.25
0
LINE
5
144
100
AcDbEntity
8
Bemassung
6
CONTINUOUS
62
7
370
0
100
AcDbLine
10
298
20
202
11
298
21
201.25
0
ENDBLK
5
90
330
8E
100
AcDbEntity
8
0
100
AcDbBlockEnd
0
BLOCK
5
92
330
91
100
AcDbEntity
8
0
100
AcDbBlockBegin
2
*D20
70
1
10
0
20
0
3
*D20
1

0
LINE
5
145
100
AcDbEntity
8
Bemassung
6
CONTINUOUS
62
7
370
0
100
AcDbLine
10
620
20
18
11
620
21
500
0
SOLID
5
146
100
AcDbEntity
8
Bemassung
6
CONTINUOUS
62
7
370
0
100
AcDbTrace
10
620
20
18
30
0
11
619.167430684
21
23
31
0
12
620.832569316
22
23
32
0
13
620.832569316
23
23
33
0
0
SOLID
5
147
100
AcDbEntity
8
Bemassung
6
CONTINUOUS
62
7
370
0
100
AcDbTrace
10
620
20
500
30
0
11
620.832569316
21
495
31
0
12
619.167430684
22
495
32
0
13
619.167430684
23
495
33
0
0
MTEXT
5
148
100
AcDbEntity
8
Bemassung
6
CONTINUOUS
62
7
370
0
100
AcDbMText
10
612
20
259
30
0
40
10
41
21.1111111111
71
5
72
1
1
482
7
standard
210
0
220
0
230
1
50
90
73
2
44
1
0
LINE
5
149
100
AcDbEntity
8
Bemassung
6
CONTINUOUS
62
7
370
0
100
AcDbLine
10
562
20
18
11
621.25
21
18
0
LINE
5
14A
100
AcDbEntity
8
Bemassung
6
CONTINUOUS
62
7
370
0
100
AcDbLine
10
562
20
500
11
621.25
21
500
0
ENDBLK
5
93
330
91
100
AcDbEntity
8
0
100
AcDbBlockEnd
0
BLOCK
5
95
330
94
100
AcDbEntity
8
0
100
AcDbBlockBegin
2
*D24
70
1
10
0
20
0
3
*D24
1

0
LINE
5
14B
100
AcDbEntity
8
Bemassung
6
CONTINUOUS
62
7
370
0
100
AcDbLine
10
1000
20
-120
11
1495
21
-120
0
SOLID
5
14C
100
AcDbEntity
8
Bemassung
6
CONTINUOUS
62
7
370
0
100
AcDbTrace
10
1000
20
-120
30
0
11
1005
21
-119.167430684
31
0
12
1005
22
-120.832569316
32
0
13
1005
23
-120.832569316
33
0
0
SOLID
5
14D
100
AcDbEntity
8
Bemassung
6
CONTINUOUS
62
7
370
0
100
AcDbTrace
10
1495
20
-120
30
0
11
1490
21
-120.832569316
31
0
12
1490
22
-119.167430684
32
0
13
1490
23
-119.167430684
33
0
0
MTEXT
5
14E
100
AcDbEntity
8
Bemassung
6
CONTINUOUS
62
7
370
0
100
AcDbMText
10
1247.5
20
-112
30
0
40
10
41
21.1111111111
71
5
72
1
1
495
7
standard
210
0
220
0
230
1
50
0
73
2
44
1
0
LINE
5
14F
100
AcDbEntity
8
Bemassung
6
CONTINUOUS
62
7
370
0
100
AcDbLine
10
1000
20
-2
11
1000
21
-121.25
0
LINE
5
150
100
AcDbEntity
8
Bemassung
6
CONTINUOUS
62
7
370
0
100
AcDbLine
10
1495
20
-2
11
1495
21
-121.25
0
ENDBLK
5
96
330
94
100
AcDbEntity
8
0
100
AcDbBlockEnd
0
BLOCK
5
98
330
97
100
AcDbEntity
8
0
100
AcDbBlockBegin
2
*D15
70
1
10
0
20
0
3
*D15
1

0
LINE
5
151
100
AcDbEntity
8
Bemassung
6
CONTINUOUS
62
7
370
0
100
AcDbLine
10
-3.5527136788e-15
20
50
11
18
21
50
0
SOLID
5
152
100
AcDbEntity
8
Bemassung
6
CONTINUOUS
62
7
370
0
100
AcDbTrace
10
-3.5527136788e-15
20
50
30
0
11
5
21
50.8325693155
31
0
12
5
22
49.1674306845
32
0
13
5
23
49.1674306845
33
0
0
SOLID
5
153
100
AcDbEntity
8
Bemassung
6
CONTINUOUS
62
7
370
0
100
AcDbTrace
10
18
20
50
30
0
11
13
21
49.1674306845
31
0
12
13
22
50.8325693155
32
0
13
13
23
50.8325693155
33
0
0
MTEXT
5
154
100
AcDbEntity
8
Bemassung
6
CONTINUOUS
62
7
370
0
100
AcDbMText
10
9
20
58
30
0
40
10
41
10
71
5
72
1
1
18
7
standard
210
0
220
0
230
1
50
0
73
2
44
1
0
LINE
5
155
100
AcDbEntity
8
Bemassung
6
CONTINUOUS
62
7
370
0
100
AcDbLine
10
7.80517143972e-16
20
20
11
-3.75373153784e-15
21
51.25
0
LINE
5
156
100
AcDbEntity
8
Bemassung
6
CONTINUOUS
62
7
370
0
100
AcDbLine
10
18
20
20
11
18
21
51.25
0
ENDBLK
5
99
330
97
100
AcDbEntity
8
0
100
AcDbBlockEnd
0
BLOCK
5
9B
330
9A
100
AcDbEntity
8
0
100
AcDbBlockBegin
2
*D12
70
1
10
0
20
0
3
*D12
1

0
LINE
5
157
100
AcDbEntity
8
Bemassung
6
CONTINUOUS
62
7
370
0
100
AcDbLine
10
-10
20
800
11
712
21
800
0
SOLID
5
158
100
AcDbEntity
8
Bemassung
6
CONTINUOUS
62
7
370
0
100
AcDbTrace
10
-10
20
800
30
0
11
-5
21
800.832569316
31
0
12
-5
22
799.167430684
32
0
13
-5
23
799.167430684
33
0
0
SOLID
5
159
100
AcDbEntity
8
Bemassung
6
CONTINUOUS
62
7
370
0
100
AcDbTrace
10
712
20
800
30
0
11
707
21
799.167430684
31
0
12
707
22
800.832569316
32
0
13
707
23
800.832569316
33
0
0
MTEXT
5
15A
100
AcDbEntity
8
Bemassung
6
CONTINUOUS
62
7
370
0
100
AcDbMText
10
351
20
808
30
0
40
10
41
20
71
5
72
1
1
722
7
standard
210
0
220
0
230
1
50
0
73
2
44
1
0
LINE
5
15B
100
AcDbEntity
8
Bemassung
6
CONTINUOUS
62
7
370
0
100
AcDbLine
10
-10
20
704
11
-10
21
801.25
0
LINE
5
15C
100
AcDbEntity
8
Bemassung
6
CONTINUOUS
62
7
370
0
100
AcDbLine
10
712
20
690
11
712
21
801.25
0
ENDBLK
5
9C
330
9A
100
AcDbEntity
8
0
100
AcDbBlockEnd
0
BLOCK
5
9E
330
9D
100
AcDbEntity
8
0
100
AcDbBlockBegin
2
*D3
70
1
10
0
20
0
3
*D3
1

0
LINE
5
15D
100
AcDbEntity
8
Bemassung
6
CONTINUOUS
62
7
370
0
100
AcDbLine
10
0
20
-60
11
435
21
-60
0
SOLID
5
15E
100
AcDbEntity
8
Bemassung
6
CONTINUOUS
62
7
370
0
100
AcDbTrace
10
0
20
-60
30
0
11
5
21
-59.1674306845
31
0
12
5
22
-60.8325693155
32
0
13
5
23
-60.8325693155
33
0
0
SOLID
5
15F
100
AcDbEntity
8
Bemassung
6
CONTINUOUS
62
7
370
0
100
AcDbTrace
10
435
20
-60
30
0
11
430
21
-60.8325693155
31
0
12
430
22
-59.1674306845
32
0
13
430
23
-59.1674306845
33
0
0
MTEXT
5
160
100
AcDbEntity
8
Bemassung
6
CONTINUOUS
62
7
370
0
100
AcDbMText
10
217.5
20
-52
30
0
40
10
41
21.1111111111
71
5
72
1
1
435
7
standard
210
0
220
0
230
1
50
0
73
2
44
1
0
LINE
5
161
100
AcDbEntity
8
Bemassung
6
CONTINUOUS
62
7
370
0
100
AcDbLine
10
-3.67381906147e-16
20
-2
11
-2.29613691342e-16
21
-61.25
0
LINE
5
162
100
AcDbEntity
8
Bemassung
6
CONTINUOUS
62
7
370
0
100
AcDbLine
10
435
20
6
11
435
21
-61.25
0
ENDBLK
5
9F
330
9D
100
AcDbEntity
8
0
100
AcDbBlockEnd
0
BLOCK
5
A1
330
A0
100
AcDbEntity
8
0
100
AcDbBlockBegin
2
*D27
70
1
10
0
20
0
3
*D27
1

0
LINE
5
163
100
AcDbEntity
8
Bemassung
6
CONTINUOUS
62
7
370
0
100
AcDbLine
10
1580
20
18
11
1580
21
595
0
SOLID
5
164
100
AcDbEntity
8
Bemassung
6
CONTINUOUS
62
7
370
0
100
AcDbTrace
10
1580
20
18
30
0
11
1579.16743068
21
23
31
0
12
1580.83256932
22
23
32
0
13
1580.83256932
23
23
33
0
0
SOLID
5
165
100
AcDbEntity
8
Bemassung
6
CONTINUOUS
62
7
370
0
100
AcDbTrace
10
1580
20
595
30
0
11
1580.83256932
21
590
31
0
12
1579.16743068
22
590
32
0
13
1579.16743068
23
590
33
0
0
MTEXT
5
166
100
AcDbEntity
8
Bemassung
6
CONTINUOUS
62
7
370
0
100
AcDbMText
10
1572
20
306.5
30
0
40
10
41
20
71
5
72
1
1
577
7
standard
210
0
220
0
230
1
50
90
73
2
44
1
0
LINE
5
167
100
AcDbEntity
8
Bemassung
6
CONTINUOUS
62
7
370
0
100
AcDbLine
10
1497
20
18
11
1581.25
21
18
0
LINE
5
168
100
AcDbEntity
8
Bemassung
6
CONTINUOUS
62
7
370
0
100
AcDbLine
10
1495
20
595
11
1581.25
21
595
0
ENDBLK
5
A2
330
A0
100
AcDbEntity
8
0
100
AcDbBlockEnd
0
BLOCK
5
A4
330
A3
100
AcDbEntity
8
0
100
AcDbBlockBegin
2
*D26
70
1
10
0
20
0
3
*D26
1

0
LINE
5
169
100
AcDbEntity
8
Bemassung
6
CONTINUOUS
62
7
370
0
100
AcDbLine
10
1550
20
18
11
1550
21
382.5
0
SOLID
5
16A
100
AcDbEntity
8
Bemassung
6
CONTINUOUS
62
7
370
0
100
AcDbTrace
10
1550
20
18
30
0
11
1549.16743068
21
23
31
0
12
1550.83256932
22
23
32
0
13
1550.83256932
23
23
33
0
0
SOLID
5
16B
100
AcDbEntity
8
Bemassung
6
CONTINUOUS
62
7
370
0
100
AcDbTrace
10
1550
20
382.5
30
0
11
1550.83256932
21
377.5
31
0
12
1549.16743068
22
377.5
32
0
13
1549.16743068
23
377.5
33
0
0
MTEXT
5
16C
100
AcDbEntity
8
Bemassung
6
CONTINUOUS
62
7
370
0
100
AcDbMText
10
1542
20
200.25
30
0
40
10
41
32.2222222222
71
5
72
1
1
364.5
7
standard
210
0
220
0
230
1
50
90
73
2
44
1
0
LINE
5
16D
100
AcDbEntity
8
Bemassung
6
CONTINUOUS
62
7
370
0
100
AcDbLine
10
1497
20
18
11
1551.25
21
18
0
LINE
5
16E
100
AcDbEntity
8
Bemassung
6
CONTINUOUS
62
7
370
0
100
AcDbLine
10
1495
20
382.5
11
1551.25
21
382.5
0
ENDBLK
5
A5
330
A3
100
AcDbEntity
8
0
100
AcDbBlockEnd
0
BLOCK
5
A7
330
A6
100
AcDbEntity
8
0
100
AcDbBlockBegin
2
*D34
70
1
10
0
20
0
3
*D34
1

0
LINE
5
16F
100
AcDbEntity
8
Bemassung
6
CONTINUOUS
62
7
370
0
100
AcDbLine
10
900
20
18
11
900
21
678
0
SOLID
5
170
100
AcDbEntity
8
Bemassung
6
CONTINUOUS
62
7
370
0
100
AcDbTrace
10
900
20
18
30
0
11
899.167430684
21
23
31
0
12
900.832569316
22
23
32
0
13
900.832569316
23
23
33
0
0
SOLID
5
171
100
AcDbEntity
8
Bemassung
6
CONTINUOUS
62
7
370
0
100
AcDbTrace
10
900
20
678
30
0
11
900.832569316
21
673
31
0
12
899.167430684
22
673
32
0
13
899.167430684
23
673
33
0
0
MTEXT
5
172
100
AcDbEntity
8
Bemassung
6
CONTINUOUS
62
7
370
0
100
AcDbMText
10
892
20
348
30
0
40
10
41
20
71
5
72
1
1
660
7
standard
210
0
220
0
230
1
50
90
73
2
44
1
0
LINE
5
173
100
AcDbEntity
8
Bemassung
6
CONTINUOUS
62
7
370
0
100
AcDbLine
10
872
20
18
11
901.25
21
18
0
LINE
5
174
100
AcDbEntity
8
Bemassung
6
CONTINUOUS
62
7
370
0
100
AcDbLine
10
872
20
678
11
901.25
21
678
0
ENDBLK
5
A8
330
A6
100
AcDbEntity
8
0
100
AcDbBlockEnd
0
BLOCK
5
AA
330
A9
100
AcDbEntity
8
0
100
AcDbBlockBegin
2
*D10
70
1
10
0
20
0
3
*D10
1

0
LINE
5
175
100
AcDbEntity
8
Bemassung
6
CONTINUOUS
62
7
370
0
100
AcDbLine
10
-10
20
760
11
435
21
760
0
SOLID
5
176
100
AcDbEntity
8
Bemassung
6
CONTINUOUS
62
7
370
0
100
AcDbTrace
10
-10
20
760
30
0
11
-5
21
760.832569316
31
0
12
-5
22
759.167430684
32
0
13
-5
23
759.167430684
33
0
0
SOLID
5
177
100
AcDbEntity
8
Bemassung
6
CONTINUOUS
62
7
370
0
100
AcDbTrace
10
435
20
760
30
0
11
430
21
759.167430684
31
0
12
430
22
760.832569316
32
0
13
430
23
760.832569316
33
0
0
MTEXT
5
178
100
AcDbEntity
8
Bemassung
6
CONTINUOUS
62
7
370
0
100
AcDbMText
10
212.5
20
768
30
0
40
10
41
22.2222222222
71
5
72
1
1
445
7
standard
210
0
220
0
230
1
50
0
73
2
44
1
0
LINE
5
179
100
AcDbEntity
8
Bemassung
6
CONTINUOUS
62
7
370
0
100
AcDbLine
10
-10
20
704
11
-10
21
761.25
0
LINE
5
17A
100
AcDbEntity
8
Bemassung
6
CONTINUOUS
62
7
370
0
100
AcDbLine
10
435
20
690
11
435
21
761.25
0
ENDBLK
5
AB
330
A9
100
AcDbEntity
8
0
100
AcDbBlockEnd
0
BLOCK
5
AD
330
AC
100
AcDbEntity
8
0
100
AcDbBlockBegin
2
*D30
70
1
10
0
20
0
3
*D30
1

0
LINE
5
17B
100
AcDbEntity
8
Bemassung
6
CONTINUOUS
62
7
370
0
100
AcDbLine
10
990
20
760
11
1371.25
21
760
0
SOLID
5
17C
100
AcDbEntity
8
Bemassung
6
CONTINUOUS
62
7
370
0
100
AcDbTrace
10
990
20
760
30
0
11
995
21
760.832569316
31
0
12
995
22
759.167430684
32
0
13
995
23
759.167430684
33
0
0
SOLID
5
17D
100
AcDbEntity
8
Bemassung
6
CONTINUOUS
62
7
370
0
100
AcDbTrace
10
1371.25
20
760
30
0
11
1366.25
21
759.167430684
31
0
12
1366.25
22
760.832569316
32
0
13
1366.25
23
760.832569316
33
0
0
MTEXT
5
17E
100
AcDbEntity
8
Bemassung
6
CONTINUOUS
62
7
370
0
100
AcDbMText
10
1180.625
20
768
30
0
40
10
41
36.6666666667
71
5
72
1
1
381.25
7
standard
210
0
220
0
230
1
50
0
73
2
44
1
0
LINE
5
17F
100
AcDbEntity
8
Bemassung
6
CONTINUOUS
62
7
370
0
100
AcDbLine
10
990
20
704
11
990
21
761.25
0
LINE
5
180
100
AcDbEntity
8
Bemassung
6
CONTINUOUS
62
7
370
0
100
AcDbLine
10
1371.25
20
690
11
1371.25
21
761.25
0
ENDBLK
5
AE
330
AC
100
AcDbEntity
8
0
100
AcDbBlockEnd
0
BLOCK
5
B0
330
AF
100
AcDbEntity
8
0
100
AcDbBlockBegin
2
*D25
70
1
10
0
20
0
3
*D25
1

0
LINE
5
181
100
AcDbEntity
8
Bemassung
6
CONTINUOUS
62
7
370
0
100
AcDbLine
10
1520
20
18
11
1520
21
135.5
0
SOLID
5
182
100
AcDbEntity
8
Bemassung
6
CONTINUOUS
62
7
370
0
100
AcDbTrace
10
1520
20
18
30
0
11
1519.16743068
21
23
31
0
12
1520.83256932
22
23
32
0
13
1520.83256932
23
23
33
0
0
SOLID
5
183
100
AcDbEntity
8
Bemassung
6
CONTINUOUS
62
7
370
0
100
AcDbTrace
10
1520
20
135.5
30
0
11
1520.83256932
21
130.5
31
0
12
1519.16743068
22
130.5
32
0
13
1519.16743068
23
130.5
33
0
0
MTEXT
5
184
100
AcDbEntity
8
Bemassung
6
CONTINUOUS
62
7
370
0
100
AcDbMText
10
1512
20
76.75
30
0
40
10
41
26.6666666667
71
5
72
1
1
117.5
7
standard
210
0
220
0
230
1
50
90
73
2
44
1
0
LINE
5
185
100
AcDbEntity
8
Bemassung
6
CONTINUOUS
62
7
370
0
100
AcDbLine
10
1497
20
18
11
1521.25
21
18
0
LINE
5
186
100
AcDbEntity
8
Bemassung
6
CONTINUOUS
62
7
370
0
100
AcDbLine
10
1495
20
135.5
11
1521.25
21
135.5
0
ENDBLK
5
B1
330
AF
100
AcDbEntity
8
0
100
AcDbBlockEnd
0
BLOCK
5
B3
330
B2
100
AcDbEntity
8
0
100
AcDbBlockBegin
2
Lamello10
70
0
10
0
20
0
3
Lamello10
1

0
ARC
5
187
100
AcDbEntity
8
0.13
6
ByLayer
62
256
370
-1
100
AcDbCircle
10
-40
20
1.07e-14
40
50
100
AcDbArc
50
327.994545172
51
32.0054548278
0
ARC
5
188
100
AcDbEntity
8
0.13
6
ByLayer
62
256
370
-1
100
AcDbCircle
10
40
20
-1.24e-14
40
50
100
AcDbArc
50
147.994545172
51
212.005454828
0
LINE
5
189
100
AcDbEntity
8
0.13
6
ByLayer
62
256
370
-1
100
AcDbLine
10
-2.39988207531
20
26.5
11
2.39988207531
21
26.5
0
LINE
5
18A
100
AcDbEntity
8
0.13
6
ByLayer
62
256
370
-1
100
AcDbLine
10
-2.39988207531
20
-26.5
11
2.39988207531
21
-26.5
0
LINE
5
18B
100
AcDbEntity
8
0.13
6
DASHDOT
62
256
370
-1
100
AcDbLine
10
-12
20
0
11
12
21
0
0
LINE
5
18C
100
AcDbEntity
8
0.13
6
DASHDOT
62
256
370
-1
100
AcDbLine
10
0
20
28
11
0
21
-28
0
ENDBLK
5
B4
330
B2
100
AcDbEntity
8
0
100
AcDbBlockEnd
0
BLOCK
5
B6
330
B5
100
AcDbEntity
8
0
100
AcDbBlockBegin
2
Lamello10-b
70
0
10
0
20
0
3
Lamello10-b
1

0
LINE
5
18D
100
AcDbEntity
8
0.13
6
CONTINUOUS
62
256
370
-1
100
AcDbLine
10
-2
20
-10
11
2
21
-10
0
LINE
5
18E
100
AcDbEntity
8
0.13
6
CONTINUOUS
62
256
370
-1
100
AcDbLine
10
2
20
-10
11
2
21
10
0
LINE
5
18F
100
AcDbEntity
8
0.13
6
CONTINUOUS
62
256
370
-1
100
AcDbLine
10
2
20
10
11
-2
21
10
0
LINE
5
190
100
AcDbEntity
8
0.13
6
CONTINUOUS
62
256
370
-1
100
AcDbLine
10
-2
20
10
11
-2
21
-10
0
LINE
5
191
100
AcDbEntity
8
0.13
6
DASHDOT
62
256
370
-1
100
AcDbLine
10
0
20
12
11
0
21
-12
0
LINE
5
192
100
AcDbEntity
8
0.13
6
DASHDOT
62
256
370
-1
100
AcDbLine
10
-3
20
0
11
4
21
0
0
ENDBLK
5
B7
330
B5
100
AcDbEntity
8
0
100
AcDbBlockEnd
0
BLOCK
5
B9
330
B8
100
AcDbEntity
8
0
100
AcDbBlockBegin
2
Lamello10-c
70
0
10
0
20
0
3
Lamello10-c
1

0
LINE
5
193
100
AcDbEntity
8
0.13
6
CONTINUOUS
62
256
370
-1
100
AcDbLine
10
2
20
-26.5
11
2
21
26.5
0
LINE
5
194
100
AcDbEntity
8
0.13
6
CONTINUOUS
62
256
370
-1
100
AcDbLine
10
-2
20
-26.5
11
-2
21
26.5
0
LINE
5
195
100
AcDbEntity
8
0.13
6
CONTINUOUS
62
256
370
-1
100
AcDbLine
10
-2
20
26.5
11
2
21
26.5
0
LINE
5
196
100
AcDbEntity
8
0.13
6
CONTINUOUS
62
256
370
-1
100
AcDbLine
10
2
20
-26.5
11
-2
21
-26.5
0
LINE
5
197
100
AcDbEntity
8
0.13
6
DASHDOT
62
256
370
-1
100
AcDbLine
10
0
20
28.5
11
0
21
-28.5
0
LINE
5
198
100
AcDbEntity
8
0.13
6
DASHDOT
62
256
370
-1
100
AcDbLine
10
-2
20
0
11
2
21
0
0
ENDBLK
5
BA
330
B8
100
AcDbEntity
8
0
100
AcDbBlockEnd
0
ENDSEC
0
SECTION
2
ENTITIES
0
LINE
5
199
100
AcDbEntity
8
0.18
6
ByLayer
62
256
370
-1
100
AcDbLine
10
0
20
0
11
870
21
0
0
LINE
5
19A
100
AcDbEntity
8
0.18
6
ByLayer
62
256
370
-1
100
AcDbLine
10
1.10214571844e-15
20
18
11
870
21
18
0
LINE
5
19B
100
AcDbEntity
8
0.18
6
ByLayer
62
256
370
-1
100
AcDbLine
10
1.10214571844e-15
20
18
11
0
21
0
0
LINE
5
19C
100
AcDbEntity
8
0.18
6
ByLayer
62
256
370
-1
100
AcDbLine
10
870
20
18
11
870
21
0
0
LINE
5
19D
100
AcDbEntity
8
0.18
6
ByLayer
62
256
370
-1
100
AcDbLine
10
1.10214571844e-15
20
18
11
4.15141553946e-14
21
678
0
LINE
5
19E
100
AcDbEntity
8
0.18
6
ByLayer
62
256
370
-1
100
AcDbLine
10
870
20
18
11
870
21
678
0
LINE
5
19F
100
AcDbEntity
8
0.18
6
ByLayer
62
256
370
-1
100
AcDbLine
10
18
20
18
11
18
21
678
0
LINE
5
1A0
100
AcDbEntity
8
0.18
6
ByLayer
62
256
370
-1
100
AcDbLine
10
852
20
18
11
852
21
678
0
LINE
5
1A1
100
AcDbEntity
8
0.18
6
ByLayer
62
256
370
-1
100
AcDbLine
10
298
20
18
11
298
21
678
0
LINE
5
1A2
100
AcDbEntity
8
0.18
6
ByLayer
62
256
370
-1
100
AcDbLine
10
572
20
18
11
572
21
678
0
LINE
5
1A3
100
AcDbEntity
8
0.18
6
ByLayer
62
256
370
-1
100
AcDbLine
10
310
20
18
11
310
21
678
0
LINE
5
1A4
100
AcDbEntity
8
0.18
6
ByLayer
62
256
370
-1
100
AcDbLine
10
560
20
18
11
560
21
678
0
LINE
5
1A5
100
AcDbEntity
8
HilfBL
6
ByLayer
62
256
370
-1
100
AcDbLine
10
870
20
702
11
880
21
702
0
LINE
5
1A6
100
AcDbEntity
8
HilfBL
6
ByLayer
62
256
370
-1
100
AcDbLine
10
870
20
690
11
880
21
690
0
LINE
5
1A7
100
AcDbEntity
8
HilfBL
6
ByLayer
62
256
370
-1
100
AcDbLine
10
870
20
678
11
880
21
678
0
LINE
5
1A8
100
AcDbEntity
8
HilfBL
6
ByLayer
62
256
370
-1
100
AcDbLine
10
4.29836830192e-14
20
702
11
-10
21
702
0
LINE
5
1A9
100
AcDbEntity
8
HilfBL
6
ByLayer
62
256
370
-1
100
AcDbLine
10
4.22489192069e-14
20
690
11
-10
21
690
0
LINE
5
1AA
100
AcDbEntity
8
HilfBL
6
ByLayer
62
256
370
-1
100
AcDbLine
10
4.15141553946e-14
20
678
11
-10
21
678
0
LINE
5
1AB
100
AcDbEntity
8
0.18
6
ByLayer
62
256
370
-1
100
AcDbLine
10
-10
20
702
11
880
21
702
0
LINE
5
1AC
100
AcDbEntity
8
0.18
6
ByLayer
62
256
370
-1
100
AcDbLine
10
880
20
702
11
880
21
690
0
LINE
5
1AD
100
AcDbEntity
8
0.18
6
ByLayer
62
256
370
-1
100
AcDbLine
10
880
20
690
11
-10
21
690
0
LINE
5
1AE
100
AcDbEntity
8
0.18
6
ByLayer
62
256
370
-1
100
AcDbLine
10
-10
20
690
11
-10
21
702
0
LINE
5
1AF
100
AcDbEntity
8
0.18
6
ByLayer
62
256
370
-1
100
AcDbLine
10
-10
20
690
11
-10
21
678
0
LINE
5
1B0
100
AcDbEntity
8
0.18
6
ByLayer
62
256
370
-1
100
AcDbLine
10
-10
20
678
11
880
21
678
0
LINE
5
1B1
100
AcDbEntity
8
0.18
6
ByLayer
62
256
370
-1
100
AcDbLine
10
880
20
678
11
880
21
690
0
LINE
5
1B2
100
AcDbEntity
8
0.18
6
ByLayer
62
256
370
-1
100
AcDbLine
10
880
20
690
11
-10
21
690
0
LINE
5
1B3
100
AcDbEntity
8
HilfBL
6
ByLayer
62
256
370
-1
100
AcDbLine
10
1.54912703759e-14
20
253
11
870
21
253
0
LINE
5
1B4
100
AcDbEntity
8
HilfBL
6
ByLayer
62
256
370
-1
100
AcDbLine
10
1.62260341881e-14
20
265
11
870
21
265
0
LINE
5
1B5
100
AcDbEntity
8
HilfBL
6
ByLayer
62
256
370
-1
100
AcDbLine
10
3.06151588456e-14
20
500
11
870
21
500
0
LINE
5
1B6
100
AcDbEntity
8
HilfBL
6
ByLayer
62
256
370
-1
100
AcDbLine
10
3.13499226579e-14
20
512
11
870
21
512
0
LINE
5
1B7
100
AcDbEntity
8
0.18
6
ByLayer
62
256
370
-1
100
AcDbLine
10
310
20
512
11
560
21
512
0
LINE
5
1B8
100
AcDbEntity
8
0.18
6
ByLayer
62
256
370
-1
100
AcDbLine
10
560
20
500
11
310
21
500
0
LINE
5
1B9
100
AcDbEntity
8
0.18
6
ByLayer
62
256
370
-1
100
AcDbLine
10
310
20
265
11
560
21
265
0
LINE
5
1BA
100
AcDbEntity
8
0.18
6
ByLayer
62
256
370
-1
100
AcDbLine
10
560
20
253
11
310
21
253
0
LINE
5
1BB
100
AcDbEntity
8
HilfBL
6
ByLayer
62
256
370
-1
100
AcDbLine
10
3.09825407517e-14
20
506
11
870
21
506
0
LINE
5
1BC
100
AcDbEntity
8
HilfBL
6
ByLayer
62
256
370
-1
100
AcDbLine
10
1.51238884697e-14
20
259
11
870
21
259
0
LINE
5
1BD
100
AcDbEntity
8
0.18
6
ByLayer
62
256
370
-1
100
AcDbLine
10
1000
20
0
11
1495
21
0
0
LINE
5
1BE
100
AcDbEntity
8
0.18
6
ByLayer
62
256
370
-1
100
AcDbLine
10
1000
20
18
11
1495
21
18
0
LINE
5
1BF
100
AcDbEntity
8
HilfBL
6
ByLayer
62
256
370
-1
100
AcDbLine
10
1495
20
678
11
1505
21
678
0
LINE
5
1C0
100
AcDbEntity
8
HilfBL
6
ByLayer
62
256
370
-1
100
AcDbLine
10
1495
20
690
11
1505
21
690
0
LINE
5
1C1
100
AcDbEntity
8
HilfBL
6
ByLayer
62
256
370
-1
100
AcDbLine
10
1495
20
702
11
1505
21
702
0
LINE
5
1C2
100
AcDbEntity
8
HilfBL
6
ByLayer
62
256
370
-1
100
AcDbLine
10
1000
20
702
11
990
21
702
0
LINE
5
1C3
100
AcDbEntity
8
HilfBL
6
ByLayer
62
256
370
-1
100
AcDbLine
10
1000
20
678
11
990
21
678
0
LINE
5
1C4
100
AcDbEntity
8
HilfBL
6
ByLayer
62
256
370
-1
100
AcDbLine
10
1000
20
690
11
990
21
690
0
LINE
5
1C5
100
AcDbEntity
8
0.18
6
ByLayer
62
256
370
-1
100
AcDbLine
10
990
20
702
11
1505
21
702
0
LINE
5
1C6
100
AcDbEntity
8
0.18
6
ByLayer
62
256
370
-1
100
AcDbLine
10
1505
20
702
11
1505
21
690
0
LINE
5
1C7
100
AcDbEntity
8
0.18
6
ByLayer
62
256
370
-1
100
AcDbLine
10
1505
20
690
11
990
21
690
0
LINE
5
1C8
100
AcDbEntity
8
0.18
6
ByLayer
62
256
370
-1
100
AcDbLine
10
990
20
690
11
990
21
702
0
LINE
5
1C9
100
AcDbEntity
8
0.18
6
ByLayer
62
256
370
-1
100
AcDbLine
10
990
20
690
11
1505
21
690
0
LINE
5
1CA
100
AcDbEntity
8
0.18
6
ByLayer
62
256
370
-1
100
AcDbLine
10
1505
20
690
11
1505
21
678
0
LINE
5
1CB
100
AcDbEntity
8
0.18
6
ByLayer
62
256
370
-1
100
AcDbLine
10
1505
20
678
11
990
21
678
0
LINE
5
1CC
100
AcDbEntity
8
0.18
6
ByLayer
62
256
370
-1
100
AcDbLine
10
990
20
678
11
990
21
690
0
LINE
5
1CD
100
AcDbEntity
8
0.18
6
ByLayer
62
256
370
-1
100
AcDbLine
10
1000
20
18
11
1000
21
678
0
LINE
5
1CE
100
AcDbEntity
8
0.18
6
ByLayer
62
256
370
-1
100
AcDbLine
10
1495
20
18
11
1495
21
678
0
LINE
5
1CF
100
AcDbEntity
8
0.18
6
ByLayer
62
256
370
-1
100
AcDbLine
10
1000
20
512
11
1000
21
500
0
LINE
5
1D0
100
AcDbEntity
8
0.18
6
ByLayer
62
256
370
-1
100
AcDbLine
10
1483
20
500
11
1483
21
512
0
LINE
5
1D1
100
AcDbEntity
8
0.18
6
ByLayer
62
256
370
-1
100
AcDbLine
10
1000
20
265
11
1000
21
253
0
LINE
5
1D2
100
AcDbEntity
8
0.18
6
ByLayer
62
256
370
-1
100
AcDbLine
10
1483
20
253
11
1483
21
265
0
LINE
5
1D3
100
AcDbEntity
8
HilfRT
6
ByLayer
62
256
370
-1
100
AcDbLine
10
435
20
702
11
435
21
0
0
LINE
5
1D4
100
AcDbEntity
8
HilfRT
6
ByLayer
62
256
370
-1
100
AcDbLine
10
1483
20
18
11
1483
21
253
0
LINE
5
1D5
100
AcDbEntity
8
HilfRT
6
ByLayer
62
256
370
-1
100
AcDbLine
10
1483
20
265
11
1483
21
500
0
LINE
5
1D6
100
AcDbEntity
8
HilfRT
6
ByLayer
62
256
370
-1
100
AcDbLine
10
1483
20
512
11
1483
21
678
0
LINE
5
1D7
100
AcDbEntity
8
HilfRT
6
ByLayer
62
256
370
-1
100
AcDbLine
10
18
20
512
11
18
21
678
0
LINE
5
1D8
100
AcDbEntity
8
HilfRT
6
ByLayer
62
256
370
-1
100
AcDbLine
10
18
20
500
11
18
21
265
0
LINE
5
1D9
100
AcDbEntity
8
HilfRT
6
ByLayer
62
256
370
-1
100
AcDbLine
10
18
20
253
11
18
21
18
0
LINE
5
1DA
100
AcDbEntity
8
HilfRT
6
ByLayer
62
256
370
-1
100
AcDbLine
10
18
20
135.5
11
1483
21
135.5
0
LINE
5
1DB
100
AcDbEntity
8
HilfRT
6
ByLayer
62
256
370
-1
100
AcDbLine
10
1483
20
382.5
11
18
21
382.5
0
LINE
5
1DC
100
AcDbEntity
8
HilfRT
6
ByLayer
62
256
370
-1
100
AcDbLine
10
18
20
595
11
1483
21
595
0
LINE
5
1DD
100
AcDbEntity
8
HilfRT
6
ByLayer
62
256
370
-1
100
AcDbLine
10
572
20
678
11
852
21
678
0
LINE
5
1DE
100
AcDbEntity
8
HilfRT
6
ByLayer
62
256
370
-1
100
AcDbLine
10
852
20
18
11
572
21
18
0
LINE
5
1DF
100
AcDbEntity
8
HilfRT
6
ByLayer
62
256
370
-1
100
AcDbLine
10
298
20
18
11
18
21
18
0
LINE
5
1E0
100
AcDbEntity
8
HilfRT
6
ByLayer
62
256
370
-1
100
AcDbLine
10
18
20
678
11
298
21
678
0
LINE
5
1E1
100
AcDbEntity
8
HilfRT
6
ByLayer
62
256
370
-1
100
AcDbLine
10
158
20
678
11
158
21
18
0
LINE
5
1E2
100
AcDbEntity
8
HilfRT
6
ByLayer
62
256
370
-1
100
AcDbLine
10
712
20
18
11
712
21
678
0
LINE
5
1E3
100
AcDbEntity
8
HilfRT
6
ByLayer
62
256
370
-1
100
AcDbLine
10
1371.25
20
678
11
1371.25
21
18
0
LINE
5
1E4
100
AcDbEntity
8
HilfRT
6
ByLayer
62
256
370
-1
100
AcDbLine
10
1070
20
18
11
1070
21
678
0
LINE
5
1E5
100
AcDbEntity
8
0.18
6
ByLayer
62
256
370
-1
100
AcDbLine
10
1000
20
18
11
1000
21
0
0
LINE
5
1E6
100
AcDbEntity
8
0.18
6
ByLayer
62
256
370
-1
100
AcDbLine
10
1495
20
18
11
1495
21
0
0
INSERT
5
1E7
100
AcDbEntity
8
0.18
6
ByLayer
62
256
370
-1
100
AcDbBlockReference
2
Lamello10
10
712
20
678
30
0
41
1
42
1
43
0
50
90
70
1
71
1
44
1
45
1
0
INSERT
5
1E8
100
AcDbEntity
8
0.18
6
ByLayer
62
256
370
-1
100
AcDbBlockReference
2
Lamello10
10
435
20
678
30
0
41
1
42
1
43
0
50
90
70
1
71
1
44
1
45
1
0
INSERT
5
1E9
100
AcDbEntity
8
0.18
6
ByLayer
62
256
370
-1
100
AcDbBlockReference
2
Lamello10
10
158
20
678
30
0
41
1
42
1
43
0
50
90
70
1
71
1
44
1
45
1
0
INSERT
5
1EA
100
AcDbEntity
8
0.18
6
ByLayer
62
256
370
-1
100
AcDbBlockReference
2
Lamello10
10
158
20
18
30
0
41
1
42
1
43
0
50
90
70
1
71
1
44
1
45
1
0
INSERT
5
1EB
100
AcDbEntity
8
0.18
6
ByLayer
62
256
370
-1
100
AcDbBlockReference
2
Lamello10
10
435
20
18
30
0
41
1
42
1
43
0
50
90
70
1
71
1
44
1
45
1
0
INSERT
5
1EC
100
AcDbEntity
8
0.18
6
ByLayer
62
256
370
-1
100
AcDbBlockReference
2
Lamello10
10
712
20
18
30
0
41
1
42
1
43
0
50
90
70
1
71
1
44
1
45
1
0
INSERT
5
1ED
100
AcDbEntity
8
0.18
6
ByLayer
62
256
370
-1
100
AcDbBlockReference
2
Lamello10
10
1070
20
678
30
0
41
1
42
1
43
0
50
90
70
1
71
1
44
1
45
1
0
INSERT
5
1EE
100
AcDbEntity
8
0.18
6
ByLayer
62
256
370
-1
100
AcDbBlockReference
2
Lamello10
10
1070
20
18
30
0
41
1
42
1
43
0
50
90
70
1
71
1
44
1
45
1
0
LINE
5
1EF
100
AcDbEntity
8
HilfBL
6
ByLayer
62
256
370
-1
100
AcDbLine
10
1489
20
18
11
1489
21
678
0
LINE
5
1F0
100
AcDbEntity
8
HilfBL
6
ByLayer
62
256
370
-1
100
AcDbLine
10
1000
20
506
11
1483
21
506
0
LINE
5
1F1
100
AcDbEntity
8
HilfBL
6
ByLayer
62
256
370
-1
100
AcDbLine
10
1000
20
259
11
1483
21
259
0
LINE
5
1F2
100
AcDbEntity
8
HilfBL
6
ByLayer
62
256
370
-1
100
AcDbLine
10
861
20
18
11
861
21
678
0
LINE
5
1F3
100
AcDbEntity
8
HilfBL
6
ByLayer
62
256
370
-1
100
AcDbLine
10
9
20
18
11
9
21
678
0
LINE
5
1F4
100
AcDbEntity
8
HilfBL
6
ByLayer
62
256
370
-1
100
AcDbLine
10
304
20
18
11
304
21
678
0
LINE
5
1F5
100
AcDbEntity
8
HilfBL
6
ByLayer
62
256
370
-1
100
AcDbLine
10
566
20
18
11
566
21
678
0
INSERT
5
1F6
100
AcDbEntity
8
0.18
6
ByLayer
62
256
370
-1
100
AcDbBlockReference
2
Lamello10
10
1483
20
595
30
0
41
1
42
1
43
0
50
0
70
1
71
1
44
1
45
1
0
INSERT
5
1F7
100
AcDbEntity
8
0.18
6
ByLayer
62
256
370
-1
100
AcDbBlockReference
2
Lamello10
10
1483
20
382.5
30
0
41
1
42
1
43
0
50
0
70
1
71
1
44
1
45
1
0
INSERT
5
1F8
100
AcDbEntity
8
0.18
6
ByLayer
62
256
370
-1
100
AcDbBlockReference
2
Lamello10
10
1483
20
135.5
30
0
41
1
42
1
43
0
50
0
70
1
71
1
44
1
45
1
0
INSERT
5
1F9
100
AcDbEntity
8
0.18
6
ByLayer
62
256
370
-1
100
AcDbBlockReference
2
Lamello10-b
10
566
20
678
30
0
41
1
42
1
43
0
50
0
70
1
71
1
44
1
45
1
0
INSERT
5
1FA
100
AcDbEntity
8
0.18
6
ByLayer
62
256
370
-1
100
AcDbBlockReference
2
Lamello10-b
10
304
20
678
30
0
41
1
42
1
43
0
50
0
70
1
71
1
44
1
45
1
0
INSERT
5
1FB
100
AcDbEntity
8
0.18
6
ByLayer
62
256
370
-1
100
AcDbBlockReference
2
Lamello10-b
10
304
20
18
30
0
41
1
42
1
43
0
50
0
70
1
71
1
44
1
45
1
0
INSERT
5
1FC
100
AcDbEntity
8
0.18
6
ByLayer
62
256
370
-1
100
AcDbBlockReference
2
Lamello10-b
10
566
20
18
30
0
41
1
42
1
43
0
50
0
70
1
71
1
44
1
45
1
0
INSERT
5
1FD
100
AcDbEntity
8
0.18
6
ByLayer
62
256
370
-1
100
AcDbBlockReference
2
Lamello10-b
10
560
20
506
30
0
41
1
42
1
43
0
50
90
70
1
71
1
44
1
45
1
0
INSERT
5
1FE
100
AcDbEntity
8
0.18
6
ByLayer
62
256
370
-1
100
AcDbBlockReference
2
Lamello10-b
10
310
20
506
30
0
41
1
42
1
43
0
50
90
70
1
71
1
44
1
45
1
0
INSERT
5
1FF
100
AcDbEntity
8
0.18
6
ByLayer
62
256
370
-1
100
AcDbBlockReference
2
Lamello10-b
10
310
20
259
30
0
41
1
42
1
43
0
50
90
70
1
71
1
44
1
45
1
0
INSERT
5
200
100
AcDbEntity
8
0.18
6
ByLayer
62
256
370
-1
100
AcDbBlockReference
2
Lamello10-b
10
560
20
259
30
0
41
1
42
1
43
0
50
90
70
1
71
1
44
1
45
1
0
INSERT
5
201
100
AcDbEntity
8
0.18
6
ByLayer
62
256
370
-1
100
AcDbBlockReference
2
Lamello10-b
10
1483
20
259
30
0
41
1
42
1
43
0
50
90
70
1
71
1
44
1
45
1
0
INSERT
5
202
100
AcDbEntity
8
0.18
6
ByLayer
62
256
370
-1
100
AcDbBlockReference
2
Lamello10-b
10
1483
20
506
30
0
41
1
42
1
43
0
50
90
70
1
71
1
44
1
45
1
0
INSERT
5
203
100
AcDbEntity
8
0.18
6
ByLayer
62
256
370
-1
100
AcDbBlockReference
2
Lamello10-c
10
861
20
595
30
0
41
1
42
1
43
0
50
0
70
1
71
1
44
1
45
1
0
INSERT
5
204
100
AcDbEntity
8
0.18
6
ByLayer
62
256
370
-1
100
AcDbBlockReference
2
Lamello10-c
10
861
20
382.5
30
0
41
1
42
1
43
0
50
0
70
1
71
1
44
1
45
1
0
INSERT
5
205
100
AcDbEntity
8
0.18
6
ByLayer
62
256
370
-1
100
AcDbBlockReference
2
Lamello10-c
10
861
20
135.5
30
0
41
1
42
1
43
0
50
0
70
1
71
1
44
1
45
1
0
LINE
5
206
100
AcDbEntity
8
HilfRT
6
ByLayer
62
256
370
-1
100
AcDbLine
10
18
20
595
11
6
21
595
0
LINE
5
207
100
AcDbEntity
8
HilfRT
6
ByLayer
62
256
370
-1
100
AcDbLine
10
18
20
135.5
11
6
21
135.5
0
LINE
5
208
100
AcDbEntity
8
HilfRT
6
ByLayer
62
256
370
-1
100
AcDbLine
10
18
20
382.5
11
6
21
382.5
0
INSERT
5
209
100
AcDbEntity
8
0.18
6
ByLayer
62
256
370
-1
100
AcDbBlockReference
2
Lamello10-c
10
9
20
595
30
0
41
1
42
1
43
0
50
0
70
1
71
1
44
1
45
1
0
INSERT
5
20A
100
AcDbEntity
8
0.18
6
ByLayer
62
256
370
-1
100
AcDbBlockReference
2
Lamello10-c
10
9
20
382.5
30
0
41
1
42
1
43
0
50
0
70
1
71
1
44
1
45
1
0
INSERT
5
20B
100
AcDbEntity
8
0.18
6
ByLayer
62
256
370
-1
100
AcDbBlockReference
2
Lamello10-c
10
9
20
135.5
30
0
41
1
42
1
43
0
50
0
70
1
71
1
44
1
45
1
0
INSERT
5
20C
100
AcDbEntity
8
0.18
6
ByLayer
62
256
370
-1
100
AcDbBlockReference
2
Lamello10
10
1371.25
20
678
30
0
41
1
42
1
43
0
50
90
70
1
71
1
44
1
45
1
0
INSERT
5
20D
100
AcDbEntity
8
0.18
6
ByLayer
62
256
370
-1
100
AcDbBlockReference
2
Lamello10
10
1371.25
20
18
30
0
41
1
42
1
43
0
50
90
70
1
71
1
44
1
45
1
0
INSERT
5
20E
100
AcDbEntity
8
0.18
6
ByLayer
62
256
370
-1
100
AcDbBlockReference
2
Lamello10-c
10
1070
20
506
30
0
41
1
42
1
43
0
50
90
70
1
71
1
44
1
45
1
0
INSERT
5
20F
100
AcDbEntity
8
0.18
6
ByLayer
62
256
370
-1
100
AcDbBlockReference
2
Lamello10-c
10
1247.5
20
506
30
0
41
1
42
1
43
0
50
90
70
1
71
1
44
1
45
1
0
INSERT
5
210
100
AcDbEntity
8
0.18
6
ByLayer
62
256
370
-1
100
AcDbBlockReference
2
Lamello10-c
10
1371.25
20
506
30
0
41
1
42
1
43
0
50
90
70
1
71
1
44
1
45
1
0
INSERT
5
211
100
AcDbEntity
8
0.18
6
ByLayer
62
256
370
-1
100
AcDbBlockReference
2
Lamello10-c
10
1371.25
20
259
30
0
41
1
42
1
43
0
50
90
70
1
71
1
44
1
45
1
0
INSERT
5
212
100
AcDbEntity
8
0.18
6
ByLayer
62
256
370
-1
100
AcDbBlockReference
2
Lamello10-c
10
1247.5
20
259
30
0
41
1
42
1
43
0
50
90
70
1
71
1
44
1
45
1
0
INSERT
5
213
100
AcDbEntity
8
0.18
6
ByLayer
62
256
370
-1
100
AcDbBlockReference
2
Lamello10-c
10
1070
20
259
30
0
41
1
42
1
43
0
50
90
70
1
71
1
44
1
45
1
0
INSERT
5
214
100
AcDbEntity
8
0.18
6
ByLayer
62
256
370
-1
100
AcDbBlockReference
2
Lamello10-c
10
435
20
259
30
0
41
1
42
1
43
0
50
90
70
1
71
1
44
1
45
1
0
LINE
5
215
100
AcDbEntity
8
HilfRT
6
ByLayer
62
256
370
-1
100
AcDbLine
10
1070
20
18
11
1371.25
21
18
0
LINE
5
216
100
AcDbEntity
8
HilfRT
6
ByLayer
62
256
370
-1
100
AcDbLine
10
1371.25
20
678
11
1070
21
678
0
LINE
5
217
100
AcDbEntity
8
HilfRT
6
ByLayer
62
256
370
-1
100
AcDbLine
10
1220.625
20
678
11
1220.625
21
18
0
INSERT
5
218
100
AcDbEntity
8
0.18
6
ByLayer
62
256
370
-1
100
AcDbBlockReference
2
Lamello10
10
1220.625
20
18
30
0
41
1
42
1
43
0
50
90
70
1
71
1
44
1
45
1
0
INSERT
5
219
100
AcDbEntity
8
0.18
6
ByLayer
62
256
370
-1
100
AcDbBlockReference
2
Lamello10
10
1220.625
20
678
30
0
41
1
42
1
43
0
50
90
70
1
71
1
44
1
45
1
0
INSERT
5
21A
100
AcDbEntity
8
0.18
6
ByLayer
62
256
370
-1
100
AcDbBlockReference
2
Lamello10-b
10
9
20
678
30
0
41
1
42
1
43
0
50
0
70
1
71
1
44
1
45
1
0
INSERT
5
21B
100
AcDbEntity
8
0.18
6
ByLayer
62
256
370
-1
100
AcDbBlockReference
2
Lamello10-b
10
861
20
678
30
0
41
1
42
1
43
0
50
0
70
1
71
1
44
1
45
1
0
INSERT
5
21C
100
AcDbEntity
8
0.18
6
ByLayer
62
256
370
-1
100
AcDbBlockReference
2
Lamello10-b
10
861
20
18
30
0
41
1
42
1
43
0
50
0
70
1
71
1
44
1
45
1
0
INSERT
5
21D
100
AcDbEntity
8
0.18
6
ByLayer
62
256
370
-1
100
AcDbBlockReference
2
Lamello10-b
10
9
20
18
30
0
41
1
42
1
43
0
50
0
70
1
71
1
44
1
45
1
0
INSERT
5
21E
100
AcDbEntity
8
0.18
6
ByLayer
62
256
370
-1
100
AcDbBlockReference
2
Lamello10-b
10
1489
20
678
30
0
41
1
42
1
43
0
50
0
70
1
71
1
44
1
45
1
0
INSERT
5
21F
100
AcDbEntity
8
0.18
6
ByLayer
62
256
370
-1
100
AcDbBlockReference
2
Lamello10-b
10
1489
20
18
30
0
41
1
42
1
43
0
50
0
70
1
71
1
44
1
45
1
0
LINE
5
220
100
AcDbEntity
8
0.18
6
DASHED2
62
256
370
-1
100
AcDbLine
10
1483
20
512
11
1000
21
512
0
LINE
5
221
100
AcDbEntity
8
0.18
6
DASHED2
62
256
370
-1
100
AcDbLine
10
1000
20
500
11
1483
21
500
0
LINE
5
222
100
AcDbEntity
8
0.18
6
DASHED2
62
256
370
-1
100
AcDbLine
10
1483
20
265
11
1000
21
265
0
LINE
5
223
100
AcDbEntity
8
0.18
6
DASHED2
62
256
370
-1
100
AcDbLine
10
1000
20
253
11
1483
21
253
0
LINE
5
224
100
AcDbEntity
8
0.18
6
DASHED2
62
256
370
-1
100
AcDbLine
10
1483
20
18
11
1483
21
678
0
DIMENSION
5
225
100
AcDbEntity
8
Bemassung
6
ByLayer
62
256
370
-1
100
AcDbDimension
2
*D1
10
158
20
-22
30
0
11
79
21
-14
31
0
70
32
71
5
3
Standard
53
0
210
0
220
0
230
1
100
AcDbAlignedDimension
13
0
23
0
33
0
14
158
24
8
34
0
100
AcDbRotatedDimension
0
DIMENSION
5
226
100
AcDbEntity
8
Bemassung
6
ByLayer
62
256
370
-1
100
AcDbDimension
2
*D2
10
298
20
-40
30
0
11
149
21
-32
31
0
70
32
71
5
3
Standard
53
0
210
0
220
0
230
1
100
AcDbAlignedDimension
13
0
23
0
33
0
14
298
24
18
34
0
100
AcDbRotatedDimension
0
DIMENSION
5
227
100
AcDbEntity
8
Bemassung
6
ByLayer
62
256
370
-1
100
AcDbDimension
2
*D3
10
435
20
-60
30
0
11
217.5
21
-52
31
0
70
32
71
5
3
Standard
53
0
210
0
220
0
230
1
100
AcDbAlignedDimension
13
0
23
0
33
0
14
435
24
8
34
0
100
AcDbRotatedDimension
0
DIMENSION
5
228
100
AcDbEntity
8
Bemassung
6
ByLayer
62
256
370
-1
100
AcDbDimension
2
*D4
10
560
20
-80
30
0
11
280
21
-72
31
0
70
32
71
5
3
Standard
53
0
210
0
220
0
230
1
100
AcDbAlignedDimension
13
0
23
0
33
0
14
560
24
18
34
0
100
AcDbRotatedDimension
0
DIMENSION
5
229
100
AcDbEntity
8
Bemassung
6
ByLayer
62
256
370
-1
100
AcDbDimension
2
*D5
10
712
20
-100
30
0
11
356
21
-92
31
0
70
32
71
5
3
Standard
53
0
210
0
220
0
230
1
100
AcDbAlignedDimension
13
0
23
0
33
0
14
712
24
8
34
0
100
AcDbRotatedDimension
0
DIMENSION
5
22A
100
AcDbEntity
8
Bemassung
6
ByLayer
62
256
370
-1
100
AcDbDimension
2
*D6
10
870
20
-120
30
0
11
435
21
-112
31
0
70
32
71
5
3
Standard
53
0
210
0
220
0
230
1
100
AcDbAlignedDimension
13
0
23
0
33
0
14
870
24
0
34
0
100
AcDbRotatedDimension
0
DIMENSION
5
22B
100
AcDbEntity
8
Bemassung
6
ByLayer
62
256
370
-1
100
AcDbDimension
2
*D7
10
3.91874033223e-14
20
640
30
0
11
-5
21
648
31
0
70
32
71
5
3
Standard
53
0
210
0
220
0
230
1
100
AcDbAlignedDimension
13
-10
23
678
33
0
14
4.15141553946e-14
24
678
34
0
100
AcDbRotatedDimension
0
DIMENSION
5
22C
100
AcDbEntity
8
Bemassung
6
ByLayer
62
256
370
-1
100
AcDbDimension
2
*D8
10
158
20
720
30
0
11
74
21
728
31
0
70
32
71
5
3
Standard
53
0
210
0
220
0
230
1
100
AcDbAlignedDimension
13
-10
23
702
33
0
14
158
24
688
34
0
100
AcDbRotatedDimension
0
DIMENSION
5
22D
100
AcDbEntity
8
Bemassung
6
ByLayer
62
256
370
-1
100
AcDbDimension
2
*D9
10
298
20
740
30
0
11
144
21
748
31
0
70
32
71
5
3
Standard
53
0
210
0
220
0
230
1
100
AcDbAlignedDimension
13
-10
23
702
33
0
14
298
24
678
34
0
100
AcDbRotatedDimension
0
DIMENSION
5
22E
100
AcDbEntity
8
Bemassung
6
ByLayer
62
256
370
-1
100
AcDbDimension
2
*D10
10
435
20
760
30
0
11
212.5
21
768
31
0
70
32
71
5
3
Standard
53
0
210
0
220
0
230
1
100
AcDbAlignedDimension
13
-10
23
702
33
0
14
435
24
688
34
0
100
AcDbRotatedDimension
0
DIMENSION
5
22F
100
AcDbEntity
8
Bemassung
6
ByLayer
62
256
370
-1
100
AcDbDimension
2
*D11
10
560
20
780
30
0
11
275
21
788
31
0
70
32
71
5
3
Standard
53
0
210
0
220
0
230
1
100
AcDbAlignedDimension
13
-10
23
702
33
0
14
560
24
678
34
0
100
AcDbRotatedDimension
0
DIMENSION
5
230
100
AcDbEntity
8
Bemassung
6
ByLayer
62
256
370
-1
100
AcDbDimension
2
*D12
10
712
20
800
30
0
11
351
21
808
31
0
70
32
71
5
3
Standard
53
0
210
0
220
0
230
1
100
AcDbAlignedDimension
13
-10
23
702
33
0
14
712
24
688
34
0
100
AcDbRotatedDimension
0
DIMENSION
5
231
100
AcDbEntity
8
Bemassung
6
ByLayer
62
256
370
-1
100
AcDbDimension
2
*D13
10
880
20
820
30
0
11
435
21
828
31
0
70
32
71
5
3
Standard
53
0
210
0
220
0
230
1
100
AcDbAlignedDimension
13
-10
23
702
33
0
14
880
24
702
34
0
100
AcDbRotatedDimension
0
DIMENSION
5
232
100
AcDbEntity
8
Bemassung
6
ByLayer
62
256
370
-1
100
AcDbDimension
2
*D14
10
-10
20
18
30
0
11
-18
21
9
31
0
70
32
71
5
3
Standard
53
0
210
0
220
0
230
1
100
AcDbAlignedDimension
13
0
23
0
33
0
14
1.10214571844e-15
24
18
34
0
50
90
100
AcDbRotatedDimension
0
DIMENSION
5
233
100
AcDbEntity
8
Bemassung
6
ByLayer
62
256
370
-1
100
AcDbDimension
2
*D15
10
18
20
50
30
0
11
9
21
58
31
0
70
32
71
5
3
Standard
53
0
210
0
220
0
230
1
100
AcDbAlignedDimension
13
1.10214571844e-15
23
18
33
0
14
18
24
18
34
0
100
AcDbRotatedDimension
0
DIMENSION
5
234
100
AcDbEntity
8
Bemassung
6
ByLayer
62
256
370
-1
100
AcDbDimension
2
*D16
10
310
20
50
30
0
11
304
21
58
31
0
70
32
71
5
3
Standard
53
0
210
0
220
0
230
1
100
AcDbAlignedDimension
13
298
23
18
33
0
14
310
24
18
34
0
100
AcDbRotatedDimension
0
DIMENSION
5
235
100
AcDbEntity
8
Bemassung
6
ByLayer
62
256
370
-1
100
AcDbDimension
2
*D17
10
298
20
200
30
0
11
158
21
208
31
0
70
32
71
5
3
Standard
53
0
210
0
220
0
230
1
100
AcDbAlignedDimension
13
18
23
200
33
0
14
298
24
200
34
0
100
AcDbRotatedDimension
0
DIMENSION
5
236
100
AcDbEntity
8
Bemassung
6
ByLayer
62
256
370
-1
100
AcDbDimension
2
*D18
10
560
20
200
30
0
11
435
21
208
31
0
70
32
71
5
3
Standard
53
0
210
0
220
0
230
1
100
AcDbAlignedDimension
13
310
23
200
33
0
14
560
24
200
34
0
100
AcDbRotatedDimension
0
DIMENSION
5
237
100
AcDbEntity
8
Bemassung
6
ByLayer
62
256
370
-1
100
AcDbDimension
2
*D19
10
600
20
253
30
0
11
592
21
135.5
31
0
70
32
71
5
3
Standard
53
0
210
0
220
0
230
1
100
AcDbAlignedDimension
13
560
23
18
33
0
14
560
24
253
34
0
50
90
100
AcDbRotatedDimension
0
DIMENSION
5
238
100
AcDbEntity
8
Bemassung
6
ByLayer
62
256
370
-1
100
AcDbDimension
2
*D20
10
620
20
500
30
0
11
612
21
259
31
0
70
32
71
5
3
Standard
53
0
210
0
220
0
230
1
100
AcDbAlignedDimension
13
560
23
18
33
0
14
560
24
500
34
0
50
90
100
AcDbRotatedDimension
0
DIMENSION
5
239
100
AcDbEntity
8
Bemassung
6
ByLayer
62
256
370
-1
100
AcDbDimension
2
*D21
10
1070
20
-22
30
0
11
1035
21
-14
31
0
70
32
71
5
3
Standard
53
0
210
0
220
0
230
1
100
AcDbAlignedDimension
13
1000
23
0
33
0
14
1070
24
8
34
0
100
AcDbRotatedDimension
0
DIMENSION
5
23A
100
AcDbEntity
8
Bemassung
6
ByLayer
62
256
370
-1
100
AcDbDimension
2
*D22
10
1220.625
20
-40
30
0
11
1110.3125
21
-32
31
0
70
32
71
5
3
Standard
53
0
210
0
220
0
230
1
100
AcDbAlignedDimension
13
1000
23
0
33
0
14
1220.625
24
8
34
0
100
AcDbRotatedDimension
0
DIMENSION
5
23B
100
AcDbEntity
8
Bemassung
6
ByLayer
62
256
370
-1
100
AcDbDimension
2
*D23
10
1371.25
20
-60
30
0
11
1185.625
21
-52
31
0
70
32
71
5
3
Standard
53
0
210
0
220
0
230
1
100
AcDbAlignedDimension
13
1000
23
0
33
0
14
1371.25
24
8
34
0
100
AcDbRotatedDimension
0
DIMENSION
5
23C
100
AcDbEntity
8
Bemassung
6
ByLayer
62
256
370
-1
100
AcDbDimension
2
*D24
10
1495
20
-120
30
0
11
1247.5
21
-112
31
0
70
32
71
5
3
Standard
53
0
210
0
220
0
230
1
100
AcDbAlignedDimension
13
1000
23
0
33
0
14
1495
24
0
34
0
100
AcDbRotatedDimension
0
DIMENSION
5
23D
100
AcDbEntity
8
Bemassung
6
ByLayer
62
256
370
-1
100
AcDbDimension
2
*D25
10
1520
20
135.5
30
0
11
1512
21
76.75
31
0
70
32
71
5
3
Standard
53
0
210
0
220
0
230
1
100
AcDbAlignedDimension
13
1495
23
18
33
0
14
1493
24
135.5
34
0
50
90
100
AcDbRotatedDimension
0
DIMENSION
5
23E
100
AcDbEntity
8
Bemassung
6
ByLayer
62
256
370
-1
100
AcDbDimension
2
*D26
10
1550
20
382.5
30
0
11
1542
21
200.25
31
0
70
32
71
5
3
Standard
53
0
210
0
220
0
230
1
100
AcDbAlignedDimension
13
1495
23
18
33
0
14
1493
24
382.5
34
0
50
90
100
AcDbRotatedDimension
0
DIMENSION
5
23F
100
AcDbEntity
8
Bemassung
6
ByLayer
62
256
370
-1
100
AcDbDimension
2
*D27
10
1580
20
595
30
0
11
1572
21
306.5
31
0
70
32
71
5
3
Standard
53
0
210
0
220
0
230
1
100
AcDbAlignedDimension
13
1495
23
18
33
0
14
1493
24
595
34
0
50
90
100
AcDbRotatedDimension
0
DIMENSION
5
240
100
AcDbEntity
8
Bemassung
6
ByLayer
62
256
370
-1
100
AcDbDimension
2
*D28
10
1070
20
720
30
0
11
1030
21
728
31
0
70
32
71
5
3
Standard
53
0
210
0
220
0
230
1
100
AcDbAlignedDimension
13
990
23
702
33
0
14
1070
24
688
34
0
100
AcDbRotatedDimension
0
DIMENSION
5
241
100
AcDbEntity
8
Bemassung
6
ByLayer
62
256
370
-1
100
AcDbDimension
2
*D29
10
1220.625
20
740
30
0
11
1105.3125
21
748
31
0
70
32
71
5
3
Standard
53
0
210
0
220
0
230
1
100
AcDbAlignedDimension
13
990
23
702
33
0
14
1220.625
24
688
34
0
100
AcDbRotatedDimension
0
DIMENSION
5
242
100
AcDbEntity
8
Bemassung
6
ByLayer
62
256
370
-1
100
AcDbDimension
2
*D30
10
1371.25
20
760
30
0
11
1180.625
21
768
31
0
70
32
71
5
3
Standard
53
0
210
0
220
0
230
1
100
AcDbAlignedDimension
13
990
23
702
33
0
14
1371.25
24
688
34
0
100
AcDbRotatedDimension
0
DIMENSION
5
243
100
AcDbEntity
8
Bemassung
6
ByLayer
62
256
370
-1
100
AcDbDimension
2
*D31
10
1505
20
820
30
0
11
1247.5
21
828
31
0
70
32
71
5
3
Standard
53
0
210
0
220
0
230
1
100
AcDbAlignedDimension
13
990
23
702
33
0
14
1505
24
702
34
0
100
AcDbRotatedDimension
0
DIMENSION
5
244
100
AcDbEntity
8
Bemassung
6
ByLayer
62
256
370
-1
100
AcDbDimension
2
*D32
10
-20
20
690
30
0
11
-28
21
696
31
0
70
32
71
5
3
Standard
53
0
210
0
220
0
230
1
100
AcDbAlignedDimension
13
-10
23
702
33
0
14
-10
24
690
34
0
50
90
100
AcDbRotatedDimension
0
DIMENSION
5
245
100
AcDbEntity
8
Bemassung
6
ByLayer
62
256
370
-1
100
AcDbDimension
2
*D33
10
-40
20
678
30
0
11
-48
21
684
31
0
70
32
71
5
3
Standard
53
0
210
0
220
0
230
1
100
AcDbAlignedDimension
13
-10
23
690
33
0
14
-10
24
678
34
0
50
90
100
AcDbRotatedDimension
0
DIMENSION
5
246
100
AcDbEntity
8
Bemassung
6
ByLayer
62
256
370
-1
100
AcDbDimension
2
*D34
10
900
20
678
30
0
11
892
21
348
31
0
70
32
71
5
3
Standard
53
0
210
0
220
0
230
1
100
AcDbAlignedDimension
13
870
23
18
33
0
14
870
24
678
34
0
50
90
100
AcDbRotatedDimension
0
INSERT
5
247
100
AcDbEntity
8
0.18
6
ByLayer
62
256
370
-1
100
AcDbBlockReference
2
Lamello10-c
10
435
20
506
30
0
41
1
42
1
43
0
50
90
70
1
71
1
44
1
45
1
0
ENDSEC
0
SECTION
2
OBJECTS
0
DICTIONARY
5
C
330
0
100
AcDbDictionary
281
1
3
ACAD_GROUP
350
D
0
DICTIONARY
5
D
330
C
100
AcDbDictionary
281
1
0
ENDSEC
0
EOF
