999
dxflib 2.2.0.0
  0
SECTION
  2
HEADER
  9
$ACADVER
  1
AC1015
  9
$HANDSEED
  5
FFFF
  9
$SPLINESEGS
 70
8
  9
$DIMEXE
 40
1.25
  9
$PSVPSCALE
 40
0.2708485685653151
  9
$DIMLUNIT
 70
2
  9
$GRIDMODE
 70
1
  9
$INSUNITS
 70
4
  9
$DIMADEC
 70
2
  9
$DIMASZ
 40
5.0
  9
$DIMGAP
 40
3.0
  9
$DIMTXT
 40
10.0
  9
$GRIDUNIT
 10
0.0
 20
0.0
  9
$DIMEXO
 40
2.0
  9
$LUPREC
 70
4
  9
$PINSBASE
 10
32.272108014409163
 20
45.1763224181359959
 30
0.0
  9
$DIMAUNIT
 70
0
  9
$AUPREC
 70
2
  9
$PLIMMIN
 10
0.0
 20
0.0
  9
$LUNITS
 70
2
  9
$PLIMMAX
 10
297.0
 20
210.0
  9
$DIMSTYLE
  2
Standard
  9
$AUNITS
 70
0
  0
ENDSEC
  0
SECTION
  2
TABLES
  0
TABLE
  2
VPORT
  5
8
100
AcDbSymbolTable
 70
1
  0
VPORT
  5
30
100
AcDbSymbolTableRecord
100
AcDbViewportTableRecord
  2
*Active
 70
0
 10
0.0
 20
0.0
 11
1.0
 21
1.0
 12
286.3055555555554861
 22
148.5
 13
0.0
 23
0.0
 14
10.0
 24
10.0
 15
10.0
 25
10.0
 16
0.0
 26
0.0
 36
1.0
 17
0.0
 27
0.0
 37
0.0
 40
297.0
 41
1.92798353909465
 42
50.0
 43
0.0
 44
0.0
 50
0.0
 51
0.0
 71
0
 72
100
 73
1
 74
3
 75
1
 76
1
 77
0
 78
0
281
0
 65
1
110
0.0
120
0.0
130
0.0
111
1.0
121
0.0
131
0.0
112
0.0
122
1.0
132
0.0
 79
0
146
0.0
  0
ENDTAB
  0
TABLE
  2
LTYPE
  5
5
100
AcDbSymbolTable
 70
21
  0
LTYPE
  5
14
100
AcDbSymbolTableRecord
100
AcDbLinetypeTableRecord
  2
ByBlock
 70
0
  3

 72
65
 73
0
 40
0.0
  0
LTYPE
  5
15
100
AcDbSymbolTableRecord
100
AcDbLinetypeTableRecord
  2
ByLayer
 70
0
  3

 72
65
 73
0
 40
0.0
  0
LTYPE
  5
16
100
AcDbSymbolTableRecord
100
AcDbLinetypeTableRecord
  2
CONTINUOUS
 70
0
  3
Solid line
 72
65
 73
0
 40
0.0
  0
LTYPE
  5
31
100
AcDbSymbolTableRecord
100
AcDbLinetypeTableRecord
  2
DOT
 70
0
  3
Dot . . . . . . . . . . . . . . . . . . . . . .
 72
65
 73
2
 40
6.3499999999999996
 49
0.0
 74
0
 49
-6.3499999999999996
 74
0
  0
LTYPE
  5
32
100
AcDbSymbolTableRecord
100
AcDbLinetypeTableRecord
  2
DOT2
 70
0
  3
Dot (.5x) .....................................
 72
65
 73
2
 40
3.1749999999999998
 49
0.0
 74
0
 49
-3.1749999999999998
 74
0
  0
LTYPE
  5
33
100
AcDbSymbolTableRecord
100
AcDbLinetypeTableRecord
  2
DOTX2
 70
0
  3
Dot (2x) .  .  .  .  .  .  .  .  .  .  .  .  .
 72
65
 73
2
 40
12.6999999999999993
 49
0.0
 74
0
 49
-12.6999999999999993
 74
0
  0
LTYPE
  5
34
100
AcDbSymbolTableRecord
100
AcDbLinetypeTableRecord
  2
DASHED
 70
0
  3
Dashed __ __ __ __ __ __ __ __ __ __ __ __ __ _
 72
65
 73
2
 40
19.0500000000000007
 49
12.6999999999999993
 74
0
 49
-6.3499999999999996
 74
0
  0
LTYPE
  5
35
100
AcDbSymbolTableRecord
100
AcDbLinetypeTableRecord
  2
DASHED2
 70
0
  3
Dashed (.5x) _ _ _ _ _ _ _ _ _ _ _ _ _ _ _ _ _
 72
65
 73
2
 40
9.5250000000000004
 49
6.3499999999999996
 74
0
 49
-3.1749999999999998
 74
0
  0
LTYPE
  5
36
100
AcDbSymbolTableRecord
100
AcDbLinetypeTableRecord
  2
DASHEDX2
 70
0
  3
Dashed (2x) ____  ____  ____  ____  ____  ___
 72
65
 73
2
 40
38.1000000000000014
 49
25.3999999999999986
 74
0
 49
-12.6999999999999993
 74
0
  0
LTYPE
  5
37
100
AcDbSymbolTableRecord
100
AcDbLinetypeTableRecord
  2
DASHDOT
 70
0
  3
Dash dot __ . __ . __ . __ . __ . __ . __ . __
 72
65
 73
4
 40
25.3999999999999986
 49
12.6999999999999993
 74
0
 49
-6.3499999999999996
 74
0
 49
0.0
 74
0
 49
-6.3499999999999996
 74
0
  0
LTYPE
  5
38
100
AcDbSymbolTableRecord
100
AcDbLinetypeTableRecord
  2
DASHDOT2
 70
0
  3
Dash dot (.5x) _._._._._._._._._._._._._._._.
 72
65
 73
4
 40
12.6999999999999993
 49
6.3499999999999996
 74
0
 49
-3.1749999999999998
 74
0
 49
0.0
 74
0
 49
-3.1749999999999998
 74
0
  0
LTYPE
  5
39
100
AcDbSymbolTableRecord
100
AcDbLinetypeTableRecord
  2
DASHDOTX2
 70
0
  3
Dash dot (2x) ____  .  ____  .  ____  .  ___
 72
65
 73
4
 40
50.7999999999999972
 49
25.3999999999999986
 74
0
 49
-12.6999999999999993
 74
0
 49
0.0
 74
0
 49
-12.6999999999999993
 74
0
  0
LTYPE
  5
3A
100
AcDbSymbolTableRecord
100
AcDbLinetypeTableRecord
  2
DIVIDE
 70
0
  3
Divide ____ . . ____ . . ____ . . ____ . . ____
 72
65
 73
6
 40
31.75
 49
12.6999999999999993
 74
0
 49
-6.3499999999999996
 74
0
 49
0.0
 74
0
 49
-6.3499999999999996
 74
0
 49
0.0
 74
0
 49
-6.3499999999999996
 74
0
  0
LTYPE
  5
3B
100
AcDbSymbolTableRecord
100
AcDbLinetypeTableRecord
  2
DIVIDE2
 70
0
  3
Divide (.5x) __..__..__..__..__..__..__..__.._
 72
65
 73
6
 40
15.875
 49
6.3499999999999996
 74
0
 49
-3.1749999999999998
 74
0
 49
0.0
 74
0
 49
-3.1749999999999998
 74
0
 49
0.0
 74
0
 49
-3.1749999999999998
 74
0
  0
LTYPE
  5
3C
100
AcDbSymbolTableRecord
100
AcDbLinetypeTableRecord
  2
DIVIDEX2
 70
0
  3
Divide (2x) ________  .  .  ________  .  .  _
 72
65
 73
6
 40
63.5
 49
25.3999999999999986
 74
0
 49
-12.6999999999999993
 74
0
 49
0.0
 74
0
 49
-12.6999999999999993
 74
0
 49
0.0
 74
0
 49
-12.6999999999999993
 74
0
  0
LTYPE
  5
3D
100
AcDbSymbolTableRecord
100
AcDbLinetypeTableRecord
  2
CENTER
 70
0
  3
Center ____ _ ____ _ ____ _ ____ _ ____ _ ____
 72
65
 73
4
 40
50.7999999999999972
 49
31.75
 74
0
 49
-6.3499999999999996
 74
0
 49
6.3499999999999996
 74
0
 49
-6.3499999999999996
 74
0
  0
LTYPE
  5
3E
100
AcDbSymbolTableRecord
100
AcDbLinetypeTableRecord
  2
CENTER2
 70
0
  3
Center (.5x) ___ _ ___ _ ___ _ ___ _ ___ _ ___
 72
65
 73
4
 40
28.5749999999999993
 49
19.0500000000000007
 74
0
 49
-3.1749999999999998
 74
0
 49
3.1749999999999998
 74
0
 49
-3.1749999999999998
 74
0
  0
LTYPE
  5
3F
100
AcDbSymbolTableRecord
100
AcDbLinetypeTableRecord
  2
CENTERX2
 70
0
  3
Center (2x) ________  __  ________  __  _____
 72
65
 73
4
 40
101.5999999999999943
 49
63.5
 74
0
 49
-12.6999999999999993
 74
0
 49
12.6999999999999993
 74
0
 49
-12.6999999999999993
 74
0
  0
LTYPE
  5
40
100
AcDbSymbolTableRecord
100
AcDbLinetypeTableRecord
  2
BORDER
 70
0
  3
Border __ __ . __ __ . __ __ . __ __ . __ __ .
 72
65
 73
6
 40
44.4500000000000028
 49
12.6999999999999993
 74
0
 49
-6.3499999999999996
 74
0
 49
12.6999999999999993
 74
0
 49
-6.3499999999999996
 74
0
 49
0.0
 74
0
 49
-6.3499999999999996
 74
0
  0
LTYPE
  5
41
100
AcDbSymbolTableRecord
100
AcDbLinetypeTableRecord
  2
BORDER2
 70
0
  3
Border (.5x) __.__.__.__.__.__.__.__.__.__.__.
 72
65
 73
6
 40
22.2250000000000014
 49
6.3499999999999996
 74
0
 49
-3.1749999999999998
 74
0
 49
6.3499999999999996
 74
0
 49
-3.1749999999999998
 74
0
 49
0.0
 74
0
 49
-3.1749999999999998
 74
0
  0
LTYPE
  5
42
100
AcDbSymbolTableRecord
100
AcDbLinetypeTableRecord
  2
BORDERX2
 70
0
  3
Border (2x) ____  ____  .  ____  ____  .  ___
 72
65
 73
6
 40
88.9000000000000057
 49
25.3999999999999986
 74
0
 49
-12.6999999999999993
 74
0
 49
25.3999999999999986
 74
0
 49
-12.6999999999999993
 74
0
 49
0.0
 74
0
 49
-12.6999999999999993
 74
0
  0
ENDTAB
  0
TABLE
  2
LAYER
  5
2
100
AcDbSymbolTable
 70
11
  0
LAYER
  5
10
100
AcDbSymbolTableRecord
100
AcDbLayerTableRecord
  2
0
 70
0
 62
7
  6
CONTINUOUS
370
0
390
F
  0
LAYER
  5
43
100
AcDbSymbolTableRecord
100
AcDbLayerTableRecord
  2
0.13
 70
0
 62
7
  6
CONTINUOUS
370
13
390
F
  0
LAYER
  5
44
100
AcDbSymbolTableRecord
100
AcDbLayerTableRecord
  2
HilfRT
 70
1
 62
1
  6
CONTINUOUS
370
0
390
F
  0
LAYER
  5
45
100
AcDbSymbolTableRecord
100
AcDbLayerTableRecord
  2
0.18
 70
0
 62
7
  6
CONTINUOUS
370
18
390
F
  0
LAYER
  5
46
100
AcDbSymbolTableRecord
100
AcDbLayerTableRecord
  2
Holz
 70
1
 62
4
  6
CONTINUOUS
370
13
390
F
  0
LAYER
  5
47
100
AcDbSymbolTableRecord
100
AcDbLayerTableRecord
  2
HolzSchraffur
 70
1
 62
4
  6
CONTINUOUS
370
13
390
F
  0
LAYER
  5
48
100
AcDbSymbolTableRecord
100
AcDbLayerTableRecord
  2
Raeder
 70
0
 62
7
  6
DASHED
370
13
390
F
  0
LAYER
  5
49
100
AcDbSymbolTableRecord
100
AcDbLayerTableRecord
  2
Bohrungen
 70
0
 62
7
  6
CONTINUOUS
370
13
390
F
  0
LAYER
  5
4A
100
AcDbSymbolTableRecord
100
AcDbLayerTableRecord
  2
Bemassung
 70
0
 62
7
  6
CONTINUOUS
370
5
390
F
  0
LAYER
  5
4B
100
AcDbSymbolTableRecord
100
AcDbLayerTableRecord
  2
HilfBL
 70
1
 62
5
  6
CONTINUOUS
370
0
390
F
  0
LAYER
  5
4C
100
AcDbSymbolTableRecord
100
AcDbLayerTableRecord
  2
U-Scheibe
 70
0
 62
7
  6
CONTINUOUS
370
0
390
F
  0
ENDTAB
  0
TABLE
  2
STYLE
  5
3
100
AcDbSymbolTable
 70
1
  0
STYLE
  5
11
100
AcDbSymbolTableRecord
100
AcDbTextStyleTableRecord
  2
Standard
 70
0
 40
0.0
 41
0.75
 50
0.0
 71
0
 42
2.5
  3
txt
  4

  0
ENDTAB
  0
TABLE
  2
VIEW
  5
6
100
AcDbSymbolTable
 70
0
  0
ENDTAB
  0
TABLE
  2
UCS
  5
7
100
AcDbSymbolTable
 70
0
  0
ENDTAB
  0
TABLE
  2
APPID
  5
9
100
AcDbSymbolTable
 70
1
  0
APPID
  5
12
100
AcDbSymbolTableRecord
100
AcDbRegAppTableRecord
  2
ACAD
 70
0
  0
ENDTAB
  0
TABLE
  2
DIMSTYLE
  5
A
100
AcDbSymbolTable
 70
1
100
AcDbDimStyleTable
 71
0
  0
DIMSTYLE
105
27
100
AcDbSymbolTableRecord
100
AcDbDimStyleTableRecord
  2
Standard
 41
5.0
 42
2.0
 43
3.75
 44
1.25
 70
0
 73
0
 74
0
 77
1
 78
8
140
10.0
141
2.5
143
0.03937007874016
147
3.0
171
3
172
1
271
2
272
2
274
3
278
44
283
0
284
8
340
11
  0
ENDTAB
  0
TABLE
  2
BLOCK_RECORD
  5
1
100
AcDbSymbolTable
 70
1
  0
BLOCK_RECORD
  5
1F
100
AcDbSymbolTableRecord
100
AcDbBlockTableRecord
  2
*Model_Space
340
22
  0
BLOCK_RECORD
  5
1B
100
AcDbSymbolTableRecord
100
AcDbBlockTableRecord
  2
*Paper_Space
340
1E
  0
BLOCK_RECORD
  5
23
100
AcDbSymbolTableRecord
100
AcDbBlockTableRecord
  2
*Paper_Space0
340
26
  0
BLOCK_RECORD
  5
4D
100
AcDbSymbolTableRecord
100
AcDbBlockTableRecord
  2
4mm-Gesenkt-U
340
0
  0
BLOCK_RECORD
  5
4E
100
AcDbSymbolTableRecord
100
AcDbBlockTableRecord
  2
6mm-Gesenkt-O
340
0
  0
BLOCK_RECORD
  5
4F
100
AcDbSymbolTableRecord
100
AcDbBlockTableRecord
  2
U-Scheibe-M6x18
340
0
  0
ENDTAB
  0
ENDSEC
  0
SECTION
  2
BLOCKS
  0
BLOCK
  5
20
100
AcDbEntity
  8
0
100
AcDbBlockBegin
  2
*Model_Space
 70
0
 10
0.0
 20
0.0
 30
0.0
  3
*Model_Space
  1

  0
ENDBLK
  5
21
100
AcDbEntity
  8
0
100
AcDbBlockEnd
  0
BLOCK
  5
1C
100
AcDbEntity
 67
1
  8
0
100
AcDbBlockBegin
  2
*Paper_Space
 70
0
 10
0.0
 20
0.0
 30
0.0
  3
*Paper_Space
  1

  0
ENDBLK
  5
1D
100
AcDbEntity
 67
1
  8
0
100
AcDbBlockEnd
  0
BLOCK
  5
24
100
AcDbEntity
  8
0
100
AcDbBlockBegin
  2
*Paper_Space0
 70
0
 10
0.0
 20
0.0
 30
0.0
  3
*Paper_Space0
  1

  0
ENDBLK
  5
25
100
AcDbEntity
  8
0
100
AcDbBlockEnd
  0
BLOCK
  5
50
100
AcDbEntity
  8
0
100
AcDbBlockBegin
  2
4mm-Gesenkt-U
 70
0
 10
0.0
 20
0.0
 30
0.0
  3
4mm-Gesenkt-U
  1

  0
CIRCLE
  5
51
100
AcDbEntity
100
AcDbCircle
  8
Bohrungen
 62
256
370
-1
  6
ByLayer
 10
0.0
 20
0.0
 30
0.0
 40
2.0
  0
CIRCLE
  5
52
100
AcDbEntity
100
AcDbCircle
  8
Bohrungen
 62
256
370
9
  6
ByLayer
 10
0.0
 20
0.0
 30
0.0
 40
4.0
  0
LINE
  5
53
100
AcDbEntity
100
AcDbLine
  8
Bohrungen
 62
256
370
13
  6
ByLayer
 10
-3.0
 20
0.0
 30
0.0
 11
3.0
 21
0.0
 31
0.0
  0
LINE
  5
54
100
AcDbEntity
100
AcDbLine
  8
Bohrungen
 62
256
370
13
  6
ByLayer
 10
0.0
 20
3.0
 30
0.0
 11
0.0
 21
-3.0
 31
0.0
  0
LINE
  5
55
100
AcDbEntity
100
AcDbLine
  8
Bohrungen
 62
256
370
9
  6
ByLayer
 10
-2.0
 20
-2.0
 30
0.0
 11
0.0
 21
0.0
 31
0.0
  0
LINE
  5
56
100
AcDbEntity
100
AcDbLine
  8
Bohrungen
 62
256
370
9
  6
ByLayer
 10
0.0
 20
0.0
 30
0.0
 11
2.0
 21
-2.0
 31
0.0
  0
ENDBLK
  5
57
100
AcDbEntity
  8
0
100
AcDbBlockEnd
  0
BLOCK
  5
58
100
AcDbEntity
  8
0
100
AcDbBlockBegin
  2
6mm-Gesenkt-O
 70
0
 10
0.0
 20
0.0
 30
0.0
  3
6mm-Gesenkt-O
  1

  0
CIRCLE
  5
59
100
AcDbEntity
100
AcDbCircle
  8
Bohrungen
 62
256
370
13
  6
ByLayer
 10
0.0
 20
0.0
 30
0.0
 40
3.0
  0
CIRCLE
  5
5A
100
AcDbEntity
100
AcDbCircle
  8
Bohrungen
 62
256
370
9
  6
ByLayer
 10
0.0
 20
0.0
 30
0.0
 40
6.0
  0
LINE
  5
5B
100
AcDbEntity
100
AcDbLine
  8
Bohrungen
 62
256
370
13
  6
ByLayer
 10
-5.0
 20
0.0
 30
0.0
 11
5.0
 21
0.0
 31
0.0
  0
LINE
  5
5C
100
AcDbEntity
100
AcDbLine
  8
Bohrungen
 62
256
370
13
  6
ByLayer
 10
0.0
 20
5.0
 30
0.0
 11
0.0
 21
-5.0
 31
0.0
  0
LINE
  5
5D
100
AcDbEntity
100
AcDbLine
  8
Bohrungen
 62
256
370
9
  6
ByLayer
 10
-3.0
 20
3.0
 30
0.0
 11
0.0
 21
0.0
 31
0.0
  0
LINE
  5
5E
100
AcDbEntity
100
AcDbLine
  8
Bohrungen
 62
256
370
9
  6
ByLayer
 10
0.0
 20
0.0
 30
0.0
 11
3.0
 21
3.0
 31
0.0
  0
ENDBLK
  5
5F
100
AcDbEntity
  8
0
100
AcDbBlockEnd
  0
BLOCK
  5
60
100
AcDbEntity
  8
0
100
AcDbBlockBegin
  2
U-Scheibe-M6x18
 70
0
 10
0.0
 20
0.0
 30
0.0
  3
U-Scheibe-M6x18
  1

  0
CIRCLE
  5
61
100
AcDbEntity
100
AcDbCircle
  8
U-Scheibe
 62
256
370
-1
  6
ByLayer
 10
0.0
 20
0.0
 30
0.0
 40
9.0
  0
CIRCLE
  5
62
100
AcDbEntity
100
AcDbCircle
  8
U-Scheibe
 62
256
370
-1
  6
ByLayer
 10
0.0
 20
0.0
 30
0.0
 40
3.2000000000000002
  0
ENDBLK
  5
63
100
AcDbEntity
  8
0
100
AcDbBlockEnd
  0
ENDSEC
  0
SECTION
  2
ENTITIES
  0
HATCH
  5
64
  8
Holz
 62
256
370
-1
  6
ByLayer
100
AcDbEntity
100
AcDbHatch
 10
0.0
 20
0.0
 30
0.0
210
0.0
220
0.0
230
1.0
  2
ANSI31
 70
0
 71
0
 91
1
 92
1
 93
4
 72
1
 10
18.0
 20
2.9999999999999964
 11
18.000000000000032
 21
498.0
 72
1
 10
18.0
 20
498.0
 11
3.0000000000000306
 21
498.0
 72
1
 10
3.0000000000000306
 20
498.0
 11
3.0000000000000009
 21
3.0
 72
1
 10
3.0000000000000009
 20
3.0
 11
18.0
 21
3.0
 97
0
 75
0
 76
1
 52
0.0
 41
1.0
 77
0
 78
1
 53
45.0
 43
0.0
 44
0.0
 45
-0.0883883476483184
 46
0.0883883476483185
 79
0
 98
0
  0
HATCH
  5
65
  8
Holz
 62
256
370
-1
  6
ByLayer
100
AcDbEntity
100
AcDbHatch
 10
0.0
 20
0.0
 30
0.0
210
0.0
220
0.0
230
1.0
  2
ANSI31
 70
0
 71
0
 91
1
 92
1
 93
4
 72
1
 10
858.0
 20
3.0000000000000022
 11
858.0
 21
498.0
 72
1
 10
858.0
 20
498.0
 11
873.0
 21
498.0
 72
1
 10
873.0
 20
498.0
 11
873.0
 21
3.0000000000000004
 72
1
 10
873.0
 20
3.0000000000000004
 11
858.0
 21
3.0000000000000004
 97
0
 75
0
 76
1
 52
0.0
 41
1.0
 77
0
 78
1
 53
45.0
 43
0.0
 44
0.0
 45
-0.0883883476483184
 46
0.0883883476483185
 79
0
 98
0
  0
HATCH
  5
66
  8
Holz
 62
256
370
-1
  6
ByLayer
100
AcDbEntity
100
AcDbHatch
 10
0.0
 20
0.0
 30
0.0
210
0.0
220
0.0
230
1.0
  2
ANSI31
 70
0
 71
0
 91
1
 92
1
 93
4
 72
1
 10
548.0
 20
482.9999999999999432
 11
563.0
 21
482.9999999999999432
 72
1
 10
563.0
 20
482.9999999999999432
 11
563.0
 21
3.0
 72
1
 10
563.0
 20
3.0
 11
548.0
 21
3.0
 72
1
 10
548.0
 20
3.0
 11
548.0
 21
483.0
 97
0
 75
0
 76
1
 52
0.0
 41
1.0
 77
0
 78
1
 53
45.0
 43
0.0
 44
0.0
 45
-0.0883883476483184
 46
0.0883883476483185
 79
0
 98
0
  0
HATCH
  5
67
  8
Holz
 62
256
370
-1
  6
ByLayer
100
AcDbEntity
100
AcDbHatch
 10
0.0
 20
0.0
 30
0.0
210
0.0
220
0.0
230
1.0
  2
ANSI31
 70
0
 71
0
 91
1
 92
1
 93
4
 72
1
 10
328.0000000000000568
 20
483.0
 11
328.0
 21
3.0
 72
1
 10
328.0
 20
3.0
 11
313.0
 21
3.0
 72
1
 10
313.0
 20
3.0
 11
313.0000000000001137
 21
483.0
 72
1
 10
313.0000000000001137
 20
483.0
 11
328.0000000000001137
 21
483.0
 97
0
 75
0
 76
1
 52
0.0
 41
1.0
 77
0
 78
1
 53
45.0
 43
0.0
 44
0.0
 45
-0.0883883476483184
 46
0.0883883476483185
 79
0
 98
0
  0
HATCH
  5
68
  8
Holz
 62
256
370
-1
  6
ByLayer
100
AcDbEntity
100
AcDbHatch
 10
0.0
 20
0.0
 30
0.0
210
0.0
220
0.0
230
1.0
  2
ANSI31
 70
0
 71
0
 91
1
 92
1
 93
4
 72
1
 10
858.0
 20
483.0
 11
858.0
 21
498.0
 72
1
 10
858.0
 20
498.0
 11
18.000000000000032
 21
498.0
 72
1
 10
18.000000000000032
 20
498.0
 11
18.000000000000032
 21
483.0
 72
1
 10
18.0000000000000284
 20
483.0
 11
858.0
 21
483.0
 97
0
 75
0
 76
1
 52
0.0
 41
1.0
 77
0
 78
1
 53
45.0
 43
0.0
 44
0.0
 45
-0.0883883476483184
 46
0.0883883476483185
 79
0
 98
0
  0
LINE
  5
69
100
AcDbEntity
100
AcDbLine
  8
0.18
 62
256
370
-1
  6
ByLayer
 10
0.0
 20
0.0
 30
0.0
 11
876.0
 21
0.0
 31
0.0
  0
LINE
  5
6A
100
AcDbEntity
100
AcDbLine
  8
0.18
 62
256
370
-1
  6
ByLayer
 10
30.0000000000000071
 20
30.0
 30
0.0
 11
846.0
 21
30.0
 31
0.0
  0
LINE
  5
6B
100
AcDbEntity
100
AcDbLine
  8
0.13
 62
256
370
-1
  6
ByLayer
 10
3.0
 20
3.0
 30
0.0
 11
873.0
 21
3.0
 31
0.0
  0
LINE
  5
6C
100
AcDbEntity
100
AcDbLine
  8
0.18
 62
256
370
-1
  6
ByLayer
 10
0.0
 20
0.0
 30
0.0
 11
30.0000000000000071
 21
30.0
 31
0.0
  0
LINE
  5
6D
100
AcDbEntity
100
AcDbLine
  8
0.18
 62
256
370
-1
  6
ByLayer
 10
846.0
 20
30.0
 30
0.0
 11
876.0
 21
0.0
 31
0.0
  0
LINE
  5
6E
100
AcDbEntity
100
AcDbLine
  8
0.18
 62
256
370
-1
  6
ByLayer
 10
0.0
 20
0.0
 30
0.0
 11
0.0000000000000307
 21
501.0
 31
0.0
  0
LINE
  5
6F
100
AcDbEntity
100
AcDbLine
  8
0.18
 62
256
370
-1
  6
ByLayer
 10
876.0
 20
0.0
 30
0.0
 11
876.0
 21
501.0
 31
0.0
  0
LINE
  5
70
100
AcDbEntity
100
AcDbLine
  8
0.18
 62
256
370
-1
  6
ByLayer
 10
0.0000000000000307
 20
501.0
 30
0.0
 11
876.0
 21
501.0
 31
0.0
  0
LINE
  5
71
100
AcDbEntity
100
AcDbLine
  8
0.18
 62
256
370
-1
  6
ByLayer
 10
30.0000000000000284
 20
471.0
 30
0.0
 11
846.0
 21
471.0
 31
0.0
  0
LINE
  5
72
100
AcDbEntity
100
AcDbLine
  8
0.18
 62
256
370
-1
  6
ByLayer
 10
846.0
 20
471.0
 30
0.0
 11
846.0
 21
30.0
 31
0.0
  0
LINE
  5
73
100
AcDbEntity
100
AcDbLine
  8
0.18
 62
256
370
-1
  6
ByLayer
 10
846.0
 20
30.0
 30
0.0
 11
30.0000000000000036
 21
30.0000000000000036
 31
0.0
  0
LINE
  5
74
100
AcDbEntity
100
AcDbLine
  8
0.18
 62
256
370
-1
  6
ByLayer
 10
30.0000000000000036
 20
30.0000000000000036
 30
0.0
 11
30.0000000000000284
 21
471.0
 31
0.0
  0
LINE
  5
75
100
AcDbEntity
100
AcDbLine
  8
0.18
 62
256
370
-1
  6
ByLayer
 10
0.0000000000000307
 20
501.0
 30
0.0
 11
30.0000000000000284
 21
471.0
 31
0.0
  0
LINE
  5
76
100
AcDbEntity
100
AcDbLine
  8
0.18
 62
256
370
-1
  6
ByLayer
 10
876.0
 20
501.0
 30
0.0
 11
846.0
 21
471.0
 31
0.0
  0
LINE
  5
77
100
AcDbEntity
100
AcDbLine
  8
0.13
 62
256
370
-1
  6
ByLayer
 10
873.0
 20
498.0
 30
0.0
 11
3.0000000000000306
 21
498.0
 31
0.0
  0
LINE
  5
78
100
AcDbEntity
100
AcDbLine
  8
0.13
 62
256
370
-1
  6
ByLayer
 10
3.0000000000000009
 20
3.0
 30
0.0
 11
873.0
 21
3.0000000000000004
 31
0.0
  0
LINE
  5
79
100
AcDbEntity
100
AcDbLine
  8
0.13
 62
256
370
-1
  6
ByLayer
 10
873.0
 20
3.0000000000000004
 30
0.0
 11
873.0
 21
498.0
 31
0.0
  0
LINE
  5
7A
100
AcDbEntity
100
AcDbLine
  8
0.13
 62
256
370
-1
  6
ByLayer
 10
3.0000000000000009
 20
3.0
 30
0.0
 11
3.0000000000000306
 21
498.0
 31
0.0
  0
LINE
  5
7B
100
AcDbEntity
100
AcDbLine
  8
0.18
 62
256
370
-1
  6
ByLayer
 10
448.0
 20
471.0
 30
0.0
 11
448.0
 21
29.9999999999999964
 31
0.0
  0
LINE
  5
7C
100
AcDbEntity
100
AcDbLine
  8
0.18
 62
256
370
-1
  6
ByLayer
 10
428.0
 20
471.0
 30
0.0
 11
428.0
 21
30.0000000000000036
 31
0.0
  0
LINE
  5
7D
100
AcDbEntity
100
AcDbLine
  8
0.18
 62
256
370
-1
  6
ByLayer
 10
428.0
 20
471.0
 30
0.0
 11
448.0
 21
471.0
 31
0.0
  0
LINE
  5
7E
100
AcDbEntity
100
AcDbLine
  8
0.18
 62
256
370
-1
  6
ByLayer
 10
428.0
 20
30.0
 30
0.0
 11
447.9999999999999432
 21
30.0
 31
0.0
  0
LINE
  5
7F
100
AcDbEntity
100
AcDbLine
  8
Holz
 62
256
370
-1
  6
ByLayer
 10
18.0
 20
2.9999999999999964
 30
0.0
 11
18.000000000000032
 21
498.0
 31
0.0
  0
LINE
  5
80
100
AcDbEntity
100
AcDbLine
  8
Holz
 62
256
370
-1
  6
ByLayer
 10
858.0
 20
483.0
 30
0.0
 11
858.0
 21
498.0
 31
0.0
  0
LINE
  5
81
100
AcDbEntity
100
AcDbLine
  8
Holz
 62
256
370
-1
  6
ByLayer
 10
858.0
 20
498.0
 30
0.0
 11
18.000000000000032
 21
498.0
 31
0.0
  0
LINE
  5
82
100
AcDbEntity
100
AcDbLine
  8
Holz
 62
256
370
-1
  6
ByLayer
 10
18.000000000000032
 20
498.0
 30
0.0
 11
18.000000000000032
 21
483.0
 31
0.0
  0
LINE
  5
83
100
AcDbEntity
100
AcDbLine
  8
Holz
 62
256
370
-1
  6
ByLayer
 10
858.0
 20
498.0
 30
0.0
 11
873.0
 21
498.0
 31
0.0
  0
LINE
  5
84
100
AcDbEntity
100
AcDbLine
  8
Holz
 62
256
370
-1
  6
ByLayer
 10
873.0
 20
498.0
 30
0.0
 11
873.0
 21
3.0000000000000004
 31
0.0
  0
LINE
  5
85
100
AcDbEntity
100
AcDbLine
  8
Holz
 62
256
370
-1
  6
ByLayer
 10
873.0
 20
3.0000000000000004
 30
0.0
 11
858.0
 21
3.0000000000000004
 31
0.0
  0
LINE
  5
86
100
AcDbEntity
100
AcDbLine
  8
Holz
 62
256
370
-1
  6
ByLayer
 10
18.0
 20
3.0
 30
0.0
 11
3.0000000000000009
 21
3.0
 31
0.0
  0
LINE
  5
87
100
AcDbEntity
100
AcDbLine
  8
Holz
 62
256
370
-1
  6
ByLayer
 10
3.0000000000000009
 20
3.0
 30
0.0
 11
3.0000000000000306
 21
498.0
 31
0.0
  0
LINE
  5
88
100
AcDbEntity
100
AcDbLine
  8
Holz
 62
256
370
-1
  6
ByLayer
 10
3.0000000000000306
 20
498.0
 30
0.0
 11
18.0
 21
498.0
 31
0.0
  0
LINE
  5
89
100
AcDbEntity
100
AcDbLine
  8
Holz
 62
256
370
-1
  6
ByLayer
 10
548.0
 20
482.9999999999999432
 30
0.0
 11
563.0
 21
482.9999999999999432
 31
0.0
  0
LINE
  5
8A
100
AcDbEntity
100
AcDbLine
  8
Holz
 62
256
370
-1
  6
ByLayer
 10
563.0
 20
482.9999999999999432
 30
0.0
 11
563.0
 21
3.0
 31
0.0
  0
LINE
  5
8B
100
AcDbEntity
100
AcDbLine
  8
Holz
 62
256
370
-1
  6
ByLayer
 10
563.0
 20
3.0
 30
0.0
 11
548.0
 21
3.0
 31
0.0
  0
LINE
  5
8C
100
AcDbEntity
100
AcDbLine
  8
Holz
 62
256
370
-1
  6
ByLayer
 10
548.0
 20
3.0
 30
0.0
 11
548.0
 21
483.0
 31
0.0
  0
LINE
  5
8D
100
AcDbEntity
100
AcDbLine
  8
Holz
 62
256
370
-1
  6
ByLayer
 10
328.0000000000000568
 20
483.0
 30
0.0
 11
328.0
 21
3.0
 31
0.0
  0
LINE
  5
8E
100
AcDbEntity
100
AcDbLine
  8
Holz
 62
256
370
-1
  6
ByLayer
 10
328.0
 20
3.0
 30
0.0
 11
313.0
 21
3.0
 31
0.0
  0
LINE
  5
8F
100
AcDbEntity
100
AcDbLine
  8
Holz
 62
256
370
-1
  6
ByLayer
 10
313.0
 20
3.0
 30
0.0
 11
313.0000000000001137
 21
483.0
 31
0.0
  0
LINE
  5
90
100
AcDbEntity
100
AcDbLine
  8
Holz
 62
256
370
-1
  6
ByLayer
 10
313.0000000000001137
 20
483.0
 30
0.0
 11
328.0000000000001137
 21
483.0
 31
0.0
  0
LINE
  5
91
100
AcDbEntity
100
AcDbLine
  8
HolzSchraffur
 62
256
370
-1
  6
ByLayer
 10
18.0
 20
3.0
 30
0.0
 11
3.0
 21
3.0
 31
0.0
  0
LINE
  5
92
100
AcDbEntity
100
AcDbLine
  8
HolzSchraffur
 62
256
370
-1
  6
ByLayer
 10
3.0
 20
3.0
 30
0.0
 11
3.0
 21
498.0
 31
0.0
  0
LINE
  5
93
100
AcDbEntity
100
AcDbLine
  8
HolzSchraffur
 62
256
370
-1
  6
ByLayer
 10
3.0
 20
498.0
 30
0.0
 11
18.0
 21
498.0
 31
0.0
  0
LINE
  5
94
100
AcDbEntity
100
AcDbLine
  8
HolzSchraffur
 62
256
370
-1
  6
ByLayer
 10
18.0
 20
498.0
 30
0.0
 11
18.0
 21
3.0
 31
0.0
  0
LINE
  5
95
100
AcDbEntity
100
AcDbLine
  8
HolzSchraffur
 62
256
370
-1
  6
ByLayer
 10
18.0
 20
498.0
 30
0.0
 11
858.0
 21
498.0
 31
0.0
  0
LINE
  5
96
100
AcDbEntity
100
AcDbLine
  8
HolzSchraffur
 62
256
370
-1
  6
ByLayer
 10
858.0
 20
498.0
 30
0.0
 11
858.0
 21
483.0
 31
0.0
  0
LINE
  5
97
100
AcDbEntity
100
AcDbLine
  8
HolzSchraffur
 62
256
370
-1
  6
ByLayer
 10
858.0
 20
483.0
 30
0.0
 11
18.0
 21
483.0
 31
0.0
  0
LINE
  5
98
100
AcDbEntity
100
AcDbLine
  8
HolzSchraffur
 62
256
370
-1
  6
ByLayer
 10
18.0
 20
483.0
 30
0.0
 11
18.0
 21
498.0
 31
0.0
  0
LINE
  5
99
100
AcDbEntity
100
AcDbLine
  8
HolzSchraffur
 62
256
370
-1
  6
ByLayer
 10
858.0
 20
498.0
 30
0.0
 11
873.0
 21
498.0
 31
0.0
  0
LINE
  5
9A
100
AcDbEntity
100
AcDbLine
  8
HolzSchraffur
 62
256
370
-1
  6
ByLayer
 10
873.0
 20
498.0
 30
0.0
 11
873.0
 21
3.0
 31
0.0
  0
LINE
  5
9B
100
AcDbEntity
100
AcDbLine
  8
HolzSchraffur
 62
256
370
-1
  6
ByLayer
 10
873.0
 20
3.0
 30
0.0
 11
858.0
 21
3.0
 31
0.0
  0
LINE
  5
9C
100
AcDbEntity
100
AcDbLine
  8
HolzSchraffur
 62
256
370
-1
  6
ByLayer
 10
858.0
 20
3.0
 30
0.0
 11
858.0
 21
498.0
 31
0.0
  0
LINE
  5
9D
100
AcDbEntity
100
AcDbLine
  8
HolzSchraffur
 62
256
370
-1
  6
ByLayer
 10
313.0000000000001137
 20
483.0
 30
0.0
 11
328.0
 21
483.0
 31
0.0
  0
LINE
  5
9E
100
AcDbEntity
100
AcDbLine
  8
HolzSchraffur
 62
256
370
-1
  6
ByLayer
 10
328.0
 20
483.0
 30
0.0
 11
328.0
 21
3.0
 31
0.0
  0
LINE
  5
9F
100
AcDbEntity
100
AcDbLine
  8
HolzSchraffur
 62
256
370
-1
  6
ByLayer
 10
328.0
 20
3.0
 30
0.0
 11
313.0000000000001137
 21
3.0
 31
0.0
  0
LINE
  5
A0
100
AcDbEntity
100
AcDbLine
  8
HolzSchraffur
 62
256
370
-1
  6
ByLayer
 10
313.0000000000001137
 20
3.0
 30
0.0
 11
313.0000000000001137
 21
483.0
 31
0.0
  0
LINE
  5
A1
100
AcDbEntity
100
AcDbLine
  8
HolzSchraffur
 62
256
370
-1
  6
ByLayer
 10
548.0
 20
3.0000000000000004
 30
0.0
 11
563.0
 21
3.0000000000000004
 31
0.0
  0
LINE
  5
A2
100
AcDbEntity
100
AcDbLine
  8
HolzSchraffur
 62
256
370
-1
  6
ByLayer
 10
563.0
 20
3.0000000000000004
 30
0.0
 11
563.0
 21
482.9999999999999432
 31
0.0
  0
LINE
  5
A3
100
AcDbEntity
100
AcDbLine
  8
HolzSchraffur
 62
256
370
-1
  6
ByLayer
 10
563.0
 20
482.9999999999999432
 30
0.0
 11
548.0
 21
482.9999999999999432
 31
0.0
  0
LINE
  5
A4
100
AcDbEntity
100
AcDbLine
  8
HolzSchraffur
 62
256
370
-1
  6
ByLayer
 10
548.0
 20
482.9999999999999432
 30
0.0
 11
548.0
 21
3.0000000000000004
 31
0.0
  0
LINE
  5
A5
100
AcDbEntity
100
AcDbLine
  8
Holz
 62
256
370
-1
  6
ByLayer
 10
858.0
 20
483.0
 30
0.0
 11
18.0000000000000284
 21
483.0
 31
0.0
  0
LINE
  5
A6
100
AcDbEntity
100
AcDbLine
  8
Holz
 62
256
370
-1
  6
ByLayer
 10
858.0
 20
498.0
 30
0.0
 11
858.0
 21
483.0
 31
0.0
  0
LINE
  5
A7
100
AcDbEntity
100
AcDbLine
  8
Holz
 62
256
370
-1
  6
ByLayer
 10
858.0
 20
498.0
 30
0.0
 11
858.0
 21
3.0000000000000004
 31
0.0
  0
LINE
  5
A8
100
AcDbEntity
100
AcDbLine
  8
HilfRT
 62
256
370
-1
  6
ByLayer
 10
0.0000000000000298
 20
496.0
 30
0.0
 11
876.0
 21
496.0
 31
0.0
  0
LINE
  5
A9
100
AcDbEntity
100
AcDbLine
  8
HilfRT
 62
256
370
-1
  6
ByLayer
 10
5.0
 20
-0.0000000000000012
 30
0.0
 11
5.0000000000000311
 21
501.0
 31
0.0
  0
LINE
  5
AA
100
AcDbEntity
100
AcDbLine
  8
HilfRT
 62
256
370
-1
  6
ByLayer
 10
120.0
 20
-0.0000000000000294
 30
0.0
 11
120.0000000000000284
 21
501.0
 31
0.0
  0
LINE
  5
AB
100
AcDbEntity
100
AcDbLine
  8
HilfRT
 62
256
370
-1
  6
ByLayer
 10
0.0000000000000141
 20
411.0
 30
0.0
 11
876.0
 21
411.0
 31
0.0
  0
LINE
  5
AC
100
AcDbEntity
100
AcDbLine
  8
HilfRT
 62
256
370
-1
  6
ByLayer
 10
871.0
 20
0.0000000000000006
 30
0.0
 11
871.0
 21
501.0
 31
0.0
  0
LINE
  5
AD
100
AcDbEntity
100
AcDbLine
  8
HilfRT
 62
256
370
-1
  6
ByLayer
 10
0.0000000000000003
 20
5.0
 30
0.0
 11
876.0
 21
5.0
 31
0.0
  0
LINE
  5
AE
100
AcDbEntity
100
AcDbLine
  8
HilfRT
 62
256
370
-1
  6
ByLayer
 10
756.0
 20
0.0000000000000147
 30
0.0
 11
756.0
 21
501.0
 31
0.0
  0
LINE
  5
AF
100
AcDbEntity
100
AcDbLine
  8
HilfRT
 62
256
370
-1
  6
ByLayer
 10
0.0000000000000055
 20
90.0
 30
0.0
 11
876.0
 21
90.0
 31
0.0
  0
LINE
  5
B0
100
AcDbEntity
100
AcDbLine
  8
HilfRT
 62
256
370
9
  6
ByLayer
 10
438.0
 20
501.0
 30
0.0
 11
438.0
 21
0.0
 31
0.0
  0
DIMENSION
  5
B1
100
AcDbEntity
  8
Bemassung
 62
256
370
9
  6
ByLayer
100
AcDbDimension
 10
479.9999999999999432
 20
29.9999999999999893
 30
0.0
 11
471.9999999999999432
 21
250.5
 31
0.0
 70
1
 71
5
 72
0
 41
1.0
 42
0.0
  1

  3
Standard
100
AcDbAlignedDimension
 13
448.0
 23
471.0
 33
0.0
 14
448.0
 24
29.9999999999999964
 34
0.0
  0
DIMENSION
  5
B2
100
AcDbEntity
  8
Bemassung
 62
256
370
9
  6
ByLayer
100
AcDbDimension
 10
900.0
 20
471.0
 30
0.0
 11
892.0
 21
250.5
 31
0.0
 70
1
 71
5
 72
0
 41
1.0
 42
0.0
  1

  3
Standard
100
AcDbAlignedDimension
 13
846.0
 23
30.0
 33
0.0
 14
846.0
 24
471.0
 34
0.0
  0
LINE
  5
B3
100
AcDbEntity
100
AcDbLine
  8
HilfRT
 62
256
370
9
  6
ByLayer
 10
0.0000000000000306
 20
500.5
 30
0.0
 11
876.0
 21
500.5
 31
0.0
  0
LINE
  5
B4
100
AcDbEntity
100
AcDbLine
  8
HilfRT
 62
256
370
9
  6
ByLayer
 10
0.0
 20
0.5
 30
0.0
 11
876.0
 21
0.5
 31
0.0
  0
LINE
  5
B5
100
AcDbEntity
100
AcDbLine
  8
HilfBL
 62
256
370
9
  6
ByLayer
 10
-0.0000000000000613
 20
0.5
 30
0.0
 11
876.0
 21
0.5
 31
0.0
  0
LINE
  5
B6
100
AcDbEntity
100
AcDbLine
  8
HilfBL
 62
256
370
-1
  6
DASHED
 10
-0.0000000000000031
 20
350.5
 30
0.0
 11
876.0
 21
350.5
 31
0.0
  0
LINE
  5
B7
100
AcDbEntity
100
AcDbLine
  8
HilfBL
 62
256
370
-1
  6
DASHED
 10
-0.0000000000000215
 20
250.5
 30
0.0
 11
876.0
 21
250.5
 31
0.0
  0
LINE
  5
B8
100
AcDbEntity
100
AcDbLine
  8
HilfBL
 62
256
370
-1
  6
DASHED
 10
-0.0000000000000398
 20
150.5
 30
0.0
 11
876.0
 21
150.5
 31
0.0
  0
LINE
  5
B9
100
AcDbEntity
100
AcDbLine
  8
HilfRT
 62
256
370
-1
  6
DASHED
 10
15.0000000000000036
 20
30.0000000000000071
 30
0.0
 11
15.0000000000000284
 21
471.0
 31
0.0
  0
LINE
  5
BA
100
AcDbEntity
100
AcDbLine
  8
HilfRT
 62
256
370
-1
  6
DASHED
 10
30.0000000000000284
 20
486.0
 30
0.0
 11
846.0
 21
486.0
 31
0.0
  0
LINE
  5
BB
100
AcDbEntity
100
AcDbLine
  8
HilfRT
 62
256
370
-1
  6
DASHED
 10
30.0000000000000036
 20
15.0
 30
0.0
 11
846.0
 21
15.0
 31
0.0
  0
LINE
  5
BC
100
AcDbEntity
100
AcDbLine
  8
HilfRT
 62
256
370
-1
  6
DASHED
 10
861.0
 20
471.0
 30
0.0
 11
861.0
 21
29.9999999999999964
 31
0.0
  0
LINE
  5
BD
100
AcDbEntity
100
AcDbLine
  8
HilfBL
 62
256
370
-1
  6
ByLayer
 10
313.0
 20
501.0000000000000568
 30
0.0
 11
313.0
 21
0.0000000000000459
 31
0.0
  0
LINE
  5
BE
100
AcDbEntity
100
AcDbLine
  8
HilfBL
 62
256
370
-1
  6
ByLayer
 10
563.0
 20
500.9999999999999432
 30
0.0
 11
563.0
 21
-0.0000000000000306
 31
0.0
  0
LINE
  5
BF
100
AcDbEntity
100
AcDbLine
  8
HilfBL
 62
256
370
-1
  6
ByLayer
 10
188.0
 20
501.0000000000001137
 30
0.0
 11
188.0
 21
0.0000000000000918
 31
0.0
  0
LINE
  5
C0
100
AcDbEntity
100
AcDbLine
  8
HilfBL
 62
256
370
-1
  6
ByLayer
 10
688.0
 20
500.9999999999998863
 30
0.0
 11
688.0
 21
-0.0000000000000612
 31
0.0
  0
INSERT
  5
C1
100
AcDbEntity
100
AcDbBlockReference
  8
Bohrungen
 62
256
370
-1
  6
ByLayer
  2
4mm-Gesenkt-U
 10
188.0
 20
486.0
 30
0.0
 44
1.0
 45
1.0
  0
INSERT
  5
C2
100
AcDbEntity
100
AcDbBlockReference
  8
Bohrungen
 62
256
370
-1
  6
ByLayer
  2
4mm-Gesenkt-U
 10
313.0
 20
486.0
 30
0.0
 44
1.0
 45
1.0
  0
INSERT
  5
C3
100
AcDbEntity
100
AcDbBlockReference
  8
Bohrungen
 62
256
370
-1
  6
ByLayer
  2
4mm-Gesenkt-U
 10
438.0
 20
486.0
 30
0.0
 44
1.0
 45
1.0
  0
INSERT
  5
C4
100
AcDbEntity
100
AcDbBlockReference
  8
Bohrungen
 62
256
370
-1
  6
ByLayer
  2
4mm-Gesenkt-U
 10
563.0
 20
486.0
 30
0.0
 44
1.0
 45
1.0
  0
INSERT
  5
C5
100
AcDbEntity
100
AcDbBlockReference
  8
Bohrungen
 62
256
370
-1
  6
ByLayer
  2
4mm-Gesenkt-U
 10
688.0
 20
486.0
 30
0.0
 44
1.0
 45
1.0
  0
INSERT
  5
C6
100
AcDbEntity
100
AcDbBlockReference
  8
Bohrungen
 62
256
370
-1
  6
ByLayer
  2
4mm-Gesenkt-U
 10
188.0
 20
15.0
 30
0.0
 44
1.0
 45
1.0
  0
INSERT
  5
C7
100
AcDbEntity
100
AcDbBlockReference
  8
Bohrungen
 62
256
370
-1
  6
ByLayer
  2
4mm-Gesenkt-U
 10
313.0
 20
15.0
 30
0.0
 44
1.0
 45
1.0
  0
INSERT
  5
C8
100
AcDbEntity
100
AcDbBlockReference
  8
Bohrungen
 62
256
370
-1
  6
ByLayer
  2
4mm-Gesenkt-U
 10
438.0
 20
15.0
 30
0.0
 44
1.0
 45
1.0
  0
INSERT
  5
C9
100
AcDbEntity
100
AcDbBlockReference
  8
Bohrungen
 62
256
370
-1
  6
ByLayer
  2
4mm-Gesenkt-U
 10
563.0
 20
15.0
 30
0.0
 44
1.0
 45
1.0
  0
INSERT
  5
CA
100
AcDbEntity
100
AcDbBlockReference
  8
Bohrungen
 62
256
370
-1
  6
ByLayer
  2
4mm-Gesenkt-U
 10
688.0
 20
15.0
 30
0.0
 44
1.0
 45
1.0
  0
INSERT
  5
CB
100
AcDbEntity
100
AcDbBlockReference
  8
Bohrungen
 62
256
370
-1
  6
ByLayer
  2
4mm-Gesenkt-U
 10
438.0
 20
250.5
 30
0.0
 44
1.0
 45
1.0
  0
INSERT
  5
CC
100
AcDbEntity
100
AcDbBlockReference
  8
Bohrungen
 62
256
370
-1
  6
ByLayer
  2
4mm-Gesenkt-U
 10
438.0
 20
350.5
 30
0.0
 44
1.0
 45
1.0
  0
INSERT
  5
CD
100
AcDbEntity
100
AcDbBlockReference
  8
Bohrungen
 62
256
370
-1
  6
ByLayer
  2
4mm-Gesenkt-U
 10
438.0
 20
150.5
 30
0.0
 44
1.0
 45
1.0
  0
INSERT
  5
CE
100
AcDbEntity
100
AcDbBlockReference
  8
Bohrungen
 62
256
370
-1
  6
DASHED
  2
4mm-Gesenkt-U
 10
15.0000000000000195
 20
350.5
 30
0.0
 44
1.0
 45
1.0
  0
INSERT
  5
CF
100
AcDbEntity
100
AcDbBlockReference
  8
Bohrungen
 62
256
370
-1
  6
DASHED
  2
4mm-Gesenkt-U
 10
15.000000000000016
 20
250.5
 30
0.0
 44
1.0
 45
1.0
  0
INSERT
  5
D0
100
AcDbEntity
100
AcDbBlockReference
  8
Bohrungen
 62
256
370
-1
  6
DASHED
  2
4mm-Gesenkt-U
 10
15.0000000000000107
 20
150.5
 30
0.0
 44
1.0
 45
1.0
  0
INSERT
  5
D1
100
AcDbEntity
100
AcDbBlockReference
  8
Bohrungen
 62
256
370
-1
  6
DASHED
  2
4mm-Gesenkt-U
 10
861.0
 20
350.5
 30
0.0
 44
1.0
 45
1.0
  0
INSERT
  5
D2
100
AcDbEntity
100
AcDbBlockReference
  8
Bohrungen
 62
256
370
-1
  6
DASHED
  2
4mm-Gesenkt-U
 10
861.0
 20
250.5
 30
0.0
 44
1.0
 45
1.0
  0
INSERT
  5
D3
100
AcDbEntity
100
AcDbBlockReference
  8
Bohrungen
 62
256
370
-1
  6
DASHED
  2
4mm-Gesenkt-U
 10
861.0
 20
150.5
 30
0.0
 44
1.0
 45
1.0
  0
DIMENSION
  5
D4
100
AcDbEntity
  8
Bemassung
 62
256
370
-1
  6
ByLayer
100
AcDbDimension
 10
447.9999999999999432
 20
60.0
 30
0.0
 11
438.0
 21
68.0
 31
0.0
 70
0
 71
5
 72
0
 41
1.0
 42
0.0
  1

  3
Standard
100
AcDbAlignedDimension
 13
428.0
 23
30.0
 33
0.0
 14
447.9999999999999432
 24
30.0
 34
0.0
 50
0.0
100
AcDbRotatedDimension
  0
DIMENSION
  5
D5
100
AcDbEntity
  8
Bemassung
 62
256
370
-1
  6
ByLayer
100
AcDbDimension
 10
0.0000000000000018
 20
60.0
 30
0.0
 11
14.9999999999999982
 21
68.0
 31
0.0
 70
0
 71
5
 72
0
 41
1.0
 42
0.0
  1

  3
Standard
100
AcDbAlignedDimension
 13
30.0
 23
30.0
 33
0.0
 14
0.0
 24
30.0
 34
0.0
 50
0.0
100
AcDbRotatedDimension
  0
DIMENSION
  5
D6
100
AcDbEntity
  8
Bemassung
 62
256
370
-1
  6
ByLayer
100
AcDbDimension
 10
14.9999999999999982
 20
330.0
 30
0.0
 11
22.5
 21
338.0
 31
0.0
 70
0
 71
5
 72
0
 41
1.0
 42
0.0
  1

  3
Standard
100
AcDbAlignedDimension
 13
30.0
 23
350.0
 33
0.0
 14
15.0
 24
350.0
 34
0.0
 50
0.0
100
AcDbRotatedDimension
  0
DIMENSION
  5
D7
100
AcDbEntity
  8
Bemassung
 62
256
370
-1
  6
ByLayer
100
AcDbDimension
 10
438.0
 20
330.0
 30
0.0
 11
433.0
 21
338.0
 31
0.0
 70
0
 71
5
 72
0
 41
1.0
 42
0.0
  1

  3
Standard
100
AcDbAlignedDimension
 13
428.0
 23
350.0
 33
0.0
 14
438.0
 24
350.5
 34
0.0
 50
0.0
100
AcDbRotatedDimension
  0
DIMENSION
  5
D8
100
AcDbEntity
  8
Bemassung
 62
256
370
-1
  6
ByLayer
100
AcDbDimension
 10
-20.0000000000000036
 20
150.5
 30
0.0
 11
-28.0000000000000071
 21
75.25
 31
0.0
 70
0
 71
5
 72
0
 41
1.0
 42
0.0
  1

  3
Standard
100
AcDbAlignedDimension
 13
0.0
 23
0.0
 33
0.0
 14
15.0000000000000107
 24
150.5
 34
0.0
 50
90.0
100
AcDbRotatedDimension
  0
DIMENSION
  5
D9
100
AcDbEntity
  8
Bemassung
 62
256
370
-1
  6
ByLayer
100
AcDbDimension
 10
-40.0000000000000071
 20
250.5
 30
0.0
 11
-48.0000000000000142
 21
125.25
 31
0.0
 70
0
 71
5
 72
0
 41
1.0
 42
0.0
  1

  3
Standard
100
AcDbAlignedDimension
 13
0.0
 23
0.0
 33
0.0
 14
15.000000000000016
 24
250.5
 34
0.0
 50
90.0
100
AcDbRotatedDimension
  0
DIMENSION
  5
DA
100
AcDbEntity
  8
Bemassung
 62
256
370
-1
  6
ByLayer
100
AcDbDimension
 10
-60.0000000000000071
 20
350.5
 30
0.0
 11
-68.0000000000000284
 21
175.25
 31
0.0
 70
0
 71
5
 72
0
 41
1.0
 42
0.0
  1

  3
Standard
100
AcDbAlignedDimension
 13
0.0
 23
0.0
 33
0.0
 14
15.0000000000000195
 24
350.5
 34
0.0
 50
90.0
100
AcDbRotatedDimension
  0
DIMENSION
  5
DB
100
AcDbEntity
  8
Bemassung
 62
256
370
-1
  6
ByLayer
100
AcDbDimension
 10
420.0
 20
150.5
 30
0.0
 11
412.0
 21
90.25
 31
0.0
 70
0
 71
5
 72
0
 41
1.0
 42
0.0
  1

  3
Standard
100
AcDbAlignedDimension
 13
428.0
 23
30.0
 33
0.0
 14
438.0
 24
150.5
 34
0.0
 50
90.0
100
AcDbRotatedDimension
  0
DIMENSION
  5
DC
100
AcDbEntity
  8
Bemassung
 62
256
370
-1
  6
ByLayer
100
AcDbDimension
 10
400.0
 20
250.5
 30
0.0
 11
392.0
 21
140.25
 31
0.0
 70
0
 71
5
 72
0
 41
1.0
 42
0.0
  1

  3
Standard
100
AcDbAlignedDimension
 13
428.0000000000000568
 23
30.0000000000000036
 33
0.0
 14
438.0
 24
250.5
 34
0.0
 50
90.0
100
AcDbRotatedDimension
  0
DIMENSION
  5
DD
100
AcDbEntity
  8
Bemassung
 62
256
370
-1
  6
ByLayer
100
AcDbDimension
 10
380.0
 20
350.5
 30
0.0
 11
372.0
 21
190.25
 31
0.0
 70
0
 71
5
 72
0
 41
1.0
 42
0.0
  1

  3
Standard
100
AcDbAlignedDimension
 13
428.0
 23
30.0
 33
0.0
 14
438.0
 24
350.5
 34
0.0
 50
90.0
100
AcDbRotatedDimension
  0
DIMENSION
  5
DE
100
AcDbEntity
  8
Bemassung
 62
256
370
-1
  6
ByLayer
100
AcDbDimension
 10
188.0
 20
-30.0
 30
0.0
 11
94.0
 21
-22.0
 31
0.0
 70
0
 71
5
 72
0
 41
1.0
 42
0.0
  1

  3
Standard
100
AcDbAlignedDimension
 13
0.0
 23
0.0
 33
0.0
 14
188.0
 24
15.0
 34
0.0
 50
0.0
100
AcDbRotatedDimension
  0
DIMENSION
  5
DF
100
AcDbEntity
  8
Bemassung
 62
256
370
-1
  6
ByLayer
100
AcDbDimension
 10
313.0
 20
-50.0
 30
0.0
 11
156.5
 21
-42.0
 31
0.0
 70
0
 71
5
 72
0
 41
1.0
 42
0.0
  1

  3
Standard
100
AcDbAlignedDimension
 13
0.0
 23
0.0
 33
0.0
 14
313.0
 24
15.0
 34
0.0
 50
0.0
100
AcDbRotatedDimension
  0
DIMENSION
  5
E0
100
AcDbEntity
  8
Bemassung
 62
256
370
-1
  6
ByLayer
100
AcDbDimension
 10
438.0
 20
-70.0
 30
0.0
 11
219.0
 21
-62.0
 31
0.0
 70
0
 71
5
 72
0
 41
1.0
 42
0.0
  1

  3
Standard
100
AcDbAlignedDimension
 13
0.0
 23
0.0
 33
0.0
 14
438.0
 24
15.0
 34
0.0
 50
0.0
100
AcDbRotatedDimension
  0
DIMENSION
  5
E1
100
AcDbEntity
  8
Bemassung
 62
256
370
-1
  6
ByLayer
100
AcDbDimension
 10
563.0
 20
-90.0
 30
0.0
 11
281.5
 21
-82.0
 31
0.0
 70
0
 71
5
 72
0
 41
1.0
 42
0.0
  1

  3
Standard
100
AcDbAlignedDimension
 13
0.0
 23
0.0
 33
0.0
 14
563.0
 24
15.0
 34
0.0
 50
0.0
100
AcDbRotatedDimension
  0
DIMENSION
  5
E2
100
AcDbEntity
  8
Bemassung
 62
256
370
-1
  6
ByLayer
100
AcDbDimension
 10
688.0
 20
-110.0
 30
0.0
 11
344.0
 21
-102.0
 31
0.0
 70
0
 71
5
 72
0
 41
1.0
 42
0.0
  1

  3
Standard
100
AcDbAlignedDimension
 13
0.0
 23
0.0
 33
0.0
 14
688.0
 24
15.0
 34
0.0
 50
0.0
100
AcDbRotatedDimension
  0
DIMENSION
  5
E3
100
AcDbEntity
  8
Bemassung
 62
256
370
-1
  6
ByLayer
100
AcDbDimension
 10
846.0
 20
520.0
 30
0.0
 11
438.0
 21
528.0
 31
0.0
 70
0
 71
5
 72
0
 41
1.0
 42
0.0
  1

  3
Standard
100
AcDbAlignedDimension
 13
30.0
 23
471.0
 33
0.0
 14
846.0
 24
471.0
 34
0.0
 50
0.0
100
AcDbRotatedDimension
  0
DIMENSION
  5
E4
100
AcDbEntity
  8
Bemassung
 62
256
370
-1
  6
ByLayer
100
AcDbDimension
 10
186.2111456180001596
 20
486.8944271909999202
 30
0.0
 11
191.5777087639996807
 21
493.1554175279993046
 31
0.0
 70
3
 71
5
 72
0
 41
1.0
 42
0.0
  1

  3
Standard
100
AcDbDiametricDimension
 15
189.7888543819998404
 25
485.1055728090000798
 35
0.0
 40
0.0
  0
DIMENSION
  5
E5
100
AcDbEntity
  8
Bemassung
 62
256
370
-1
  6
ByLayer
100
AcDbDimension
 10
0.0
 20
0.0
 30
0.0
 11
0.0
 21
0.0
 31
0.0
 70
2
 71
5
 72
0
 41
1.0
 42
0.0
  1

  3
Standard
100
AcDb2LineAngularDimension
 13
0.0000000000000307
 23
501.0
 33
0.0
 14
30.0000000000000284
 24
471.0
 34
0.0
 15
0.0000000000000307
 25
501.0
 35
0.0
 16
30.0
 26
450.0
 36
0.0
  0
DIMENSION
  5
E6
100
AcDbEntity
  8
Bemassung
 62
256
370
-1
  6
ByLayer
100
AcDbDimension
 10
428.0
 20
380.0
 30
0.0
 11
229.0
 21
388.0
 31
0.0
 70
0
 71
5
 72
0
 41
1.0
 42
0.0
  1

  3
Standard
100
AcDbAlignedDimension
 13
30.0000000000000284
 23
471.0
 33
0.0
 14
428.0
 24
471.0
 34
0.0
 50
0.0
100
AcDbRotatedDimension
  0
DIMENSION
  5
E7
100
AcDbEntity
  8
Bemassung
 62
256
370
-1
  6
ByLayer
100
AcDbDimension
 10
-20.0
 20
501.0
 30
0.0
 11
-28.0
 21
498.5
 31
0.0
 70
0
 71
5
 72
0
 41
1.0
 42
0.0
  1

  3
Standard
100
AcDbAlignedDimension
 13
5.0000000000000302
 23
496.0
 33
0.0
 14
0.0000000000000307
 24
501.0
 34
0.0
 50
90.0
100
AcDbRotatedDimension
  0
LINE
  5
E8
100
AcDbEntity
100
AcDbLine
  8
0.13
 62
256
370
-1
  6
ByLayer
 10
30.0000000000000284
 20
365.142135623730951
 30
0.0
 11
30.0000000000000284
 21
336.857864376269049
 31
0.0
  0
LINE
  5
E9
100
AcDbEntity
100
AcDbLine
  8
0.13
 62
256
370
-1
  6
ByLayer
 10
164.1421356237310363
 20
471.0
 30
0.0
 11
135.8578643762691058
 21
471.0
 31
0.0
  0
LINE
  5
EA
100
AcDbEntity
100
AcDbLine
  8
Raeder
 62
256
370
-1
  6
ByLayer
 10
118.0000000000000284
 20
411.0
 30
0.0
 11
3.0000000000000302
 21
411.0
 31
0.0
  0
LINE
  5
EB
100
AcDbEntity
100
AcDbLine
  8
Raeder
 62
256
370
-1
  6
ByLayer
 10
3.0000000000000302
 20
411.0
 30
0.0
 11
3.0000000000000302
 21
496.0
 31
0.0
  0
LINE
  5
EC
100
AcDbEntity
100
AcDbLine
  8
Raeder
 62
256
370
-1
  6
ByLayer
 10
3.0000000000000302
 20
496.0
 30
0.0
 11
118.0000000000000284
 21
496.0
 31
0.0
  0
LINE
  5
ED
100
AcDbEntity
100
AcDbLine
  8
Raeder
 62
256
370
-1
  6
ByLayer
 10
118.0000000000000284
 20
496.0
 30
0.0
 11
118.0000000000000284
 21
411.0
 31
0.0
  0
INSERT
  5
EE
100
AcDbEntity
100
AcDbBlockReference
  8
0.13
 62
256
370
-1
  6
ByLayer
  2
6mm-Gesenkt-O
 10
100.5000000000000284
 20
423.5
 30
0.0
 44
1.0
 45
1.0
  0
INSERT
  5
EF
100
AcDbEntity
100
AcDbBlockReference
  8
0.13
 62
256
370
-1
  6
ByLayer
  2
6mm-Gesenkt-O
 10
100.5000000000000284
 20
483.5
 30
0.0
 44
1.0
 45
1.0
  0
INSERT
  5
F0
100
AcDbEntity
100
AcDbBlockReference
  8
0.13
 62
256
370
-1
  6
ByLayer
  2
6mm-Gesenkt-O
 10
20.5000000000000284
 20
423.5
 30
0.0
 44
1.0
 45
1.0
  0
LINE
  5
F1
100
AcDbEntity
100
AcDbLine
  8
0.18
 62
256
370
-1
  6
ByLayer
 10
162.1421356237310079
 20
471.0
 30
0.0
 11
133.8578643762691058
 21
471.0
 31
0.0
  0
LINE
  5
F2
100
AcDbEntity
100
AcDbLine
  8
0.18
 62
256
370
-1
  6
ByLayer
 10
133.8578643762691058
 20
471.0
 30
0.0
 11
30.0000000000000284
 21
367.142135623730951
 31
0.0
  0
LINE
  5
F3
100
AcDbEntity
100
AcDbLine
  8
0.18
 62
256
370
-1
  6
ByLayer
 10
30.0000000000000284
 20
367.142135623730951
 30
0.0
 11
30.0000000000000284
 21
338.857864376269049
 31
0.0
  0
LINE
  5
F4
100
AcDbEntity
100
AcDbLine
  8
0.18
 62
256
370
-1
  6
ByLayer
 10
30.0000000000000284
 20
338.857864376269049
 30
0.0
 11
162.1421356237310363
 21
471.0
 31
0.0
  0
LINE
  5
F5
100
AcDbEntity
100
AcDbLine
  8
0.18
 62
256
370
-1
  6
ByLayer
 10
162.1421356237310363
 20
471.0
 30
0.0
 11
133.8578643762690774
 21
471.0
 31
0.0
  0
LINE
  5
F6
100
AcDbEntity
100
AcDbLine
  8
HilfBL
 62
256
370
-1
  6
ByLayer
 10
277.6302486872301643
 20
246.3697513127698357
 30
0.0
 11
-76.6302486872301074
 21
600.6302486872301643
 31
0.0
  0
DIMENSION
  5
F7
100
AcDbEntity
  8
Bemassung
 62
256
370
-1
  6
ByLayer
100
AcDbDimension
 10
198.5710678118655323
 20
434.5710678118654755
 30
0.0
 11
126.8431457505076168
 21
374.1568542494923122
 31
0.0
 70
1
 71
5
 72
0
 41
1.0
 42
0.0
  1

  3
Standard
100
AcDbAlignedDimension
 13
30.0000000000000284
 23
338.857864376269049
 33
0.0
 14
162.1421356237310363
 24
471.0
 34
0.0
  0
DIMENSION
  5
F8
100
AcDbEntity
  8
Bemassung
 62
256
370
-1
  6
ByLayer
100
AcDbDimension
 10
127.0
 20
396.9999999999999432
 30
0.0
 11
82.5576118445748932
 21
363.8713203435596029
 31
0.0
 70
1
 71
5
 72
0
 41
1.0
 42
0.0
  1

  3
Standard
100
AcDbAlignedDimension
 13
30.0000000000000284
 23
338.857864376269049
 33
0.0
 14
107.5710678118655181
 24
416.4289321881344677
 34
0.0
  0
DIMENSION
  5
F9
100
AcDbEntity
  8
Bemassung
 62
256
370
-1
  6
ByLayer
100
AcDbDimension
 10
133.8578643762691058
 20
505.0
 30
0.0
 11
81.9289321881345671
 21
513.0
 31
0.0
 70
0
 71
5
 72
0
 41
1.0
 42
0.0
  1

  3
Standard
100
AcDbAlignedDimension
 13
30.0000000000000284
 23
471.0
 33
0.0
 14
133.8578643762691058
 24
471.0
 34
0.0
 50
0.0
100
AcDbRotatedDimension
  0
LINE
  5
FA
100
AcDbEntity
100
AcDbLine
  8
HilfBL
 62
256
370
-1
  6
ByLayer
 10
118.0000000000000284
 20
423.5
 30
0.0
 11
3.0000000000000342
 21
423.5
 31
0.0
  0
LINE
  5
FB
100
AcDbEntity
100
AcDbLine
  8
HilfBL
 62
256
370
-1
  6
ByLayer
 10
3.000000000000028
 20
483.5
 30
0.0
 11
118.0000000000000284
 21
483.5
 31
0.0
  0
LINE
  5
FC
100
AcDbEntity
100
AcDbLine
  8
HilfBL
 62
256
370
-1
  6
ByLayer
 10
100.5000000000000284
 20
496.0
 30
0.0
 11
100.5000000000000284
 21
411.0
 31
0.0
  0
LINE
  5
FD
100
AcDbEntity
100
AcDbLine
  8
HilfBL
 62
256
370
-1
  6
ByLayer
 10
20.5000000000000284
 20
411.0
 30
0.0
 11
20.5000000000000284
 21
496.0
 31
0.0
  0
INSERT
  5
FE
100
AcDbEntity
100
AcDbBlockReference
  8
Bohrungen
 62
256
370
-1
  6
ByLayer
  2
6mm-Gesenkt-O
 10
20.5000000000000284
 20
483.5
 30
0.0
 44
1.0
 45
1.0
  0
CIRCLE
  5
FF
100
AcDbEntity
100
AcDbCircle
  8
U-Scheibe
 62
256
370
-1
  6
ByLayer
 10
100.5000000000000284
 20
423.5
 30
0.0
 40
9.0
  0
CIRCLE
  5
100
100
AcDbEntity
100
AcDbCircle
  8
U-Scheibe
 62
256
370
-1
  6
ByLayer
 10
20.5000000000000284
 20
423.5
 30
0.0
 40
9.0
  0
CIRCLE
  5
101
100
AcDbEntity
100
AcDbCircle
  8
U-Scheibe
 62
256
370
-1
  6
ByLayer
 10
20.5000000000000284
 20
483.5
 30
0.0
 40
9.0
  0
CIRCLE
  5
102
100
AcDbEntity
100
AcDbCircle
  8
U-Scheibe
 62
256
370
-1
  6
ByLayer
 10
20.5000000000000284
 20
483.5
 30
0.0
 40
3.2000000000000002
  0
CIRCLE
  5
103
100
AcDbEntity
100
AcDbCircle
  8
U-Scheibe
 62
256
370
-1
  6
ByLayer
 10
20.5000000000000284
 20
423.5
 30
0.0
 40
3.2000000000000002
  0
CIRCLE
  5
104
100
AcDbEntity
100
AcDbCircle
  8
U-Scheibe
 62
256
370
-1
  6
ByLayer
 10
100.5000000000000284
 20
423.5
 30
0.0
 40
3.2000000000000002
  0
INSERT
  5
105
100
AcDbEntity
100
AcDbBlockReference
  8
U-Scheibe
 62
256
370
-1
  6
ByLayer
  2
U-Scheibe-M6x18
 10
100.5000000000000284
 20
483.5
 30
0.0
  0
LINE
  5
106
100
AcDbEntity
100
AcDbLine
  8
Raeder
 62
256
370
-1
  6
ByLayer
 10
873.0
 20
411.0
 30
0.0
 11
758.0
 21
411.0
 31
0.0
  0
LINE
  5
107
100
AcDbEntity
100
AcDbLine
  8
Raeder
 62
256
370
-1
  6
ByLayer
 10
758.0
 20
411.0
 30
0.0
 11
758.0
 21
496.0
 31
0.0
  0
LINE
  5
108
100
AcDbEntity
100
AcDbLine
  8
Raeder
 62
256
370
-1
  6
ByLayer
 10
758.0
 20
496.0
 30
0.0
 11
873.0
 21
496.0
 31
0.0
  0
LINE
  5
109
100
AcDbEntity
100
AcDbLine
  8
Raeder
 62
256
370
-1
  6
ByLayer
 10
873.0
 20
496.0
 30
0.0
 11
873.0
 21
411.0
 31
0.0
  0
LINE
  5
10A
100
AcDbEntity
100
AcDbLine
  8
Raeder
 62
256
370
-1
  6
ByLayer
 10
758.0
 20
90.0
 30
0.0
 11
873.0
 21
90.0
 31
0.0
  0
LINE
  5
10B
100
AcDbEntity
100
AcDbLine
  8
Raeder
 62
256
370
-1
  6
ByLayer
 10
873.0
 20
90.0
 30
0.0
 11
873.0
 21
5.0
 31
0.0
  0
LINE
  5
10C
100
AcDbEntity
100
AcDbLine
  8
Raeder
 62
256
370
-1
  6
ByLayer
 10
873.0
 20
5.0
 30
0.0
 11
758.0
 21
5.0
 31
0.0
  0
LINE
  5
10D
100
AcDbEntity
100
AcDbLine
  8
Raeder
 62
256
370
-1
  6
ByLayer
 10
758.0
 20
5.0
 30
0.0
 11
758.0
 21
90.0
 31
0.0
  0
LINE
  5
10E
100
AcDbEntity
100
AcDbLine
  8
HilfBL
 62
256
370
-1
  6
ByLayer
 10
775.5
 20
4.9999999999999956
 30
0.0
 11
775.5
 21
90.0
 31
0.0
  0
LINE
  5
10F
100
AcDbEntity
100
AcDbLine
  8
HilfBL
 62
256
370
-1
  6
ByLayer
 10
855.5
 20
3.0000000000000027
 30
0.0
 11
855.5
 21
498.0
 31
0.0
  0
LINE
  5
110
100
AcDbEntity
100
AcDbLine
  8
HilfBL
 62
256
370
-1
  6
ByLayer
 10
775.5
 20
411.0
 30
0.0
 11
775.5
 21
496.0
 31
0.0
  0
LINE
  5
111
100
AcDbEntity
100
AcDbLine
  8
HilfBL
 62
256
370
-1
  6
ByLayer
 10
873.0
 20
423.5
 30
0.0
 11
758.0
 21
423.5
 31
0.0
  0
LINE
  5
112
100
AcDbEntity
100
AcDbLine
  8
HilfBL
 62
256
370
-1
  6
ByLayer
 10
758.0
 20
483.5
 30
0.0
 11
873.0
 21
483.5
 31
0.0
  0
LINE
  5
113
100
AcDbEntity
100
AcDbLine
  8
HilfBL
 62
256
370
-1
  6
ByLayer
 10
758.0
 20
77.5
 30
0.0
 11
873.0
 21
77.5
 31
0.0
  0
LINE
  5
114
100
AcDbEntity
100
AcDbLine
  8
HilfBL
 62
256
370
-1
  6
ByLayer
 10
873.0
 20
17.5
 30
0.0
 11
758.0
 21
17.5
 31
0.0
  0
LINE
  5
115
100
AcDbEntity
100
AcDbLine
  8
Raeder
 62
256
370
-1
  6
ByLayer
 10
3.0000000000000053
 20
90.0
 30
0.0
 11
118.0
 21
90.0
 31
0.0
  0
LINE
  5
116
100
AcDbEntity
100
AcDbLine
  8
Raeder
 62
256
370
-1
  6
ByLayer
 10
118.0
 20
90.0
 30
0.0
 11
118.0
 21
5.0
 31
0.0
  0
LINE
  5
117
100
AcDbEntity
100
AcDbLine
  8
Raeder
 62
256
370
-1
  6
ByLayer
 10
118.0
 20
5.0
 30
0.0
 11
3.0000000000000053
 21
5.0
 31
0.0
  0
LINE
  5
118
100
AcDbEntity
100
AcDbLine
  8
Raeder
 62
256
370
-1
  6
ByLayer
 10
3.0000000000000053
 20
5.0
 30
0.0
 11
3.0000000000000053
 21
90.0
 31
0.0
  0
LINE
  5
119
100
AcDbEntity
100
AcDbLine
  8
HilfBL
 62
256
370
-1
  6
ByLayer
 10
118.0
 20
17.5
 30
0.0
 11
3.0000000000000093
 21
17.5
 31
0.0
  0
LINE
  5
11A
100
AcDbEntity
100
AcDbLine
  8
HilfBL
 62
256
370
-1
  6
ByLayer
 10
3.0000000000000031
 20
77.5
 30
0.0
 11
118.0
 21
77.5
 31
0.0
  0
LINE
  5
11B
100
AcDbEntity
100
AcDbLine
  8
HilfBL
 62
256
370
-1
  6
ByLayer
 10
100.5
 20
90.0
 30
0.0
 11
100.5
 21
5.0000000000000062
 31
0.0
  0
LINE
  5
11C
100
AcDbEntity
100
AcDbLine
  8
HilfBL
 62
256
370
-1
  6
ByLayer
 10
20.5
 20
2.9999999999999956
 30
0.0
 11
20.500000000000032
 21
498.0
 31
0.0
  0
INSERT
  5
11D
100
AcDbEntity
100
AcDbBlockReference
  8
Bohrungen
 62
256
370
-1
  6
ByLayer
  2
6mm-Gesenkt-O
 10
100.5
 20
77.5
 30
0.0
 44
1.0
 45
1.0
  0
INSERT
  5
11E
100
AcDbEntity
100
AcDbBlockReference
  8
Bohrungen
 62
256
370
-1
  6
ByLayer
  2
6mm-Gesenkt-O
 10
20.5000000000000036
 20
77.5
 30
0.0
 44
1.0
 45
1.0
  0
INSERT
  5
11F
100
AcDbEntity
100
AcDbBlockReference
  8
Bohrungen
 62
256
370
-1
  6
ByLayer
  2
6mm-Gesenkt-O
 10
20.5
 20
17.5
 30
0.0
 44
1.0
 45
1.0
  0
INSERT
  5
120
100
AcDbEntity
100
AcDbBlockReference
  8
Bohrungen
 62
256
370
-1
  6
ByLayer
  2
6mm-Gesenkt-O
 10
100.5
 20
17.5
 30
0.0
 44
1.0
 45
1.0
  0
INSERT
  5
121
100
AcDbEntity
100
AcDbBlockReference
  8
U-Scheibe
 62
256
370
-1
  6
ByLayer
  2
6mm-Gesenkt-O
 10
100.5
 20
77.5
 30
0.0
 44
1.0
 45
1.0
  0
INSERT
  5
122
100
AcDbEntity
100
AcDbBlockReference
  8
U-Scheibe
 62
256
370
-1
  6
ByLayer
  2
6mm-Gesenkt-O
 10
20.5000000000000036
 20
77.5
 30
0.0
 44
1.0
 45
1.0
  0
INSERT
  5
123
100
AcDbEntity
100
AcDbBlockReference
  8
U-Scheibe
 62
256
370
-1
  6
ByLayer
  2
6mm-Gesenkt-O
 10
20.5
 20
17.5
 30
0.0
 44
1.0
 45
1.0
  0
INSERT
  5
124
100
AcDbEntity
100
AcDbBlockReference
  8
U-Scheibe
 62
256
370
-1
  6
ByLayer
  2
6mm-Gesenkt-O
 10
100.5
 20
17.5
 30
0.0
 44
1.0
 45
1.0
  0
LINE
  5
125
100
AcDbEntity
100
AcDbLine
  8
HilfBL
 62
256
370
-1
  6
ByLayer
 10
206.5660171779821326
 20
-28.5660171779821326
 30
0.0
 11
-5.5660171779821042
 21
183.5660171779821326
 31
0.0
  0
LINE
  5
126
100
AcDbEntity
100
AcDbLine
  8
HilfBL
 62
256
370
-1
  6
ByLayer
 10
881.5660171779820757
 20
317.4339828220178674
 30
0.0
 11
669.4339828220178106
 21
529.5660171779820757
 31
0.0
  0
LINE
  5
127
100
AcDbEntity
100
AcDbLine
  8
HilfBL
 62
256
370
-1
  6
ByLayer
 10
669.4339828220179243
 20
-28.5660171779821184
 30
0.0
 11
881.5660171779821894
 21
183.5660171779821326
 31
0.0
  0
LINE
  5
128
100
AcDbEntity
100
AcDbLine
  8
HilfBL
 62
256
370
-1
  6
ByLayer
 10
662.3629150101525056
 20
-21.4949493661166429
 30
0.0
 11
874.4949493661167708
 21
190.6370849898476081
 31
0.0
  0
LINE
  5
129
100
AcDbEntity
100
AcDbLine
  8
HilfBL
 62
256
370
-1
  6
ByLayer
 10
676.5050506338833429
 20
-35.6370849898475939
 30
0.0
 11
888.6370849898476081
 21
176.4949493661166571
 31
0.0
  0
LINE
  5
12A
100
AcDbEntity
100
AcDbLine
  8
HilfBL
 62
256
370
-1
  6
ByLayer
 10
213.6370849898476081
 20
-21.4949493661166642
 30
0.0
 11
1.5050506338833793
 21
190.6370849898476081
 31
0.0
  0
LINE
  5
12B
100
AcDbEntity
100
AcDbLine
  8
HilfBL
 62
256
370
-1
  6
ByLayer
 10
199.4949493661166571
 20
-35.637084989847601
 30
0.0
 11
-12.6370849898475868
 21
176.4949493661166571
 31
0.0
  0
LINE
  5
12C
100
AcDbEntity
100
AcDbLine
  8
HilfBL
 62
256
370
-1
  6
ByLayer
 10
888.6370849898474944
 20
324.5050506338833429
 30
0.0
 11
676.5050506338832292
 21
536.6370849898476081
 31
0.0
  0
LINE
  5
12D
100
AcDbEntity
100
AcDbLine
  8
HilfBL
 62
256
370
-1
  6
ByLayer
 10
874.4949493661166571
 20
310.3629150101523919
 30
0.0
 11
662.3629150101523919
 21
522.4949493661165434
 31
0.0
  0
LINE
  5
12E
100
AcDbEntity
100
AcDbLine
  8
0.18
 62
256
370
-1
  6
ByLayer
 10
742.1421356237308373
 20
471.0
 30
0.0
 11
713.8578643762689353
 21
471.0
 31
0.0
  0
LINE
  5
12F
100
AcDbEntity
100
AcDbLine
  8
0.18
 62
256
370
-1
  6
ByLayer
 10
713.8578643762689353
 20
471.0
 30
0.0
 11
846.0
 21
338.857864376269049
 31
0.0
  0
LINE
  5
130
100
AcDbEntity
100
AcDbLine
  8
0.18
 62
256
370
-1
  6
ByLayer
 10
846.0
 20
338.857864376269049
 30
0.0
 11
846.0
 21
367.1421356237308373
 31
0.0
  0
LINE
  5
131
100
AcDbEntity
100
AcDbLine
  8
0.18
 62
256
370
-1
  6
ByLayer
 10
846.0
 20
367.1421356237308373
 30
0.0
 11
742.1421356237308373
 21
471.0
 31
0.0
  0
LINE
  5
132
100
AcDbEntity
100
AcDbLine
  8
0.18
 62
256
370
-1
  6
ByLayer
 10
846.0
 20
133.8578643762689921
 30
0.0
 11
846.0
 21
162.1421356237307805
 31
0.0
  0
LINE
  5
133
100
AcDbEntity
100
AcDbLine
  8
0.18
 62
256
370
-1
  6
ByLayer
 10
846.0
 20
162.1421356237307805
 30
0.0
 11
713.8578643762691627
 21
30.0
 31
0.0
  0
LINE
  5
134
100
AcDbEntity
100
AcDbLine
  8
0.18
 62
256
370
-1
  6
ByLayer
 10
713.8578643762691627
 20
30.0
 30
0.0
 11
742.142135623730951
 21
29.9999999999999858
 31
0.0
  0
LINE
  5
135
100
AcDbEntity
100
AcDbLine
  8
0.18
 62
256
370
-1
  6
ByLayer
 10
742.142135623730951
 20
29.9999999999999858
 30
0.0
 11
846.0
 21
133.8578643762689921
 31
0.0
  0
LINE
  5
136
100
AcDbEntity
100
AcDbLine
  8
0.18
 62
256
370
-1
  6
ByLayer
 10
30.0000000000000107
 20
162.1421356237309794
 30
0.0
 11
30.0
 21
133.8578643762690774
 31
0.0
  0
LINE
  5
137
100
AcDbEntity
100
AcDbLine
  8
0.18
 62
256
370
-1
  6
ByLayer
 10
30.0
 20
133.8578643762690774
 30
0.0
 11
133.857864376269049
 21
30.0000000000000071
 31
0.0
  0
LINE
  5
138
100
AcDbEntity
100
AcDbLine
  8
0.18
 62
256
370
-1
  6
ByLayer
 10
133.857864376269049
 20
30.0000000000000071
 30
0.0
 11
162.142135623730951
 21
30.0
 31
0.0
  0
LINE
  5
139
100
AcDbEntity
100
AcDbLine
  8
0.18
 62
256
370
-1
  6
ByLayer
 10
162.142135623730951
 20
30.0
 30
0.0
 11
30.0000000000000107
 21
162.1421356237309794
 31
0.0
  0
INSERT
  5
13A
100
AcDbEntity
100
AcDbBlockReference
  8
Bohrungen
 62
256
370
-1
  6
ByLayer
  2
6mm-Gesenkt-O
 10
775.5
 20
483.5
 30
0.0
 44
1.0
 45
1.0
  0
INSERT
  5
13B
100
AcDbEntity
100
AcDbBlockReference
  8
Bohrungen
 62
256
370
-1
  6
ByLayer
  2
6mm-Gesenkt-O
 10
775.5
 20
423.4999999999999432
 30
0.0
 44
1.0
 45
1.0
  0
INSERT
  5
13C
100
AcDbEntity
100
AcDbBlockReference
  8
Bohrungen
 62
256
370
-1
  6
ByLayer
  2
6mm-Gesenkt-O
 10
855.5
 20
423.5
 30
0.0
 44
1.0
 45
1.0
  0
INSERT
  5
13D
100
AcDbEntity
100
AcDbBlockReference
  8
Bohrungen
 62
256
370
-1
  6
ByLayer
  2
6mm-Gesenkt-O
 10
855.5
 20
483.5
 30
0.0
 44
1.0
 45
1.0
  0
INSERT
  5
13E
100
AcDbEntity
100
AcDbBlockReference
  8
Bohrungen
 62
256
370
-1
  6
ByLayer
  2
6mm-Gesenkt-O
 10
775.5
 20
77.4999999999999716
 30
0.0
 44
1.0
 45
1.0
  0
INSERT
  5
13F
100
AcDbEntity
100
AcDbBlockReference
  8
Bohrungen
 62
256
370
-1
  6
ByLayer
  2
6mm-Gesenkt-O
 10
775.5
 20
17.5
 30
0.0
 44
1.0
 45
1.0
  0
INSERT
  5
140
100
AcDbEntity
100
AcDbBlockReference
  8
Bohrungen
 62
256
370
-1
  6
ByLayer
  2
6mm-Gesenkt-O
 10
855.5
 20
17.5
 30
0.0
 44
1.0
 45
1.0
  0
INSERT
  5
141
100
AcDbEntity
100
AcDbBlockReference
  8
Bohrungen
 62
256
370
-1
  6
ByLayer
  2
6mm-Gesenkt-O
 10
855.5
 20
77.5
 30
0.0
 44
1.0
 45
1.0
  0
INSERT
  5
142
100
AcDbEntity
100
AcDbBlockReference
  8
U-Scheibe
 62
256
370
-1
  6
ByLayer
  2
6mm-Gesenkt-O
 10
775.5
 20
17.5
 30
0.0
 44
1.0
 45
1.0
  0
INSERT
  5
143
100
AcDbEntity
100
AcDbBlockReference
  8
U-Scheibe
 62
256
370
-1
  6
ByLayer
  2
6mm-Gesenkt-O
 10
775.5
 20
77.5
 30
0.0
 44
1.0
 45
1.0
  0
INSERT
  5
144
100
AcDbEntity
100
AcDbBlockReference
  8
U-Scheibe
 62
256
370
-1
  6
ByLayer
  2
6mm-Gesenkt-O
 10
855.5
 20
77.5
 30
0.0
 44
1.0
 45
1.0
  0
INSERT
  5
145
100
AcDbEntity
100
AcDbBlockReference
  8
U-Scheibe
 62
256
370
-1
  6
ByLayer
  2
6mm-Gesenkt-O
 10
855.5
 20
17.5
 30
0.0
 44
1.0
 45
1.0
  0
INSERT
  5
146
100
AcDbEntity
100
AcDbBlockReference
  8
U-Scheibe
 62
256
370
-1
  6
ByLayer
  2
6mm-Gesenkt-O
 10
775.5
 20
423.4999999999999432
 30
0.0
 44
1.0
 45
1.0
  0
INSERT
  5
147
100
AcDbEntity
100
AcDbBlockReference
  8
U-Scheibe
 62
256
370
-1
  6
ByLayer
  2
6mm-Gesenkt-O
 10
775.5
 20
483.5
 30
0.0
 44
1.0
 45
1.0
  0
INSERT
  5
148
100
AcDbEntity
100
AcDbBlockReference
  8
U-Scheibe
 62
256
370
-1
  6
ByLayer
  2
6mm-Gesenkt-O
 10
855.5
 20
483.5
 30
0.0
 44
1.0
 45
1.0
  0
INSERT
  5
149
100
AcDbEntity
100
AcDbBlockReference
  8
U-Scheibe
 62
256
370
-1
  6
ByLayer
  2
6mm-Gesenkt-O
 10
855.5
 20
423.5
 30
0.0
 44
1.0
 45
1.0
  0
INSERT
  5
14A
100
AcDbEntity
100
AcDbBlockReference
  8
U-Scheibe
 62
256
370
-1
  6
ByLayer
  2
6mm-Gesenkt-O
 10
20.4999999999999858
 20
17.5
 30
0.0
 44
1.0
 45
1.0
  0
INSERT
  5
14B
100
AcDbEntity
100
AcDbBlockReference
  8
U-Scheibe
 62
256
370
-1
  6
ByLayer
  2
6mm-Gesenkt-O
 10
100.5
 20
77.5
 30
0.0
 44
1.0
 45
1.0
  0
INSERT
  5
14C
100
AcDbEntity
100
AcDbBlockReference
  8
U-Scheibe
 62
256
370
-1
  6
ByLayer
  2
6mm-Gesenkt-O
 10
100.5
 20
17.5
 30
0.0
 44
1.0
 45
1.0
  0
INSERT
  5
14D
100
AcDbEntity
100
AcDbBlockReference
  8
U-Scheibe
 62
256
370
-1
  6
ByLayer
  2
6mm-Gesenkt-O
 10
20.5000000000000036
 20
77.5
 30
0.0
 44
1.0
 45
1.0
  0
DIMENSION
  5
14E
100
AcDbEntity
  8
Bemassung
 62
256
370
-1
  6
ByLayer
100
AcDbDimension
 10
97.8425053941595593
 20
484.8920209840116513
 30
0.0
 11
104.2120559573644414
 21
490.586652282241289
 31
0.0
 70
3
 71
5
 72
0
 41
1.0
 42
0.0
  1

  3
Standard
100
AcDbDiametricDimension
 15
103.1574946058404976
 25
482.1079790159883487
 35
0.0
 40
0.0
  0
DIMENSION
  5
14F
100
AcDbEntity
  8
Bemassung
 62
256
370
-1
  6
ByLayer
100
AcDbDimension
 10
855.5
 20
-20.0
 30
0.0
 11
865.75
 21
-12.0
 31
0.0
 70
0
 71
5
 72
0
 41
1.0
 42
0.0
  1

  3
Standard
100
AcDbAlignedDimension
 13
876.0
 23
0.0
 33
0.0
 14
855.5
 24
17.5
 34
0.0
 50
0.0
100
AcDbRotatedDimension
  0
DIMENSION
  5
150
100
AcDbEntity
  8
Bemassung
 62
256
370
-1
  6
ByLayer
100
AcDbDimension
 10
775.5
 20
-30.0
 30
0.0
 11
825.75
 21
-22.0
 31
0.0
 70
0
 71
5
 72
0
 41
1.0
 42
0.0
  1

  3
Standard
100
AcDbAlignedDimension
 13
876.0
 23
0.0
 33
0.0
 14
775.5
 24
17.5
 34
0.0
 50
0.0
100
AcDbRotatedDimension
  0
DIMENSION
  5
151
100
AcDbEntity
  8
Bemassung
 62
256
370
-1
  6
ByLayer
100
AcDbDimension
 10
920.0
 20
17.4999999999999929
 30
0.0
 11
912.0
 21
8.7500000000000018
 31
0.0
 70
0
 71
5
 72
0
 41
1.0
 42
0.0
  1

  3
Standard
100
AcDbAlignedDimension
 13
876.0
 23
0.0
 33
0.0
 14
855.5
 24
17.5
 34
0.0
 50
90.0
100
AcDbRotatedDimension
  0
DIMENSION
  5
152
100
AcDbEntity
  8
Bemassung
 62
256
370
-1
  6
ByLayer
100
AcDbDimension
 10
840.0
 20
77.5
 30
0.0
 11
832.0
 21
53.75
 31
0.0
 70
0
 71
5
 72
0
 41
1.0
 42
0.0
  1

  3
Standard
100
AcDbAlignedDimension
 13
846.0
 23
30.0
 33
0.0
 14
855.5
 24
77.5
 34
0.0
 50
90.0
100
AcDbRotatedDimension
  0
DIMENSION
  5
153
100
AcDbEntity
  8
Bemassung
 62
256
370
-1
  6
ByLayer
100
AcDbDimension
 10
855.5
 20
100.0
 30
0.0
 11
850.75
 21
108.0
 31
0.0
 70
0
 71
5
 72
0
 41
1.0
 42
0.0
  1

  3
Standard
100
AcDbAlignedDimension
 13
846.0
 23
77.5
 33
0.0
 14
855.5
 24
77.5
 34
0.0
 50
0.0
100
AcDbRotatedDimension
  0
DIMENSION
  5
154
100
AcDbEntity
  8
Bemassung
 62
256
370
-1
  6
ByLayer
100
AcDbDimension
 10
3.0000000000000009
 20
512.0
 30
0.0
 11
1.5000000000000155
 21
520.0
 31
0.0
 70
0
 71
5
 72
0
 41
1.0
 42
0.0
  1

  3
Standard
100
AcDbAlignedDimension
 13
0.0000000000000307
 23
501.0
 33
0.0
 14
3.0
 24
498.0
 34
0.0
 50
0.0
100
AcDbRotatedDimension
  0
DIMENSION
  5
155
100
AcDbEntity
  8
Bemassung
 62
256
370
-1
  6
ByLayer
100
AcDbDimension
 10
846.0
 20
471.0
 30
0.0
 11
0.0
 21
0.0
 31
0.0
 70
2
 71
5
 72
0
 41
1.0
 42
0.0
  1

  3
Standard
100
AcDb2LineAngularDimension
 13
162.1421356237310363
 23
471.0
 33
0.0
 14
30.0000000000000284
 24
338.857864376269049
 34
0.0
 15
30.0000000000000284
 25
471.0
 35
0.0
 16
140.0
 26
460.0
 36
0.0
  0
DIMENSION
  5
156
100
AcDbEntity
  8
Bemassung
 62
256
370
-1
  6
ByLayer
100
AcDbDimension
 10
930.0
 20
2.9999999999999929
 30
0.0
 11
922.0
 21
250.5
 31
0.0
 70
0
 71
5
 72
0
 41
1.0
 42
0.0
  1

  3
Standard
100
AcDbAlignedDimension
 13
873.0
 23
498.0
 33
0.0
 14
873.0
 24
3.0
 34
0.0
 50
90.0
100
AcDbRotatedDimension
  0
DIMENSION
  5
157
100
AcDbEntity
  8
Bemassung
 62
256
370
-1
  6
ByLayer
100
AcDbDimension
 10
960.0
 20
-0.0000000000000103
 30
0.0
 11
952.0
 21
250.5
 31
0.0
 70
0
 71
5
 72
0
 41
1.0
 42
0.0
  1

  3
Standard
100
AcDbAlignedDimension
 13
876.0
 23
501.0
 33
0.0
 14
876.0
 24
0.0
 34
0.0
 50
90.0
100
AcDbRotatedDimension
  0
DIMENSION
  5
158
100
AcDbEntity
  8
Bemassung
 62
256
370
-1
  6
ByLayer
100
AcDbDimension
 10
873.0
 20
540.0
 30
0.0
 11
438.0
 21
548.0
 31
0.0
 70
0
 71
5
 72
0
 41
1.0
 42
0.0
  1

  3
Standard
100
AcDbAlignedDimension
 13
3.0000000000000306
 23
498.0
 33
0.0
 14
873.0
 24
498.0
 34
0.0
 50
0.0
100
AcDbRotatedDimension
  0
DIMENSION
  5
159
100
AcDbEntity
  8
Bemassung
 62
256
370
-1
  6
ByLayer
100
AcDbDimension
 10
876.0
 20
560.0
 30
0.0
 11
438.0
 21
568.0
 31
0.0
 70
0
 71
5
 72
0
 41
1.0
 42
0.0
  1

  3
Standard
100
AcDbAlignedDimension
 13
0.0000000000000307
 23
501.0
 33
0.0
 14
876.0
 24
501.0
 34
0.0
 50
0.0
100
AcDbRotatedDimension
  0
ENDSEC
  0
SECTION
  2
OBJECTS
  0
DICTIONARY
  5
C
100
AcDbDictionary
280
0
281
1
  3
ACAD_GROUP
350
D
  3
ACAD_LAYOUT
350
1A
  3
ACAD_MLINESTYLE
350
17
  3
ACAD_PLOTSETTINGS
350
19
  3
ACAD_PLOTSTYLENAME
350
E
  3
AcDbVariableDictionary
350
15A
  0
DICTIONARY
  5
D
100
AcDbDictionary
280
0
281
1
  0
ACDBDICTIONARYWDFLT
  5
E
100
AcDbDictionary
281
1
  3
Normal
350
F
100
AcDbDictionaryWithDefault
340
F
  0
ACDBPLACEHOLDER
  5
F
  0
DICTIONARY
  5
17
100
AcDbDictionary
280
0
281
1
  3
Standard
350
18
  0
MLINESTYLE
  5
18
100
AcDbMlineStyle
  2
STANDARD
 70
0
  3

 62
256
 51
90.0
 52
90.0
 71
2
 49
0.5
 62
256
  6
BYLAYER
 49
-0.5
 62
256
  6
BYLAYER
  0
DICTIONARY
  5
19
100
AcDbDictionary
280
0
281
1
  0
DICTIONARY
  5
1A
100
AcDbDictionary
281
1
  3
Layout1
350
1E
  3
Layout2
350
26
  3
Model
350
22
  0
LAYOUT
  5
1E
100
AcDbPlotSettings
  1

  2
C:\Program Files\AutoCAD 2002\plotters\DWF ePlot (optimized for plotting).pc3
  4

  6

 40
0.0
 41
0.0
 42
0.0
 43
0.0
 44
0.0
 45
0.0
 46
0.0
 47
0.0
 48
0.0
 49
0.0
140
0.0
141
0.0
142
1.0
143
1.0
 70
688
 72
0
 73
0
 74
5
  7

 75
16
147
1.0
148
0.0
149
0.0
100
AcDbLayout
  1
Layout1
 70
1
 71
1
 10
0.0
 20
0.0
 11
420.0
 21
297.0
 12
0.0
 22
0.0
 32
0.0
 14
100000000000000000000.0
 24
100000000000000000000.0
 34
100000000000000000000.0
 15
-100000000000000000000.0
 25
-100000000000000000000.0
 35
-100000000000000000000.0
146
0.0
 13
0.0
 23
0.0
 33
0.0
 16
1.0
 26
0.0
 36
0.0
 17
0.0
 27
1.0
 37
0.0
 76
0
330
1B
  0
LAYOUT
  5
22
100
AcDbPlotSettings
  1

  2
C:\Program Files\AutoCAD 2002\plotters\DWF ePlot (optimized for plotting).pc3
  4

  6

 40
0.0
 41
0.0
 42
0.0
 43
0.0
 44
0.0
 45
0.0
 46
0.0
 47
0.0
 48
0.0
 49
0.0
140
0.0
141
0.0
142
1.0
143
1.0
 70
1712
 72
0
 73
0
 74
0
  7

 75
0
147
1.0
148
0.0
149
0.0
100
AcDbLayout
  1
Model
 70
1
 71
0
 10
0.0
 20
0.0
 11
12.0
 21
9.0
 12
0.0
 22
0.0
 32
0.0
 14
0.0
 24
0.0
 34
0.0
 15
0.0
 25
0.0
 35
0.0
146
0.0
 13
0.0
 23
0.0
 33
0.0
 16
1.0
 26
0.0
 36
0.0
 17
0.0
 27
1.0
 37
0.0
 76
0
330
1F
  0
LAYOUT
  5
26
100
AcDbPlotSettings
  1

  2
C:\Program Files\AutoCAD 2002\plotters\DWF ePlot (optimized for plotting).pc3
  4

  6

 40
0.0
 41
0.0
 42
0.0
 43
0.0
 44
0.0
 45
0.0
 46
0.0
 47
0.0
 48
0.0
 49
0.0
140
0.0
141
0.0
142
1.0
143
1.0
 70
688
 72
0
 73
0
 74
5
  7

 75
16
147
1.0
148
0.0
149
0.0
100
AcDbLayout
  1
Layout2
 70
1
 71
2
 10
0.0
 20
0.0
 11
12.0
 21
9.0
 12
0.0
 22
0.0
 32
0.0
 14
0.0
 24
0.0
 34
0.0
 15
0.0
 25
0.0
 35
0.0
146
0.0
 13
0.0
 23
0.0
 33
0.0
 16
1.0
 26
0.0
 36
0.0
 17
0.0
 27
1.0
 37
0.0
 76
0
330
23
  0
DICTIONARY
  5
15A
100
AcDbDictionary
281
1
  3
DIMASSOC
350
15C
  3
HIDETEXT
350
15B
  0
DICTIONARYVAR
  5
15B
100
DictionaryVariables
280
0
  1
2
  0
DICTIONARYVAR
  5
15C
100
DictionaryVariables
280
0
  1
1
  0
ENDSEC
  0
EOF
